SplineFontDB: 2.0
FontName: THKrub-Italic
FullName: THKrub-Italic
FamilyName: TH Krub
Weight: Book
Copyright: Copyright (c) 2006 by Department of Intellectual Property (DIP), Ministry of Commerce and Software Industry Promotion Agency (Public Organization) (SIPA). All rights reserved.
Version: 1.1
ItalicAngle: -12
UnderlinePosition: -58
UnderlineWidth: 35
Ascent: 800
Descent: 200
Order2: 1
XUID: [1021 375 425136265 13130006]
FSType: 0
OS2Version: 3
OS2_WeightWidthSlopeOnly: 0
OS2_UseTypoMetrics: 1
CreationTime: 1157677500
ModificationTime: 1196153634
PfmFamily: 17
TTFWeight: 400
TTFWidth: 5
LineGap: 20
VLineGap: 0
Panose: 2 0 5 6 4 0 0 2 0 4
OS2TypoAscent: 0
OS2TypoAOffset: 1
OS2TypoDescent: 0
OS2TypoDOffset: 1
OS2TypoLinegap: 0
OS2WinAscent: -107
OS2WinAOffset: 1
OS2WinDescent: -188
OS2WinDOffset: 1
HheadAscent: 0
HheadAOffset: 1
HheadDescent: 150
HheadDOffset: 1
OS2SubXSize: 700
OS2SubYSize: 650
OS2SubXOff: 0
OS2SubYOff: 140
OS2SupXSize: 700
OS2SupYSize: 650
OS2SupXOff: 0
OS2SupYOff: 477
OS2StrikeYSize: 35
OS2StrikeYPos: 250
OS2FamilyClass: 2053
OS2Vendor: 'b513'
Lookup: 4 0 1 "'rlig' Required Ligatures in Latin lookup 0"  {"'rlig' Required Ligatures in Latin lookup 0 subtable"  } ['rlig' ('latn' <'dflt' > ) ]
Lookup: 4 0 0 "'frac' Diagonal Fractions in Latin lookup 1"  {"'frac' Diagonal Fractions in Latin lookup 1 subtable"  } ['frac' ('latn' <'dflt' > ) ]
Lookup: 4 0 0 "'ccmp' Glyph Composition/Decomposition in Latin lookup 2"  {"'ccmp' Glyph Composition/Decomposition in Latin lookup 2 subtable"  } ['ccmp' ('latn' <'dflt' > ) ]
Lookup: 6 0 0 "'liga' Standard Ligatures in Latin lookup 3"  {"'liga' Standard Ligatures in Latin lookup 3 subtable"  } ['liga' ('latn' <'dflt' > ) ]
Lookup: 6 0 0 "'liga' Standard Ligatures in Latin lookup 4"  {"'liga' Standard Ligatures in Latin lookup 4 subtable"  } ['liga' ('latn' <'dflt' > ) ]

StartChar: exclam
Encoding: 33 33 2
Width: 251
VWidth: 1473
Flags: W
HStem: 0 102<97 175> 696 20G<224.554 327>
VStem: 141 58<220.847 265.839>
Fore
327 716 m 1,0,-1
 199 211 l 1,1,-1
 141 211 l 1,2,-1
 228 716 l 1,3,-1
 327 716 l 1,0,-1
77 0 m 1,4,-1
 97 102 l 1,5,-1
 196 102 l 1,6,-1
 175 0 l 1,7,-1
 77 0 l 1,4,-1
EndSplineSet
EndChar
StartChar: quotedbl
Encoding: 34 34 3
Width: 331
VWidth: 1473
Flags: W
HStem: 517 237<240 242 358 359 190 410 240 240>
Fore
240 754 m 1,0,-1
 292 754 l 1,1,-1
 242 517 l 1,2,-1
 190 517 l 1,3,-1
 240 754 l 1,0,-1
358 754 m 1,4,-1
 410 754 l 1,5,-1
 359 517 l 1,6,-1
 308 517 l 1,7,-1
 358 754 l 1,4,-1
EndSplineSet
EndChar
StartChar: numbersign
Encoding: 35 35 4
Width: 530
VWidth: 1473
Flags: W
HStem: 0 21G<105 159.022 292 346.022> 225 46<82 184 247 371 435 527> 420 46<150 253 317 440 505 595>
Fore
527 225 m 1,0,-1
 418 225 l 1,1,-1
 339 0 l 1,2,-1
 292 0 l 1,3,-1
 371 225 l 1,4,-1
 231 225 l 1,5,-1
 152 0 l 1,6,-1
 105 0 l 1,7,-1
 184 225 l 1,8,-1
 72 225 l 1,9,-1
 82 271 l 1,10,-1
 200 271 l 1,11,-1
 253 420 l 1,12,-1
 140 420 l 1,13,-1
 150 466 l 1,14,-1
 268 466 l 1,15,-1
 348 689 l 1,16,-1
 396 689 l 1,17,-1
 317 466 l 1,18,-1
 457 466 l 1,19,-1
 535 689 l 1,20,-1
 583 689 l 1,21,-1
 505 466 l 1,22,-1
 605 466 l 1,23,-1
 595 420 l 1,24,-1
 486 420 l 1,25,-1
 435 271 l 1,26,-1
 538 271 l 1,27,-1
 527 225 l 1,0,-1
299 420 m 1,28,-1
 247 271 l 1,29,-1
 387 271 l 1,30,-1
 440 420 l 1,31,-1
 299 420 l 1,28,-1
EndSplineSet
EndChar
StartChar: dollar
Encoding: 36 36 5
Width: 623
VWidth: 1473
Flags: W
HStem: 0 53<211.459 286 349 394.284> 666 54<388.27 427 491 546.408>
VStem: 66 61<78.2775 164>
Fore
461 828 m 1,0,-1
 514 828 l 1,1,-1
 491 720 l 1,2,3
 529 719 529 719 560.5 706.5 c 128,-1,4
 592 694 592 694 615.5 675 c 128,-1,5
 639 656 639 656 654 633 c 128,-1,6
 669 610 669 610 675 588 c 1,7,8
 673 588 673 588 665 582 c 128,-1,9
 657 576 657 576 647.5 569.5 c 128,-1,10
 638 563 638 563 630 557 c 128,-1,11
 622 551 622 551 619 550 c 1,12,13
 603 598 603 598 568 627.5 c 128,-1,14
 533 657 533 657 479 664 c 1,15,-1
 421 393 l 1,16,17
 461 382 461 382 501.5 367 c 128,-1,18
 542 352 542 352 571.5 328.5 c 128,-1,19
 601 305 601 305 616 269.5 c 128,-1,20
 631 234 631 234 619 181 c 0,21,22
 608 130 608 130 580 95 c 128,-1,23
 552 60 552 60 514.5 39.5 c 128,-1,24
 477 19 477 19 431.5 9.5 c 128,-1,25
 386 0 386 0 339 0 c 1,26,-1
 309 -133 l 1,27,-1
 256 -133 l 1,28,-1
 286 0 l 1,29,30
 203 3 203 3 145 45.5 c 128,-1,31
 87 88 87 88 66 164 c 1,32,-1
 127 200 l 1,33,34
 141 140 141 140 183 96.5 c 128,-1,35
 225 53 225 53 296 53 c 1,36,-1
 358 342 l 1,37,38
 320 354 320 354 283 367 c 128,-1,39
 246 380 246 380 218 401.5 c 128,-1,40
 190 423 190 423 177.5 455.5 c 128,-1,41
 165 488 165 488 175 536 c 0,42,43
 186 588 186 588 210 622.5 c 128,-1,44
 234 657 234 657 268.5 678.5 c 128,-1,45
 303 700 303 700 346.5 709.5 c 128,-1,46
 390 719 390 719 438 720 c 1,47,-1
 461 828 l 1,0,-1
427 666 m 1,48,49
 395 666 395 666 364 659.5 c 128,-1,50
 333 653 333 653 307 638 c 128,-1,51
 281 623 281 623 263 599 c 128,-1,52
 245 575 245 575 237 541 c 0,53,54
 228 504 228 504 237.5 482 c 128,-1,55
 247 460 247 460 268 446.5 c 128,-1,56
 289 433 289 433 317 425 c 128,-1,57
 345 417 345 417 373 410 c 1,58,-1
 427 666 l 1,48,49
349 53 m 1,59,60
 385 53 385 53 418.5 61 c 128,-1,61
 452 69 452 69 481 84.5 c 128,-1,62
 510 100 510 100 530.5 125 c 128,-1,63
 551 150 551 150 558 184 c 0,64,65
 566 221 566 221 554 244 c 128,-1,66
 542 267 542 267 519 282.5 c 128,-1,67
 496 298 496 298 466 308 c 128,-1,68
 436 318 436 318 408 329 c 1,69,-1
 349 53 l 1,59,60
EndSplineSet
EndChar
StartChar: percent
Encoding: 37 37 6
Width: 879
VWidth: 1473
Flags: W
HStem: 0 53<584.194 708.921> 273 51<646.134 755.269> 390 53<273.949 382.653> 661 55<335.604 445.699>
Fore
393 716 m 0,0,1
 427 716 427 716 454.5 702.5 c 128,-1,2
 482 689 482 689 499 667 c 128,-1,3
 516 645 516 645 522.5 615.5 c 128,-1,4
 529 586 529 586 522 552 c 256,5,6
 514 519 514 519 495 489.5 c 128,-1,7
 476 460 476 460 449.5 437.5 c 128,-1,8
 423 415 423 415 390.5 402.5 c 128,-1,9
 358 390 358 390 324 390 c 0,10,11
 292 390 292 390 264.5 402.5 c 128,-1,12
 237 415 237 415 220 437.5 c 128,-1,13
 203 460 203 460 196.5 489.5 c 128,-1,14
 190 519 190 519 197 552 c 256,15,16
 205 586 205 586 224 615.5 c 128,-1,17
 243 645 243 645 269.5 667 c 128,-1,18
 296 689 296 689 328.5 702.5 c 128,-1,19
 361 716 361 716 393 716 c 0,0,1
382 661 m 0,20,21
 337 661 337 661 298 630.5 c 128,-1,22
 259 600 259 600 250 552 c 0,23,24
 239 507 239 507 264.5 475 c 128,-1,25
 290 443 290 443 334 443 c 0,26,27
 382 443 382 443 420 475 c 128,-1,28
 458 507 458 507 468 552 c 0,29,30
 479 600 479 600 454 630.5 c 128,-1,31
 429 661 429 661 382 661 c 0,20,21
703 324 m 0,32,33
 737 324 737 324 764 311.5 c 128,-1,34
 791 299 791 299 808.5 277 c 128,-1,35
 826 255 826 255 833 225.5 c 128,-1,36
 840 196 840 196 832 162 c 0,37,38
 825 130 825 130 806 100.5 c 128,-1,39
 787 71 787 71 760.5 49 c 128,-1,40
 734 27 734 27 701.5 13.5 c 128,-1,41
 669 0 669 0 635 0 c 0,42,43
 603 0 603 0 575.5 13.5 c 128,-1,44
 548 27 548 27 530.5 49 c 128,-1,45
 513 71 513 71 506 100.5 c 128,-1,46
 499 130 499 130 507 162 c 0,47,48
 514 196 514 196 533 225.5 c 128,-1,49
 552 255 552 255 578.5 277 c 128,-1,50
 605 299 605 299 637.5 311.5 c 128,-1,51
 670 324 670 324 703 324 c 0,32,33
692 273 m 0,52,53
 647 273 647 273 608.5 240.5 c 128,-1,54
 570 208 570 208 561 162 c 0,55,56
 550 116 550 116 575 84.5 c 128,-1,57
 600 53 600 53 645 53 c 0,58,59
 692 53 692 53 731 84.5 c 128,-1,60
 770 116 770 116 779 162 c 0,61,62
 791 208 791 208 765.5 240.5 c 128,-1,63
 740 273 740 273 692 273 c 0,52,53
262 -10 m 1,64,-1
 202 -10 l 1,65,-1
 768 726 l 1,66,-1
 829 726 l 1,67,-1
 262 -10 l 1,64,-1
EndSplineSet
EndChar
StartChar: ampersand
Encoding: 38 38 7
Width: 702
VWidth: 1473
Flags: W
HStem: -10 53<209.626 369.565 583.062 626> 672 54<377.75 490.559>
Fore
143 171 m 0,0,1
 137 140 137 140 145 115.5 c 128,-1,2
 153 91 153 91 171.5 75 c 128,-1,3
 190 59 190 59 216 51 c 128,-1,4
 242 43 242 43 270 43 c 0,5,6
 333 43 333 43 377 68 c 128,-1,7
 421 93 421 93 443 112 c 1,8,9
 429 130 429 130 410.5 161 c 128,-1,10
 392 192 392 192 373.5 227 c 128,-1,11
 355 262 355 262 339 296.5 c 128,-1,12
 323 331 323 331 312 357 c 1,13,14
 246 323 246 323 202.5 283 c 128,-1,15
 159 243 159 243 143 171 c 0,0,1
336 569 m 0,16,17
 329 535 329 535 333 501 c 128,-1,18
 337 467 337 467 354 438 c 1,19,20
 407 464 407 464 448 506 c 128,-1,21
 489 548 489 548 499 592 c 0,22,23
 507 626 507 626 492 649 c 128,-1,24
 477 672 477 672 436 672 c 0,25,26
 401 672 401 672 374.5 647.5 c 128,-1,27
 348 623 348 623 336 569 c 0,16,17
663 324 m 1,28,29
 638 268 638 268 605 214.5 c 128,-1,30
 572 161 572 161 529 113 c 1,31,32
 548 88 548 88 574.5 70 c 128,-1,33
 601 52 601 52 639 50 c 1,34,-1
 626 -10 l 1,35,36
 577 -7 577 -7 540.5 13.5 c 128,-1,37
 504 34 504 34 474 68 c 1,38,39
 427 29 427 29 369.5 9.5 c 128,-1,40
 312 -10 312 -10 255 -10 c 0,41,42
 214 -10 214 -10 177 1.5 c 128,-1,43
 140 13 140 13 115 36 c 128,-1,44
 90 59 90 59 79 94.5 c 128,-1,45
 68 130 68 130 78 175 c 0,46,47
 87 215 87 215 102.5 245 c 128,-1,48
 118 275 118 275 143.5 302 c 128,-1,49
 169 329 169 329 206 354.5 c 128,-1,50
 243 380 243 380 295 410 c 1,51,52
 278 448 278 448 271 490 c 128,-1,53
 264 532 264 532 274 576 c 0,54,55
 289 648 289 648 336 687 c 128,-1,56
 383 726 383 726 451 726 c 0,57,58
 513 726 513 726 545 690 c 128,-1,59
 577 654 577 654 563 588 c 0,60,61
 555 552 555 552 536 523 c 128,-1,62
 517 494 517 494 491.5 469.5 c 128,-1,63
 466 445 466 445 435.5 424.5 c 128,-1,64
 405 404 405 404 374 385 c 1,65,66
 404 324 404 324 430.5 264.5 c 128,-1,67
 457 205 457 205 492 156 c 1,68,69
 527 197 527 197 556 243 c 128,-1,70
 585 289 585 289 604 336 c 1,71,-1
 663 324 l 1,28,29
EndSplineSet
EndChar
StartChar: quotesingle
Encoding: 39 39 8
Width: 228
VWidth: 1473
Flags: W
HStem: 517 237<247 249 197 299 247 247>
Fore
247 754 m 1,0,-1
 299 754 l 1,1,-1
 249 517 l 1,2,-1
 197 517 l 1,3,-1
 247 754 l 1,0,-1
EndSplineSet
EndChar
StartChar: parenleft
Encoding: 40 40 9
Width: 397
VWidth: 1473
Flags: W
VStem: 151.5 74<62.6271 142.5 142.5 208.906 208.906 214.766 214.766 387.155>
Fore
517 874 m 1,0,1
 458 819 458 819 411.5 758 c 128,-1,2
 365 697 365 697 330 634.5 c 128,-1,3
 295 572 295 572 271 509 c 128,-1,4
 247 446 247 446 236 389 c 0,5,6
 222 330 222 330 219.5 267.5 c 128,-1,7
 217 205 217 205 225.5 142.5 c 128,-1,8
 234 80 234 80 254.5 18 c 128,-1,9
 275 -44 275 -44 309 -99 c 1,10,-1
 224 -99 l 1,11,12
 196 -44 196 -44 177.5 18 c 128,-1,13
 159 80 159 80 151.5 142.5 c 128,-1,14
 144 205 144 205 147 267.5 c 128,-1,15
 150 330 150 330 164 389 c 0,16,17
 175 446 175 446 198.5 509 c 128,-1,18
 222 572 222 572 256 634.5 c 128,-1,19
 290 697 290 697 334.5 758 c 128,-1,20
 379 819 379 819 432 874 c 1,21,-1
 517 874 l 1,0,1
EndSplineSet
EndChar
StartChar: parenright
Encoding: 41 41 10
Width: 397
VWidth: 1473
Flags: W
VStem: 343 71<390.783 563.94 563.94 567.85 567.85 634.5 634.5 713.963>
Fore
44 -99 m 1,0,1
 103 -44 103 -44 150 18 c 128,-1,2
 197 80 197 80 232.5 142.5 c 128,-1,3
 268 205 268 205 291.5 267.5 c 128,-1,4
 315 330 315 330 329 389 c 0,5,6
 340 446 340 446 343 509 c 128,-1,7
 346 572 346 572 337.5 634.5 c 128,-1,8
 329 697 329 697 307.5 758 c 128,-1,9
 286 819 286 819 252 874 c 1,10,-1
 337 874 l 1,11,12
 367 819 367 819 384.5 758 c 128,-1,13
 402 697 402 697 409.5 634.5 c 128,-1,14
 417 572 417 572 414 509 c 128,-1,15
 411 446 411 446 399 389 c 0,16,17
 386 330 386 330 362.5 267.5 c 128,-1,18
 339 205 339 205 305 142.5 c 128,-1,19
 271 80 271 80 227 18 c 128,-1,20
 183 -44 183 -44 130 -99 c 1,21,-1
 44 -99 l 1,0,1
EndSplineSet
EndChar
StartChar: asterisk
Encoding: 42 42 11
Width: 632
VWidth: 1473
Flags: W
HStem: 538 403<480 520 480 480>
VStem: 264 425<756 762 756 756>
Fore
498 757 m 1,0,-1
 682 826 l 1,1,-1
 689 762 l 1,2,-1
 498 717 l 1,3,-1
 588 583 l 1,4,-1
 520 538 l 1,5,-1
 466 698 l 1,6,-1
 340 538 l 1,7,-1
 290 576 l 1,8,-1
 442 717 l 1,9,-1
 264 756 l 1,10,-1
 301 824 l 1,11,-1
 460 757 l 1,12,-1
 480 941 l 1,13,-1
 551 941 l 1,14,-1
 498 757 l 1,0,-1
EndSplineSet
EndChar
StartChar: plus
Encoding: 43 43 12
Width: 751
VWidth: 1473
Flags: W
HStem: 301 61<150 407 479 735>
Fore
477 632 m 1,0,-1
 536 632 l 1,1,-1
 479 362 l 1,2,-1
 748 362 l 1,3,-1
 735 301 l 1,4,-1
 466 301 l 1,5,-1
 408 31 l 1,6,-1
 349 31 l 1,7,-1
 407 301 l 1,8,-1
 137 301 l 1,9,-1
 150 362 l 1,10,-1
 420 362 l 1,11,-1
 477 632 l 1,0,-1
EndSplineSet
EndChar
StartChar: comma
Encoding: 44 44 13
Width: 315
VWidth: 1473
Flags: W
HStem: -171 273<97 228 228 228>
Fore
228 102 m 1,0,-1
 208 0 l 1,1,-1
 97 -171 l 1,2,-1
 55 -171 l 1,3,-1
 156 0 l 1,4,-1
 108 0 l 1,5,-1
 128 102 l 1,6,-1
 228 102 l 1,0,-1
EndSplineSet
EndChar
StartChar: hyphen
Encoding: 45 45 14
Width: 490
VWidth: 1473
Flags: W
HStem: 314 66<141 495 128 508 141 141>
Fore
128 314 m 1,0,-1
 141 380 l 1,1,-1
 508 380 l 1,2,-1
 495 314 l 1,3,-1
 128 314 l 1,0,-1
EndSplineSet
EndChar
StartChar: period
Encoding: 46 46 15
Width: 315
VWidth: 1473
Flags: W
HStem: 0 102<128 208 108 228 128 128>
Fore
108 0 m 1,0,-1
 128 102 l 1,1,-1
 228 102 l 1,2,-1
 208 0 l 1,3,-1
 108 0 l 1,0,-1
EndSplineSet
EndChar
StartChar: slash
Encoding: 47 47 16
Width: 331
VWidth: 1473
Flags: W
Fore
57 -56 m 1,0,-1
 -12 -56 l 1,1,-1
 471 829 l 1,2,-1
 536 829 l 1,3,-1
 57 -56 l 1,0,-1
EndSplineSet
EndChar
StartChar: zero
Encoding: 48 48 17
Width: 615
VWidth: 1473
Flags: W
HStem: -7 60<223.866 425.19> 617 59<336.158 533.066>
VStem: 99.5 65.5<124.098 187.5 187.5 251.918>
Fore
318 53 m 0,0,1
 432 53 432 53 488.5 123 c 128,-1,2
 545 193 545 193 573 329 c 0,3,4
 589 402 589 402 591.5 456.5 c 128,-1,5
 594 511 594 511 579 546.5 c 128,-1,6
 564 582 564 582 530 599.5 c 128,-1,7
 496 617 496 617 439 617 c 256,8,9
 382 617 382 617 340 599.5 c 128,-1,10
 298 582 298 582 268.5 546.5 c 128,-1,11
 239 511 239 511 218 456.5 c 128,-1,12
 197 402 197 402 181 329 c 0,13,14
 166 261 166 261 165 209.5 c 128,-1,15
 164 158 164 158 178.5 123 c 128,-1,16
 193 88 193 88 227 70.5 c 128,-1,17
 261 53 261 53 318 53 c 0,0,1
305 -7 m 0,18,19
 234 -7 234 -7 189 15.5 c 128,-1,20
 144 38 144 38 122 81.5 c 128,-1,21
 100 125 100 125 99.5 187.5 c 128,-1,22
 99 250 99 250 115 329 c 0,23,24
 150 495 150 495 229 585.5 c 128,-1,25
 308 676 308 676 451 676 c 256,26,27
 594 676 594 676 634.5 585.5 c 128,-1,28
 675 495 675 495 639 329 c 0,29,30
 605 171 605 171 526.5 82 c 128,-1,31
 448 -7 448 -7 305 -7 c 0,18,19
EndSplineSet
EndChar
StartChar: one
Encoding: 49 49 18
Width: 469
VWidth: 1473
Flags: W
HStem: 0 56<91 217 283 390> 565 20G<237.148 324.766>
VStem: 80 334<0 673 -3.02156 0>
Fore
80 0 m 1,0,-1
 91 56 l 1,1,-1
 217 56 l 1,2,-1
 329 585 l 1,3,-1
 205 558 l 1,4,-1
 215 610 l 1,5,-1
 379 673 l 1,6,-1
 414 673 l 1,7,-1
 283 56 l 1,8,-1
 402 56 l 1,9,-1
 390 0 l 1,10,-1
 80 0 l 1,0,-1
EndSplineSet
EndChar
StartChar: two
Encoding: 50 50 19
Width: 549
VWidth: 1473
Flags: W
HStem: 0 60<130 482> 620 59<328.041 495.49>
Fore
164 488 m 1,0,1
 199 579 199 579 269 629 c 128,-1,2
 339 679 339 679 426 679 c 0,3,4
 527 679 527 679 565.5 628 c 128,-1,5
 604 577 604 577 585 489 c 0,6,7
 569 408 569 408 514.5 355 c 128,-1,8
 460 302 460 302 355 249 c 0,9,10
 286 214 286 214 244 186.5 c 128,-1,11
 202 159 202 159 177.5 137 c 128,-1,12
 153 115 153 115 143.5 96.5 c 128,-1,13
 134 78 134 78 130 60 c 1,14,-1
 494 60 l 1,15,-1
 482 0 l 1,16,-1
 53 0 l 1,17,-1
 65 57 l 2,18,19
 69 82 69 82 78.5 106 c 128,-1,20
 88 130 88 130 114.5 158 c 128,-1,21
 141 186 141 186 191.5 219 c 128,-1,22
 242 252 242 252 327 295 c 0,23,24
 382 321 382 321 415.5 344 c 128,-1,25
 449 367 449 367 470.5 389 c 128,-1,26
 492 411 492 411 502.5 435.5 c 128,-1,27
 513 460 513 460 519 488 c 0,28,29
 532 550 532 550 508.5 585 c 128,-1,30
 485 620 485 620 407 620 c 0,31,32
 357 620 357 620 309.5 587 c 128,-1,33
 262 554 262 554 228 479 c 1,34,-1
 164 488 l 1,0,1
EndSplineSet
EndChar
StartChar: three
Encoding: 51 51 20
Width: 561
VWidth: 1473
Flags: W
HStem: -9 59<199.087 388.073> 327 60<261 426.017> 620 59<317.023 485.406>
VStem: 66 65<84.7861 125>
Fore
131 153 m 1,0,1
 140 121 140 121 151 100.5 c 128,-1,2
 162 80 162 80 179.5 68.5 c 128,-1,3
 197 57 197 57 221.5 53.5 c 128,-1,4
 246 50 246 50 278 50 c 0,5,6
 362 50 362 50 407 83 c 128,-1,7
 452 116 452 116 467 187 c 0,8,9
 483 261 483 261 443.5 294 c 128,-1,10
 404 327 404 327 309 327 c 2,11,-1
 249 327 l 1,12,-1
 261 387 l 1,13,-1
 311 387 l 2,14,15
 402 387 402 387 451.5 416.5 c 128,-1,16
 501 446 501 446 516 514 c 0,17,18
 529 576 529 576 501 598 c 128,-1,19
 473 620 473 620 404 620 c 0,20,21
 357 620 357 620 317 599.5 c 128,-1,22
 277 579 277 579 233 536 c 1,23,-1
 190 575 l 1,24,25
 250 631 250 631 308.5 655 c 128,-1,26
 367 679 367 679 421 679 c 0,27,28
 460 679 460 679 493 671.5 c 128,-1,29
 526 664 526 664 549.5 646 c 128,-1,30
 573 628 573 628 582.5 597 c 128,-1,31
 592 566 592 566 582 519 c 0,32,33
 567 451 567 451 536 413.5 c 128,-1,34
 505 376 505 376 440 359 c 1,35,36
 495 348 495 348 523 309 c 128,-1,37
 551 270 551 270 535 190 c 0,38,39
 513 84 513 84 443 37.5 c 128,-1,40
 373 -9 373 -9 262 -9 c 0,41,42
 180 -9 180 -9 130 23.5 c 128,-1,43
 80 56 80 56 66 125 c 1,44,-1
 131 153 l 1,0,1
EndSplineSet
EndChar
StartChar: four
Encoding: 52 52 21
Width: 522
VWidth: 1473
Flags: W
HStem: 0 21G<327 397.247> 146 60<130 358 436 527 44 539 130 130>
Fore
130 206 m 1,0,-1
 370 206 l 1,1,-1
 455 604 l 1,2,-1
 449 604 l 1,3,-1
 130 206 l 1,0,-1
56 203 m 1,4,-1
 451 673 l 1,5,-1
 536 673 l 1,6,-1
 436 206 l 1,7,-1
 539 206 l 1,8,-1
 527 146 l 1,9,-1
 424 146 l 1,10,-1
 393 0 l 1,11,-1
 327 0 l 1,12,-1
 358 146 l 1,13,-1
 44 146 l 1,14,-1
 56 203 l 1,4,-1
EndSplineSet
EndChar
StartChar: five
Encoding: 53 53 22
Width: 568
VWidth: 1473
Flags: W
HStem: -9 59<223.54 400.847> 380 60<320.084 472.72> 614 59<306 597>
Fore
153 305 m 1,0,-1
 264 673 l 1,1,-1
 610 673 l 1,2,-1
 597 614 l 1,3,-1
 306 614 l 1,4,-1
 240 390 l 1,5,6
 277 420 277 420 318 430 c 128,-1,7
 359 440 359 440 405 440 c 0,8,9
 502 440 502 440 542.5 383.5 c 128,-1,10
 583 327 583 327 563 225 c 0,11,12
 539 115 539 115 467 53 c 128,-1,13
 395 -9 395 -9 280 -9 c 0,14,15
 249 -9 249 -9 218 -1 c 128,-1,16
 187 7 187 7 161.5 22.5 c 128,-1,17
 136 38 136 38 117.5 61.5 c 128,-1,18
 99 85 99 85 90 116 c 1,19,-1
 147 149 l 1,20,21
 164 93 164 93 205.5 71.5 c 128,-1,22
 247 50 247 50 299 50 c 0,23,24
 390 50 390 50 434.5 97 c 128,-1,25
 479 144 479 144 495 221 c 0,26,27
 516 311 516 311 487 345.5 c 128,-1,28
 458 380 458 380 382 380 c 0,29,30
 339 380 339 380 285 360 c 128,-1,31
 231 340 231 340 202 298 c 1,32,-1
 153 305 l 1,0,-1
EndSplineSet
EndChar
StartChar: six
Encoding: 54 54 23
Width: 590
VWidth: 1473
Flags: W
HStem: -9 61<249.404 405.255> 359 59<311.653 477.85> 620 59<343.343 512.42>
Fore
573 572 m 1,0,1
 548 598 548 598 515.5 609 c 128,-1,2
 483 620 483 620 443 620 c 0,3,4
 386 620 386 620 347 602.5 c 128,-1,5
 308 585 308 585 280.5 548 c 128,-1,6
 253 511 253 511 235 457.5 c 128,-1,7
 217 404 217 404 200 330 c 1,8,9
 243 368 243 368 300.5 393 c 128,-1,10
 358 418 358 418 410 418 c 256,11,12
 461 418 461 418 498 401.5 c 128,-1,13
 535 385 535 385 556 355.5 c 128,-1,14
 577 326 577 326 583 286 c 128,-1,15
 589 246 589 246 579 199 c 0,16,17
 569 150 569 150 542.5 112 c 128,-1,18
 516 74 516 74 479 47.5 c 128,-1,19
 442 21 442 21 398 6 c 128,-1,20
 354 -9 354 -9 308 -9 c 0,21,22
 237 -9 237 -9 195 14 c 128,-1,23
 153 37 153 37 134 78 c 128,-1,24
 115 119 115 119 115.5 179 c 128,-1,25
 116 239 116 239 131 311 c 0,26,27
 150 399 150 399 176.5 467.5 c 128,-1,28
 203 536 203 536 242 583.5 c 128,-1,29
 281 631 281 631 333.5 655 c 128,-1,30
 386 679 386 679 457 679 c 0,31,32
 501 679 501 679 548 665 c 128,-1,33
 595 651 595 651 625 623 c 1,34,-1
 573 572 l 1,0,1
516 209 m 0,35,36
 530 278 530 278 498.5 318.5 c 128,-1,37
 467 359 467 359 387 359 c 0,38,39
 351 359 351 359 314.5 344 c 128,-1,40
 278 329 278 329 249.5 308 c 128,-1,41
 221 287 221 287 203.5 267 c 128,-1,42
 186 247 186 247 184 239 c 0,43,44
 172 184 172 184 178 147 c 128,-1,45
 184 110 184 110 203 89.5 c 128,-1,46
 222 69 222 69 253 60.5 c 128,-1,47
 284 52 284 52 323 52 c 0,48,49
 482 52 482 52 516 209 c 0,35,36
EndSplineSet
EndChar
StartChar: seven
Encoding: 55 55 24
Width: 493
VWidth: 1473
Flags: W
HStem: 0 21G<106 194.344> 614 59<196 522>
Fore
196 673 m 1,0,-1
 610 673 l 1,1,-1
 600 628 l 1,2,-1
 181 0 l 1,3,-1
 106 0 l 1,4,-1
 522 614 l 1,5,-1
 183 614 l 1,6,-1
 196 673 l 1,0,-1
EndSplineSet
EndChar
StartChar: eight
Encoding: 56 56 25
Width: 577
VWidth: 1473
Flags: W
HStem: -9 59<215.428 408.851> 622 59<324.366 506.269>
Fore
433 681 m 0,0,1
 530 681 530 681 576.5 636.5 c 128,-1,2
 623 592 623 592 605 507 c 0,3,4
 595 463 595 463 554 421 c 128,-1,5
 513 379 513 379 445 357 c 1,6,7
 523 318 523 318 547.5 271 c 128,-1,8
 572 224 572 224 560 172 c 0,9,10
 541 81 541 81 466.5 36 c 128,-1,11
 392 -9 392 -9 286 -9 c 0,12,13
 234 -9 234 -9 193 2 c 128,-1,14
 152 13 152 13 125.5 36 c 128,-1,15
 99 59 99 59 89.5 93 c 128,-1,16
 80 127 80 127 88 172 c 0,17,18
 100 224 100 224 143 271 c 128,-1,19
 186 318 186 318 281 357 c 1,20,21
 224 379 224 379 199.5 421 c 128,-1,22
 175 463 175 463 186 507 c 0,23,24
 203 592 203 592 270 636.5 c 128,-1,25
 337 681 337 681 433 681 c 0,0,1
155 172 m 0,26,27
 143 113 143 113 183.5 81.5 c 128,-1,28
 224 50 224 50 299 50 c 256,29,30
 374 50 374 50 428 81.5 c 128,-1,31
 482 113 482 113 494 172 c 0,32,33
 505 227 505 227 469 261.5 c 128,-1,34
 433 296 433 296 358 329 c 1,35,36
 270 296 270 296 218 261.5 c 128,-1,37
 166 227 166 227 155 172 c 0,26,27
250 510 m 0,38,39
 242 467 242 467 276.5 433 c 128,-1,40
 311 399 311 399 370 382 c 1,41,42
 436 399 436 399 484 433 c 128,-1,43
 532 467 532 467 541 510 c 0,44,45
 552 560 552 560 519 591 c 128,-1,46
 486 622 486 622 420 622 c 256,47,48
 354 622 354 622 308 591 c 128,-1,49
 262 560 262 560 250 510 c 0,38,39
EndSplineSet
EndChar
StartChar: nine
Encoding: 57 57 26
Width: 590
VWidth: 1473
Flags: W
HStem: -7 57<237.495 386.482> 252 60<253.547 419.76> 620 61<327.282 482.661>
Fore
159 100 m 1,0,1
 184 72 184 72 216.5 61 c 128,-1,2
 249 50 249 50 287 50 c 0,3,4
 345 50 345 50 384 68.5 c 128,-1,5
 423 87 423 87 451 123 c 128,-1,6
 479 159 479 159 497.5 214.5 c 128,-1,7
 516 270 516 270 530 342 c 1,8,9
 488 303 488 303 431 277.5 c 128,-1,10
 374 252 374 252 323 252 c 256,11,12
 271 252 271 252 234 269 c 128,-1,13
 197 286 197 286 176 315.5 c 128,-1,14
 155 345 155 345 149 385.5 c 128,-1,15
 143 426 143 426 153 473 c 0,16,17
 164 522 164 522 190.5 560 c 128,-1,18
 217 598 217 598 253.5 624.5 c 128,-1,19
 290 651 290 651 334.5 666 c 128,-1,20
 379 681 379 681 424 681 c 0,21,22
 495 681 495 681 537 658 c 128,-1,23
 579 635 579 635 598 593 c 128,-1,24
 617 551 617 551 616.5 492 c 128,-1,25
 616 433 616 433 601 361 c 0,26,27
 582 273 582 273 555.5 204.5 c 128,-1,28
 529 136 529 136 490 88.5 c 128,-1,29
 451 41 451 41 397 17 c 128,-1,30
 343 -7 343 -7 273 -7 c 0,31,32
 230 -7 230 -7 183 7 c 128,-1,33
 136 21 136 21 106 47 c 1,34,-1
 159 100 l 1,0,1
217 461 m 0,35,36
 202 392 202 392 233.5 352 c 128,-1,37
 265 312 265 312 345 312 c 0,38,39
 383 312 383 312 418.5 327.5 c 128,-1,40
 454 343 454 343 482 363 c 128,-1,41
 510 383 510 383 528.5 403.5 c 128,-1,42
 547 424 547 424 548 433 c 0,43,44
 560 489 560 489 554 525 c 128,-1,45
 548 561 548 561 529 582 c 128,-1,46
 510 603 510 603 479 611.5 c 128,-1,47
 448 620 448 620 410 620 c 0,48,49
 250 620 250 620 217 461 c 0,35,36
EndSplineSet
EndChar
StartChar: colon
Encoding: 58 58 27
Width: 331
VWidth: 1473
Flags: W
HStem: 0 108<136 218> 364 107<214 295>
VStem: 113 205<0 471 282.586 371.264>
Fore
113 0 m 1,0,-1
 136 108 l 1,1,-1
 240 108 l 1,2,-1
 218 0 l 1,3,-1
 113 0 l 1,0,-1
190 364 m 1,4,-1
 214 471 l 1,5,-1
 318 471 l 1,6,-1
 295 364 l 1,7,-1
 190 364 l 1,4,-1
EndSplineSet
EndChar
StartChar: semicolon
Encoding: 59 59 28
Width: 331
VWidth: 1473
Flags: W
HStem: 364 107<214 295>
VStem: 57 261<-180 471 213.003 301.682>
Fore
240 108 m 1,0,-1
 218 0 l 1,1,-1
 103 -180 l 1,2,-1
 57 -180 l 1,3,-1
 165 0 l 1,4,-1
 113 0 l 1,5,-1
 136 108 l 1,6,-1
 240 108 l 1,0,-1
190 364 m 1,7,-1
 214 471 l 1,8,-1
 318 471 l 1,9,-1
 295 364 l 1,10,-1
 190 364 l 1,7,-1
EndSplineSet
EndChar
StartChar: less
Encoding: 60 60 29
Width: 715
VWidth: 1473
Flags: W
HStem: -7 21G<626.493 670.348>
Fore
666 -7 m 1,0,-1
 105 277 l 1,1,-1
 119 343 l 1,2,-1
 801 628 l 1,3,-1
 787 558 l 1,4,-1
 193 311 l 1,5,-1
 681 62 l 1,6,-1
 666 -7 l 1,0,-1
EndSplineSet
EndChar
StartChar: equal
Encoding: 61 61 30
Width: 577
VWidth: 1473
Flags: W
HStem: 203 64<108 569> 412 64<152 613>
Fore
613 412 m 1,0,-1
 138 412 l 1,1,-1
 152 476 l 1,2,-1
 626 476 l 1,3,-1
 613 412 l 1,0,-1
569 203 m 1,4,-1
 94 203 l 1,5,-1
 108 267 l 1,6,-1
 582 267 l 1,7,-1
 569 203 l 1,4,-1
EndSplineSet
EndChar
StartChar: greater
Encoding: 62 62 31
Width: 715
VWidth: 1473
Flags: W
HStem: -7 21G<48.3478 92.0282>
Fore
59 62 m 1,0,-1
 653 311 l 1,1,-1
 165 558 l 1,2,-1
 180 628 l 1,3,-1
 741 343 l 1,4,-1
 726 277 l 1,5,-1
 44 -7 l 1,6,-1
 59 62 l 1,0,-1
EndSplineSet
EndChar
StartChar: question
Encoding: 63 63 32
Width: 486
VWidth: 1473
Flags: W
HStem: 0 108<190 271> 742 65<348.929 458.909>
VStem: 168 412.5<0 697 1.53064e-18 1.53064e-18>
Fore
172 653 m 1,0,1
 211 720 211 720 275.5 763.5 c 128,-1,2
 340 807 340 807 418 807 c 0,3,4
 457 807 457 807 490.5 794.5 c 128,-1,5
 524 782 524 782 547 758 c 128,-1,6
 570 734 570 734 580.5 697 c 128,-1,7
 591 660 591 660 580 613 c 0,8,9
 567 554 567 554 528 512 c 128,-1,10
 489 470 489 470 444 433 c 128,-1,11
 399 396 399 396 360 356.5 c 128,-1,12
 321 317 321 317 309 261 c 2,13,-1
 298 203 l 1,14,-1
 234 203 l 1,15,-1
 249 275 l 2,16,17
 261 327 261 327 300 372 c 128,-1,18
 339 417 339 417 384 457.5 c 128,-1,19
 429 498 429 498 466.5 536.5 c 128,-1,20
 504 575 504 575 513 614 c 0,21,22
 520 648 520 648 513.5 671.5 c 128,-1,23
 507 695 507 695 490.5 711.5 c 128,-1,24
 474 728 474 728 451.5 735 c 128,-1,25
 429 742 429 742 404 742 c 0,26,27
 374 742 374 742 347 730.5 c 128,-1,28
 320 719 320 719 296.5 701.5 c 128,-1,29
 273 684 273 684 255 663 c 128,-1,30
 237 642 237 642 225 623 c 1,31,-1
 172 653 l 1,0,1
168 0 m 1,32,-1
 190 108 l 1,33,-1
 293 108 l 1,34,-1
 271 0 l 1,35,-1
 168 0 l 1,32,-1
EndSplineSet
EndChar
StartChar: at
Encoding: 64 64 33
Width: 852
VWidth: 1473
Flags: W
HStem: -10 45<343.064 532.231> 137 52<351.981 454.12 578.852 661.969> 532 51<492.077 607.211> 689 45<469.593 695.819>
Fore
404 189 m 0,0,1
 439 189 439 189 476 214.5 c 128,-1,2
 513 240 513 240 543 277.5 c 128,-1,3
 573 315 573 315 595 358 c 128,-1,4
 617 401 617 401 625 435 c 0,5,6
 632 471 632 471 613.5 501.5 c 128,-1,7
 595 532 595 532 566 532 c 0,8,9
 526 532 526 532 489 508.5 c 128,-1,10
 452 485 452 485 421 448.5 c 128,-1,11
 390 412 390 412 368 370.5 c 128,-1,12
 346 329 346 329 339 292 c 0,13,14
 329 246 329 246 347 217.5 c 128,-1,15
 365 189 365 189 404 189 c 0,0,1
712 564 m 1,16,-1
 766 564 l 1,17,-1
 605 268 l 2,18,19
 597 252 597 252 589.5 238 c 128,-1,20
 582 224 582 224 579 212 c 0,21,22
 575 186 575 186 601 186 c 0,23,24
 631 186 631 186 665.5 207 c 128,-1,25
 700 228 700 228 731 263 c 128,-1,26
 762 298 762 298 785.5 341.5 c 128,-1,27
 809 385 809 385 818 427 c 0,28,29
 831 488 831 488 817.5 535.5 c 128,-1,30
 804 583 804 583 772 618 c 128,-1,31
 740 653 740 653 692.5 671 c 128,-1,32
 645 689 645 689 589 689 c 0,33,34
 522 689 522 689 457.5 662.5 c 128,-1,35
 393 636 393 636 341 591.5 c 128,-1,36
 289 547 289 547 252 486.5 c 128,-1,37
 215 426 215 426 200 358 c 0,38,39
 187 292 187 292 199.5 233 c 128,-1,40
 212 174 212 174 246 130.5 c 128,-1,41
 280 87 280 87 333 61 c 128,-1,42
 386 35 386 35 452 35 c 0,43,44
 529 35 529 35 609 71.5 c 128,-1,45
 689 108 689 108 748 174 c 1,46,-1
 800 174 l 1,47,48
 768 131 768 131 726 97 c 128,-1,49
 684 63 684 63 637.5 39 c 128,-1,50
 591 15 591 15 541 2.5 c 128,-1,51
 491 -10 491 -10 442 -10 c 0,52,53
 362 -10 362 -10 301 19.5 c 128,-1,54
 240 49 240 49 201 100.5 c 128,-1,55
 162 152 162 152 148 220.5 c 128,-1,56
 134 289 134 289 150 365 c 256,57,58
 166 442 166 442 210.5 509 c 128,-1,59
 255 576 255 576 315.5 626 c 128,-1,60
 376 676 376 676 449 705 c 128,-1,61
 522 734 522 734 597 734 c 0,62,63
 667 734 667 734 724.5 711 c 128,-1,64
 782 688 782 688 819 647.5 c 128,-1,65
 856 607 856 607 870 550.5 c 128,-1,66
 884 494 884 494 869 426 c 0,67,68
 856 367 856 367 824.5 314.5 c 128,-1,69
 793 262 793 262 751.5 222.5 c 128,-1,70
 710 183 710 183 664.5 160 c 128,-1,71
 619 137 619 137 580 137 c 0,72,73
 554 137 554 137 538 155.5 c 128,-1,74
 522 174 522 174 527 208 c 1,75,-1
 526 208 l 1,76,77
 496 183 496 183 456.5 160 c 128,-1,78
 417 137 417 137 379 137 c 0,79,80
 346 137 346 137 323.5 149.5 c 128,-1,81
 301 162 301 162 287.5 182.5 c 128,-1,82
 274 203 274 203 270.5 229.5 c 128,-1,83
 267 256 267 256 273 286 c 0,84,85
 284 340 284 340 313 393 c 128,-1,86
 342 446 342 446 383 488 c 128,-1,87
 424 530 424 530 475.5 556.5 c 128,-1,88
 527 583 527 583 582 583 c 0,89,90
 616 583 616 583 639.5 564 c 128,-1,91
 663 545 663 545 670 498 c 1,92,-1
 712 564 l 1,16,-1
EndSplineSet
EndChar
StartChar: A
Encoding: 65 65 34
Width: 682
VWidth: 1473
Flags: W
HStem: 0 21G<29 120.346 569.923 653> 208 65<262 536> 695 20G<443.084 535.385>
Fore
536 273 m 1,0,-1
 480 656 l 1,1,-1
 262 273 l 1,2,-1
 536 273 l 1,0,-1
455 715 m 1,3,-1
 532 715 l 1,4,-1
 653 0 l 1,5,-1
 573 0 l 1,6,-1
 541 208 l 1,7,-1
 227 208 l 1,8,-1
 109 0 l 1,9,-1
 29 0 l 1,10,-1
 455 715 l 1,3,-1
EndSplineSet
EndChar
StartChar: B
Encoding: 66 66 35
Width: 629
VWidth: 1473
Flags: W
HStem: 0 62<174 456.433> 367 59<255 461.885> 650 66<302 568.287>
Fore
541 399 m 1,0,1
 567 393 567 393 587 375 c 128,-1,2
 607 357 607 357 619 332.5 c 128,-1,3
 631 308 631 308 634.5 279 c 128,-1,4
 638 250 638 250 631 221 c 0,5,6
 620 172 620 172 598.5 131.5 c 128,-1,7
 577 91 577 91 542.5 61.5 c 128,-1,8
 508 32 508 32 458 16 c 128,-1,9
 408 0 408 0 340 0 c 2,10,-1
 88 0 l 1,11,-1
 240 716 l 1,12,-1
 495 716 l 2,13,14
 551 716 551 716 586.5 702.5 c 128,-1,15
 622 689 622 689 641 666.5 c 128,-1,16
 660 644 660 644 663.5 613.5 c 128,-1,17
 667 583 667 583 660 550 c 0,18,19
 648 491 648 491 615.5 451.5 c 128,-1,20
 583 412 583 412 541 399 c 1,0,1
302 650 m 1,21,-1
 255 426 l 1,22,-1
 404 426 l 2,23,24
 461 426 461 426 494 436 c 128,-1,25
 527 446 527 446 546.5 463 c 128,-1,26
 566 480 566 480 573 502 c 128,-1,27
 580 524 580 524 586 550 c 0,28,29
 595 592 595 592 575 621 c 128,-1,30
 555 650 555 650 480 650 c 2,31,-1
 302 650 l 1,21,-1
337 62 m 2,32,33
 440 62 440 62 489.5 98 c 128,-1,34
 539 134 539 134 557 221 c 0,35,36
 573 293 573 293 537 330 c 128,-1,37
 501 367 501 367 387 367 c 2,38,-1
 239 367 l 1,39,-1
 174 62 l 1,40,-1
 337 62 l 2,32,33
EndSplineSet
EndChar
StartChar: C
Encoding: 67 67 36
Width: 558
VWidth: 1473
Flags: W
HStem: -10 65<237.084 409.284> 659 64<359.465 557.984>
VStem: 111.5 71<146.032 190 190 353.945>
Fore
134 357 m 256,0,1
 155 454 155 454 183 523 c 128,-1,2
 211 592 211 592 252 637 c 128,-1,3
 293 682 293 682 350 702.5 c 128,-1,4
 407 723 407 723 483 723 c 0,5,6
 532 723 532 723 583.5 707.5 c 128,-1,7
 635 692 635 692 669 661 c 1,8,-1
 611 605 l 1,9,10
 583 635 583 635 548 647 c 128,-1,11
 513 659 513 659 468 659 c 0,12,13
 407 659 407 659 364 642 c 128,-1,14
 321 625 321 625 291.5 588.5 c 128,-1,15
 262 552 262 552 242 495 c 128,-1,16
 222 438 222 438 205 357 c 256,17,18
 187 275 187 275 182.5 218.5 c 128,-1,19
 178 162 178 162 192 125 c 128,-1,20
 206 88 206 88 241.5 71.5 c 128,-1,21
 277 55 277 55 339 55 c 0,22,23
 383 55 383 55 424.5 66.5 c 128,-1,24
 466 78 466 78 505 108 c 1,25,-1
 539 52 l 1,26,27
 492 21 492 21 434 5.5 c 128,-1,28
 376 -10 376 -10 327 -10 c 0,29,30
 250 -10 250 -10 202.5 10.5 c 128,-1,31
 155 31 155 31 132.5 76 c 128,-1,32
 110 121 110 121 111.5 190 c 128,-1,33
 113 259 113 259 134 357 c 256,0,1
EndSplineSet
EndChar
StartChar: D
Encoding: 68 68 37
Width: 687
VWidth: 1473
Flags: W
HStem: 0 62<174 457.59> 654 62<301 577.322>
VStem: 646 75<438.479 487.5 487.5 545.859>
Fore
301 654 m 1,0,-1
 174 62 l 1,1,-1
 352 62 l 2,2,3
 414 62 414 62 459 79 c 128,-1,4
 504 96 504 96 535.5 130.5 c 128,-1,5
 567 165 567 165 588.5 219 c 128,-1,6
 610 273 610 273 626 348 c 0,7,8
 644 430 644 430 646 487.5 c 128,-1,9
 648 545 648 545 632 582.5 c 128,-1,10
 616 620 616 620 578.5 637 c 128,-1,11
 541 654 541 654 479 654 c 2,12,-1
 301 654 l 1,0,-1
88 0 m 1,13,-1
 240 716 l 1,14,-1
 492 716 l 2,15,16
 570 716 570 716 620 693 c 128,-1,17
 670 670 670 670 695 623.5 c 128,-1,18
 720 577 720 577 721 508 c 128,-1,19
 722 439 722 439 703 348 c 0,20,21
 666 174 666 174 582 87 c 128,-1,22
 498 0 498 0 340 0 c 2,23,-1
 88 0 l 1,13,-1
EndSplineSet
EndChar
StartChar: E
Encoding: 69 69 38
Width: 539
VWidth: 1473
Flags: W
HStem: 0 62<174 505> 351 61<249 539> 654 62<301 648>
Fore
174 62 m 1,0,-1
 517 62 l 1,1,-1
 505 0 l 1,2,-1
 88 0 l 1,3,-1
 240 716 l 1,4,-1
 661 716 l 1,5,-1
 648 654 l 1,6,-1
 301 654 l 1,7,-1
 249 412 l 1,8,-1
 552 412 l 1,9,-1
 539 351 l 1,10,-1
 236 351 l 1,11,-1
 174 62 l 1,0,-1
EndSplineSet
EndChar
StartChar: F
Encoding: 70 70 39
Width: 539
VWidth: 1473
Flags: W
HStem: 0 21G<88 166.217> 351 61<249 539> 654 62<301 648>
Fore
162 0 m 1,0,-1
 88 0 l 1,1,-1
 240 716 l 1,2,-1
 661 716 l 1,3,-1
 648 654 l 1,4,-1
 301 654 l 1,5,-1
 249 412 l 1,6,-1
 552 412 l 1,7,-1
 539 351 l 1,8,-1
 236 351 l 1,9,-1
 162 0 l 1,0,-1
EndSplineSet
EndChar
StartChar: G
Encoding: 71 71 40
Width: 640
VWidth: 1473
Flags: W
HStem: -10 65<251.955 434.513> 318 64<459.534 564> 659 64<373.942 555.708>
VStem: 126.5 71<146.032 190 190 353.945>
Fore
564 318 m 1,0,-1
 504 318 l 2,1,2
 476 318 476 318 459 315 c 128,-1,3
 442 312 442 312 433 310.5 c 128,-1,4
 424 309 424 309 421 310.5 c 128,-1,5
 418 312 418 312 415 321 c 0,6,7
 411 336 411 336 413 354.5 c 128,-1,8
 415 373 415 373 423 382 c 1,9,-1
 648 382 l 1,10,-1
 583 80 l 1,11,12
 547 49 547 49 485.5 19.5 c 128,-1,13
 424 -10 424 -10 342 -10 c 0,14,15
 265 -10 265 -10 217 10.5 c 128,-1,16
 169 31 169 31 147 76 c 128,-1,17
 125 121 125 121 126.5 190 c 128,-1,18
 128 259 128 259 149 357 c 256,19,20
 169 454 169 454 197 523 c 128,-1,21
 225 592 225 592 266.5 637 c 128,-1,22
 308 682 308 682 364.5 702.5 c 128,-1,23
 421 723 421 723 498 723 c 0,24,25
 547 723 547 723 598.5 707.5 c 128,-1,26
 650 692 650 692 684 661 c 1,27,-1
 626 605 l 1,28,29
 598 635 598 635 562.5 647 c 128,-1,30
 527 659 527 659 483 659 c 0,31,32
 421 659 421 659 378.5 642 c 128,-1,33
 336 625 336 625 306.5 588.5 c 128,-1,34
 277 552 277 552 257 495 c 128,-1,35
 237 438 237 438 220 357 c 256,36,37
 202 275 202 275 197.5 218.5 c 128,-1,38
 193 162 193 162 207 125 c 128,-1,39
 221 88 221 88 256.5 71.5 c 128,-1,40
 292 55 292 55 354 55 c 0,41,42
 398 55 398 55 439 66.5 c 128,-1,43
 480 78 480 78 520 108 c 1,44,-1
 564 318 l 1,0,-1
EndSplineSet
EndChar
StartChar: H
Encoding: 72 72 41
Width: 671
VWidth: 1473
Flags: W
HStem: 0 21G<88 166.217 510 587.246> 351 61<249 583> 696 20G<235.754 314 656.789 735>
Fore
597 412 m 1,0,-1
 661 716 l 1,1,-1
 735 716 l 1,2,-1
 583 0 l 1,3,-1
 510 0 l 1,4,-1
 583 351 l 1,5,-1
 236 351 l 1,6,-1
 162 0 l 1,7,-1
 88 0 l 1,8,-1
 240 716 l 1,9,-1
 314 716 l 1,10,-1
 249 412 l 1,11,-1
 597 412 l 1,0,-1
EndSplineSet
EndChar
StartChar: I
Encoding: 73 73 42
Width: 406
VWidth: 1473
Flags: W
HStem: 0 62<41 177 249 373> 654 62<186 303 376 516>
Fore
249 62 m 1,0,-1
 385 62 l 1,1,-1
 373 0 l 1,2,-1
 29 0 l 1,3,-1
 41 62 l 1,4,-1
 177 62 l 1,5,-1
 303 654 l 1,6,-1
 172 654 l 1,7,-1
 186 716 l 1,8,-1
 529 716 l 1,9,-1
 516 654 l 1,10,-1
 376 654 l 1,11,-1
 249 62 l 1,0,-1
EndSplineSet
EndChar
StartChar: J
Encoding: 74 74 43
Width: 487
VWidth: 1473
Flags: W
HStem: -10 65<128.334 288.825> 696 20G<472.714 551>
Fore
473 352 m 2,0,1
 452 255 452 255 431.5 186.5 c 128,-1,2
 411 118 411 118 381 73.5 c 128,-1,3
 351 29 351 29 306.5 9.5 c 128,-1,4
 262 -10 262 -10 196 -10 c 0,5,6
 147 -10 147 -10 103 5.5 c 128,-1,7
 59 21 59 21 25 52 c 1,8,-1
 82 108 l 1,9,10
 109 78 109 78 137.5 66.5 c 128,-1,11
 166 55 166 55 211 55 c 128,-1,12
 256 55 256 55 285 71 c 128,-1,13
 314 87 314 87 334 122.5 c 128,-1,14
 354 158 354 158 368 214.5 c 128,-1,15
 382 271 382 271 399 352 c 2,16,-1
 477 716 l 1,17,-1
 551 716 l 1,18,-1
 473 352 l 2,0,1
EndSplineSet
EndChar
StartChar: K
Encoding: 75 75 44
Width: 643
VWidth: 1473
Flags: W
HStem: 0 21G<88 166.203 494.116 585> 696 20G<235.754 314 622.736 734>
Fore
88 0 m 1,0,-1
 240 716 l 1,1,-1
 314 716 l 1,2,-1
 243 383 l 1,3,-1
 647 716 l 1,4,-1
 734 716 l 1,5,-1
 364 410 l 1,6,-1
 585 0 l 1,7,-1
 505 0 l 1,8,-1
 308 362 l 1,9,-1
 224 295 l 1,10,-1
 162 0 l 1,11,-1
 88 0 l 1,0,-1
EndSplineSet
EndChar
StartChar: L
Encoding: 76 76 45
Width: 524
VWidth: 1473
Flags: W
HStem: 0 62<174 510 88 522 174 174> 696 20G<235.754 314>
Fore
174 62 m 1,0,-1
 522 62 l 1,1,-1
 510 0 l 1,2,-1
 88 0 l 1,3,-1
 240 716 l 1,4,-1
 314 716 l 1,5,-1
 174 62 l 1,0,-1
EndSplineSet
EndChar
StartChar: M
Encoding: 77 77 46
Width: 827
VWidth: 1473
Flags: W
HStem: 0 21G<88 166.251 374.676 461.795 666 744.218> 696 20G<235.754 364.087 758.408 891>
Fore
769 716 m 1,0,-1
 891 716 l 1,1,-1
 740 0 l 1,2,-1
 666 0 l 1,3,-1
 804 654 l 1,4,-1
 451 0 l 1,5,-1
 377 0 l 1,6,-1
 301 654 l 1,7,-1
 162 0 l 1,8,-1
 88 0 l 1,9,-1
 240 716 l 1,10,-1
 362 716 l 1,11,-1
 429 74 l 1,12,-1
 769 716 l 1,0,-1
EndSplineSet
EndChar
StartChar: N
Encoding: 78 78 47
Width: 701
VWidth: 1473
Flags: W
HStem: 0 21G<88 166.251 531.722 617.246> 696 20G<235.754 369.033 686.746 765>
Fore
88 0 m 1,0,-1
 240 716 l 1,1,-1
 362 716 l 1,2,-1
 567 133 l 1,3,-1
 691 716 l 1,4,-1
 765 716 l 1,5,-1
 613 0 l 1,6,-1
 539 0 l 1,7,-1
 301 654 l 1,8,-1
 162 0 l 1,9,-1
 88 0 l 1,0,-1
EndSplineSet
EndChar
StartChar: O
Encoding: 79 79 48
Width: 695
VWidth: 1473
Flags: W
HStem: -9 69<255.426 470.533> 654 66<373.709 589.707>
VStem: 653.5 75<351.839 548.966>
Fore
359 60 m 0,0,1
 421 60 421 60 466 77 c 128,-1,2
 511 94 511 94 543 129.5 c 128,-1,3
 575 165 575 165 596 219.5 c 128,-1,4
 617 274 617 274 633 349 c 0,5,6
 651 432 651 432 653.5 489.5 c 128,-1,7
 656 547 656 547 639.5 583.5 c 128,-1,8
 623 620 623 620 585.5 637 c 128,-1,9
 548 654 548 654 486 654 c 0,10,11
 423 654 423 654 378.5 637 c 128,-1,12
 334 620 334 620 302 583.5 c 128,-1,13
 270 547 270 547 248.5 489.5 c 128,-1,14
 227 432 227 432 209 349 c 0,15,16
 193 274 193 274 191 219.5 c 128,-1,17
 189 165 189 165 205.5 129.5 c 128,-1,18
 222 94 222 94 259 77 c 128,-1,19
 296 60 296 60 359 60 c 0,0,1
345 -9 m 0,20,21
 189 -9 189 -9 142.5 84 c 128,-1,22
 96 177 96 177 133 349 c 0,23,24
 171 533 171 533 256.5 626.5 c 128,-1,25
 342 720 342 720 499 720 c 0,26,27
 577 720 577 720 627.5 696.5 c 128,-1,28
 678 673 678 673 703 626.5 c 128,-1,29
 728 580 728 580 728.5 510 c 128,-1,30
 729 440 729 440 710 349 c 0,31,32
 673 177 673 177 587.5 84 c 128,-1,33
 502 -9 502 -9 345 -9 c 0,20,21
EndSplineSet
EndChar
StartChar: P
Encoding: 80 80 49
Width: 629
VWidth: 1473
Flags: W
HStem: 0 21G<88 166.226> 265 62<231 513.731> 654 62<301 583.878>
Fore
301 654 m 1,0,-1
 231 327 l 1,1,-1
 380 327 l 2,2,3
 494 327 494 327 545.5 366 c 128,-1,4
 597 405 597 405 614 488 c 0,5,6
 635 585 635 585 601 619.5 c 128,-1,7
 567 654 567 654 464 654 c 2,8,-1
 301 654 l 1,0,-1
218 265 m 1,9,-1
 162 0 l 1,10,-1
 88 0 l 1,11,-1
 240 716 l 1,12,-1
 477 716 l 2,13,14
 551 716 551 716 597.5 702 c 128,-1,15
 644 688 644 688 668 660 c 128,-1,16
 692 632 692 632 696 589.5 c 128,-1,17
 700 547 700 547 688 488 c 0,18,19
 664 382 664 382 587 323.5 c 128,-1,20
 510 265 510 265 352 265 c 2,21,-1
 218 265 l 1,9,-1
EndSplineSet
EndChar
StartChar: Q
Encoding: 81 81 50
Width: 754
VWidth: 1473
Flags: W
HStem: -9 69<284.926 502.321> 654 66<403.093 619.326>
VStem: 683 75<439.761 547.543>
Fore
389 60 m 0,0,1
 451 60 451 60 496 77 c 128,-1,2
 541 94 541 94 572.5 129.5 c 128,-1,3
 604 165 604 165 625.5 219.5 c 128,-1,4
 647 274 647 274 663 349 c 0,5,6
 681 432 681 432 683 489.5 c 128,-1,7
 685 547 685 547 669 583.5 c 128,-1,8
 653 620 653 620 615 637 c 128,-1,9
 577 654 577 654 516 654 c 0,10,11
 452 654 452 654 408 637 c 128,-1,12
 364 620 364 620 331.5 583.5 c 128,-1,13
 299 547 299 547 277.5 489.5 c 128,-1,14
 256 432 256 432 239 349 c 0,15,16
 222 274 222 274 220 219.5 c 128,-1,17
 218 165 218 165 235 129.5 c 128,-1,18
 252 94 252 94 289 77 c 128,-1,19
 326 60 326 60 389 60 c 0,0,1
374 -9 m 0,20,21
 218 -9 218 -9 171.5 84 c 128,-1,22
 125 177 125 177 162 349 c 0,23,24
 200 533 200 533 285.5 626.5 c 128,-1,25
 371 720 371 720 529 720 c 0,26,27
 607 720 607 720 657 696.5 c 128,-1,28
 707 673 707 673 732 626.5 c 128,-1,29
 757 580 757 580 758 510 c 128,-1,30
 759 440 759 440 740 349 c 0,31,32
 703 177 703 177 617.5 84 c 128,-1,33
 532 -9 532 -9 374 -9 c 0,20,21
491 215 m 1,34,-1
 654 -53 l 1,35,-1
 575 -77 l 1,36,-1
 423 193 l 1,37,-1
 491 215 l 1,34,-1
EndSplineSet
EndChar
StartChar: R
Encoding: 82 82 51
Width: 643
VWidth: 1473
Flags: W
HStem: 0 21G<88 166.198 493.617 582> 324 62<243 427> 654 62<301 515.784>
Fore
477 716 m 2,0,1
 551 716 551 716 597.5 702.5 c 128,-1,2
 644 689 644 689 668 662.5 c 128,-1,3
 692 636 692 636 697.5 598 c 128,-1,4
 703 560 703 560 692 510 c 0,5,6
 684 470 684 470 665.5 439 c 128,-1,7
 647 408 647 408 620.5 384.5 c 128,-1,8
 594 361 594 361 562 347 c 128,-1,9
 530 333 530 333 496 329 c 1,10,-1
 582 0 l 1,11,-1
 498 0 l 1,12,-1
 427 324 l 1,13,-1
 230 324 l 1,14,-1
 162 0 l 1,15,-1
 88 0 l 1,16,-1
 240 716 l 1,17,-1
 477 716 l 2,0,1
243 386 m 1,18,-1
 421 386 l 2,19,20
 451 386 451 386 482 392 c 128,-1,21
 513 398 513 398 540 412 c 128,-1,22
 567 426 567 426 587.5 450 c 128,-1,23
 608 474 608 474 616 510 c 0,24,25
 625 552 625 552 616.5 580 c 128,-1,26
 608 608 608 608 587.5 624.5 c 128,-1,27
 567 641 567 641 534.5 647.5 c 128,-1,28
 502 654 502 654 464 654 c 2,29,-1
 301 654 l 1,30,-1
 243 386 l 1,18,-1
EndSplineSet
EndChar
StartChar: S
Encoding: 83 83 52
Width: 657
VWidth: 1473
Flags: W
HStem: -9 62<258.483 478.111> 659 60<342.08 548.284>
VStem: 103 74<134.469 212> 620 69<517.204 595.938>
Fore
177 233 m 1,0,1
 180 138 180 138 227 95.5 c 128,-1,2
 274 53 274 53 371 53 c 0,3,4
 448 53 448 53 498 85.5 c 128,-1,5
 548 118 548 118 564 192 c 0,6,7
 575 240 575 240 547.5 267.5 c 128,-1,8
 520 295 520 295 475 312.5 c 128,-1,9
 430 330 430 330 375.5 344.5 c 128,-1,10
 321 359 321 359 276 382 c 128,-1,11
 231 405 231 405 207 442.5 c 128,-1,12
 183 480 183 480 196 545 c 0,13,14
 214 629 214 629 284 674 c 128,-1,15
 354 719 354 719 468 719 c 0,16,17
 566 719 566 719 623.5 669 c 128,-1,18
 681 619 681 619 689 523 c 1,19,-1
 620 504 l 1,20,21
 613 573 613 573 574.5 616 c 128,-1,22
 536 659 536 659 457 659 c 0,23,24
 295 659 295 659 270 545 c 0,25,26
 259 496 259 496 286.5 469 c 128,-1,27
 314 442 314 442 359 423.5 c 128,-1,28
 404 405 404 405 458.5 391 c 128,-1,29
 513 377 513 377 558 355 c 128,-1,30
 603 333 603 333 628.5 297.5 c 128,-1,31
 654 262 654 262 641 202 c 0,32,33
 617 96 617 96 544 43.5 c 128,-1,34
 471 -9 471 -9 357 -9 c 0,35,36
 231 -9 231 -9 172 44 c 128,-1,37
 113 97 113 97 103 212 c 1,38,-1
 177 233 l 1,0,1
EndSplineSet
EndChar
StartChar: T
Encoding: 84 84 53
Width: 545
VWidth: 1473
Flags: W
HStem: 0 21G<236 313.251> 654 62<166 374 448 669>
Fore
309 0 m 1,0,-1
 236 0 l 1,1,-1
 374 654 l 1,2,-1
 153 654 l 1,3,-1
 166 716 l 1,4,-1
 682 716 l 1,5,-1
 669 654 l 1,6,-1
 448 654 l 1,7,-1
 309 0 l 1,0,-1
EndSplineSet
EndChar
StartChar: U
Encoding: 85 85 54
Width: 724
VWidth: 1473
Flags: W
HStem: -9 62<307.902 419.744> 696 20G<235.741 314 710.659 788>
VStem: 122.5 71<102.503 129.5 129.5 180.506>
Fore
240 716 m 1,0,-1
 314 716 l 1,1,-1
 236 352 l 2,2,3
 227 308 227 308 218 272 c 128,-1,4
 209 236 209 236 202 206 c 0,5,6
 194 172 194 172 193.5 145 c 128,-1,7
 193 118 193 118 205 102 c 0,8,9
 222 77 222 77 268 65 c 128,-1,10
 314 53 314 53 370 53 c 0,11,12
 424 53 424 53 478.5 65 c 128,-1,13
 533 77 533 77 561 102 c 0,14,15
 580 118 580 118 590.5 145 c 128,-1,16
 601 172 601 172 608 206 c 0,17,18
 616 236 616 236 622 272 c 128,-1,19
 628 308 628 308 636 352 c 2,20,-1
 715 716 l 1,21,-1
 788 716 l 1,22,-1
 687 237 l 2,23,24
 672 168 672 168 656.5 130.5 c 128,-1,25
 641 93 641 93 611 63 c 0,26,27
 585 40 585 40 551 26 c 128,-1,28
 517 12 517 12 481.5 4 c 128,-1,29
 446 -4 446 -4 413 -6.5 c 128,-1,30
 380 -9 380 -9 357 -9 c 256,31,32
 333 -9 333 -9 301.5 -6.5 c 128,-1,33
 270 -4 270 -4 239.5 3 c 128,-1,34
 209 10 209 10 182.5 25 c 128,-1,35
 156 40 156 40 140 63 c 0,36,37
 121 91 121 91 122.5 129.5 c 128,-1,38
 124 168 124 168 138 237 c 2,39,-1
 240 716 l 1,0,-1
EndSplineSet
EndChar
StartChar: V
Encoding: 86 86 55
Width: 652
VWidth: 1473
Flags: W
HStem: 0 21G<285.983 376.453> 696 20G<181 263.378 684.146 775>
Fore
695 716 m 1,0,-1
 775 716 l 1,1,-1
 365 0 l 1,2,-1
 289 0 l 1,3,-1
 181 716 l 1,4,-1
 261 716 l 1,5,-1
 339 60 l 1,6,-1
 695 716 l 1,0,-1
EndSplineSet
EndChar
StartChar: W
Encoding: 87 87 56
Width: 833
VWidth: 1473
Flags: W
HStem: 0 21G<178 271.034 571.377 664.38> 696 20G<180.916 261 523.827 604.655 869.137 956>
VStem: 178 61<75 176.977> 181 80<614.023 716> 552 52<609.167 642> 572 53<75 112.35>
Fore
604 716 m 1,0,-1
 625 75 l 1,1,-1
 877 716 l 1,2,-1
 956 716 l 1,3,-1
 656 0 l 1,4,-1
 572 0 l 1,5,-1
 552 642 l 1,6,-1
 262 0 l 1,7,-1
 178 0 l 1,8,-1
 181 716 l 1,9,-1
 261 716 l 1,10,-1
 239 75 l 1,11,-1
 533 716 l 1,12,-1
 604 716 l 1,0,-1
EndSplineSet
EndChar
StartChar: X
Encoding: 88 88 57
Width: 602
VWidth: 1473
Flags: W
HStem: 0 21G<15 118.993 489.111 588> 696 20G<181 277 612.625 716>
Fore
181 716 m 1,0,-1
 270 716 l 1,1,-1
 382 396 l 1,2,-1
 628 716 l 1,3,-1
 716 716 l 1,4,-1
 418 355 l 1,5,-1
 588 0 l 1,6,-1
 498 0 l 1,7,-1
 362 306 l 1,8,-1
 102 0 l 1,9,-1
 15 0 l 1,10,-1
 329 355 l 1,11,-1
 181 716 l 1,0,-1
EndSplineSet
EndChar
StartChar: Y
Encoding: 89 89 58
Width: 623
VWidth: 1473
Flags: W
HStem: 0 21G<274 352.214> 696 20G<181 267.596 651.053 745>
Fore
348 0 m 1,0,-1
 274 0 l 1,1,-1
 333 280 l 1,2,-1
 181 716 l 1,3,-1
 261 716 l 1,4,-1
 385 340 l 1,5,-1
 666 716 l 1,6,-1
 745 716 l 1,7,-1
 407 280 l 1,8,-1
 348 0 l 1,0,-1
EndSplineSet
EndChar
StartChar: Z
Encoding: 90 90 59
Width: 583
VWidth: 1473
Flags: W
HStem: 0 62<159 524> 653 63<211 575>
Fore
575 653 m 1,0,-1
 197 653 l 1,1,-1
 211 716 l 1,2,-1
 669 716 l 1,3,-1
 654 648 l 1,4,-1
 159 62 l 1,5,-1
 536 62 l 1,6,-1
 524 0 l 1,7,-1
 62 0 l 1,8,-1
 74 62 l 1,9,-1
 575 653 l 1,0,-1
EndSplineSet
EndChar
StartChar: bracketleft
Encoding: 91 91 60
Width: 397
VWidth: 1473
Flags: W
HStem: -87 44<166 308> 818 44<349 499>
VStem: 85 425<-87 862 -87 -87>
Fore
510 862 m 1,0,-1
 499 818 l 1,1,-1
 349 818 l 1,2,-1
 166 -43 l 1,3,-1
 317 -43 l 1,4,-1
 308 -87 l 1,5,-1
 85 -87 l 1,6,-1
 287 862 l 1,7,-1
 510 862 l 1,0,-1
EndSplineSet
EndChar
StartChar: backslash
Encoding: 92 92 61
Width: 331
VWidth: 1473
Flags: W
HStem: -12 21G<270.698 343>
VStem: 171 172<-12 874 420.297 866.452>
Fore
171 874 m 1,0,-1
 237 874 l 1,1,-1
 343 -12 l 1,2,-1
 273 -12 l 1,3,-1
 171 874 l 1,0,-1
EndSplineSet
EndChar
StartChar: bracketright
Encoding: 93 93 62
Width: 397
VWidth: 1473
Flags: W
HStem: -87 44<60 211> 818 44<253 393>
VStem: 52 424<-87 862 -87 -87>
Fore
52 -87 m 1,0,-1
 60 -43 l 1,1,-1
 211 -43 l 1,2,-1
 393 818 l 1,3,-1
 243 818 l 1,4,-1
 253 862 l 1,5,-1
 476 862 l 1,6,-1
 274 -87 l 1,7,-1
 52 -87 l 1,0,-1
EndSplineSet
EndChar
StartChar: asciicircum
Encoding: 94 94 63
Width: 671
VWidth: 1473
Flags: W
HStem: 331 478<536 678 536 536>
Fore
536 809 m 1,0,-1
 678 331 l 1,1,-1
 604 331 l 1,2,-1
 488 728 l 1,3,-1
 206 331 l 1,4,-1
 133 331 l 1,5,-1
 476 809 l 1,6,-1
 536 809 l 1,0,-1
EndSplineSet
EndChar
StartChar: underscore
Encoding: 95 95 64
Width: 699
VWidth: 1473
Flags: W
HStem: -175 70<-22 661>
Fore
-37 -175 m 1,0,-1
 -22 -105 l 1,1,-1
 676 -105 l 1,2,-1
 661 -175 l 1,3,-1
 -37 -175 l 1,0,-1
EndSplineSet
EndChar
StartChar: grave
Encoding: 96 96 65
Width: 248
VWidth: 1473
Flags: W
HStem: 647 154<240 331 240 240>
Fore
240 801 m 1,0,-1
 331 647 l 1,1,-1
 274 647 l 1,2,-1
 155 801 l 1,3,-1
 240 801 l 1,0,-1
EndSplineSet
EndChar
StartChar: a
Encoding: 97 97 66
Width: 559
VWidth: 1473
Flags: W
HStem: -12 55<149.515 304.613> 299 55<315.739 463> 541 53<271.771 463.263>
VStem: 62 490<156 411 445.289 585.123>
Fore
417 71 m 1,0,1
 357 29 357 29 305 8.5 c 128,-1,2
 253 -12 253 -12 186 -12 c 256,3,4
 118 -12 118 -12 82 35 c 128,-1,5
 46 82 46 82 62 156 c 0,6,7
 75 215 75 215 106.5 252 c 128,-1,8
 138 289 138 289 190 310 c 128,-1,9
 242 331 242 331 313.5 340 c 128,-1,10
 385 349 385 349 477 354 c 1,11,-1
 492 423 l 2,12,13
 517 541 517 541 368 541 c 0,14,15
 305 541 305 541 261 513 c 128,-1,16
 217 485 217 485 178 435 c 1,17,-1
 130 463 l 1,18,19
 183 533 183 533 247 563.5 c 128,-1,20
 311 594 311 594 382 594 c 0,21,22
 482 594 482 594 527.5 551 c 128,-1,23
 573 508 573 508 552 411 c 2,24,-1
 488 106 l 2,25,26
 480 72 480 72 479.5 48 c 128,-1,27
 479 24 479 24 482 12 c 1,28,29
 454 0 454 0 432 0 c 0,30,31
 426 0 426 0 420.5 2 c 128,-1,32
 415 4 415 4 412 12 c 0,33,34
 410 24 410 24 412 46 c 0,35,36
 414 57 414 57 417 71 c 1,0,1
463 299 m 1,37,38
 364 298 364 298 301.5 285.5 c 128,-1,39
 239 273 239 273 201.5 253.5 c 128,-1,40
 164 234 164 234 147 209 c 128,-1,41
 130 184 130 184 124 158 c 0,42,43
 113 109 113 109 138.5 76 c 128,-1,44
 164 43 164 43 209 43 c 0,45,46
 256 43 256 43 315 68.5 c 128,-1,47
 374 94 374 94 427 138 c 1,48,-1
 463 299 l 1,37,38
EndSplineSet
Substitution2: "Single Substitution lookup 27 subtable" uni0E38
Substitution2: "Single Substitution lookup 27 subtable" uni0E38
EndChar
StartChar: b
Encoding: 98 98 67
Width: 611
VWidth: 1473
Flags: W
HStem: -12 55<273.939 450.563> 541 53<411.584 541.186> 789 20G<269.756 337>
Fore
337 809 m 1,0,-1
 277 522 l 1,1,2
 336 552 336 552 386 573 c 128,-1,3
 436 594 436 594 495 594 c 0,4,5
 598 594 598 594 629.5 514.5 c 128,-1,6
 661 435 661 435 632 295 c 0,7,8
 598 134 598 134 528 61 c 128,-1,9
 458 -12 458 -12 357 -12 c 0,10,11
 295 -12 295 -12 255 8.5 c 128,-1,12
 215 29 215 29 180 75 c 1,13,14
 171 49 l 0,15,16
 168 37 168 37 163.5 27.5 c 128,-1,17
 159 18 159 18 155 12 c 0,18,19
 149 4 149 4 143.5 2 c 128,-1,20
 138 0 138 0 133 0 c 0,21,22
 109 0 109 0 85 12 c 1,23,24
 93 28 93 28 106 53 c 128,-1,25
 119 78 119 78 128 121 c 2,26,-1
 274 809 l 1,27,-1
 337 809 l 1,0,-1
197 149 m 1,28,29
 220 103 220 103 261 73 c 128,-1,30
 302 43 302 43 364 43 c 0,31,32
 452 43 452 43 495.5 107 c 128,-1,33
 539 171 539 171 563 283 c 0,34,35
 576 345 576 345 579.5 393.5 c 128,-1,36
 583 442 583 442 573.5 474.5 c 128,-1,37
 564 507 564 507 538.5 524 c 128,-1,38
 513 541 513 541 467 541 c 0,39,40
 442 541 442 541 414.5 532 c 128,-1,41
 387 523 387 523 360 509.5 c 128,-1,42
 333 496 333 496 307 480 c 128,-1,43
 281 464 281 464 261 449 c 1,44,-1
 197 149 l 1,28,29
EndSplineSet
Substitution2: "Single Substitution lookup 27 subtable" uni0E39
Substitution2: "Single Substitution lookup 27 subtable" uni0E39
EndChar
StartChar: c
Encoding: 99 99 68
Width: 559
VWidth: 1473
Flags: W
HStem: -12 55<203.313 352.691> 541 53<303.256 478.08>
VStem: 86.5 68.5<129.448 169 169 289.909>
Fore
524 448 m 1,0,1
 510 488 510 488 483.5 514.5 c 128,-1,2
 457 541 457 541 399 541 c 0,3,4
 348 541 348 541 311 527.5 c 128,-1,5
 274 514 274 514 247.5 484 c 128,-1,6
 221 454 221 454 202.5 406.5 c 128,-1,7
 184 359 184 359 169 292 c 0,8,9
 158 236 158 236 155 190 c 128,-1,10
 152 144 152 144 163.5 111 c 128,-1,11
 175 78 175 78 206 60.5 c 128,-1,12
 237 43 237 43 292 43 c 0,13,14
 354 43 354 43 396.5 74 c 128,-1,15
 439 105 439 105 464 138 c 1,16,-1
 510 109 l 1,17,18
 492 85 492 85 469 64 c 128,-1,19
 446 43 446 43 418 26 c 128,-1,20
 390 9 390 9 355.5 -1.5 c 128,-1,21
 321 -12 321 -12 280 -12 c 0,22,23
 208 -12 208 -12 165 11 c 128,-1,24
 122 34 122 34 103.5 73.5 c 128,-1,25
 85 113 85 113 86.5 169 c 128,-1,26
 88 225 88 225 103 292 c 0,27,28
 134 440 134 440 204.5 517 c 128,-1,29
 275 594 275 594 410 594 c 0,30,31
 485 594 485 594 524.5 562 c 128,-1,32
 564 530 564 530 586 468 c 1,33,-1
 524 448 l 1,0,1
EndSplineSet
Substitution2: "Single Substitution lookup 27 subtable" uni0E3A
Substitution2: "Single Substitution lookup 27 subtable" uni0E3A
EndChar
StartChar: d
Encoding: 100 100 69
Width: 611
VWidth: 1473
Flags: W
HStem: -12 55<194.094 359.748> 541 53<309.429 484.596> 789 20G<611.751 679>
VStem: 457 67<12 30.3 30.3 34.5424 34.5424 72.5625>
Fore
542 464 m 1,0,1
 529 489 529 489 491.5 515 c 128,-1,2
 454 541 454 541 404 541 c 0,3,4
 311 541 311 541 252 474.5 c 128,-1,5
 193 408 193 408 166 283 c 0,6,7
 155 227 155 227 152.5 182.5 c 128,-1,8
 150 138 150 138 160.5 107.5 c 128,-1,9
 171 77 171 77 196 60 c 128,-1,10
 221 43 221 43 265 43 c 0,11,12
 327 43 327 43 380 73 c 128,-1,13
 433 103 433 103 476 149 c 1,14,-1
 542 464 l 1,0,1
533 121 m 2,15,16
 526 87 526 87 524.5 57.5 c 128,-1,17
 523 28 523 28 524 12 c 1,18,19
 496 0 496 0 476 0 c 0,20,21
 470 0 470 0 465 2 c 128,-1,22
 460 4 460 4 457 12 c 0,23,24
 454 24 454 24 457 49 c 0,25,26
 458 62 458 62 461 75 c 1,27,28
 408 29 408 29 359.5 8.5 c 128,-1,29
 311 -12 311 -12 249 -12 c 0,30,31
 147 -12 147 -12 108 61 c 128,-1,32
 69 134 69 134 103 295 c 0,33,34
 118 364 118 364 146.5 420 c 128,-1,35
 175 476 175 476 213.5 514 c 128,-1,36
 252 552 252 552 298.5 573 c 128,-1,37
 345 594 345 594 396 594 c 0,38,39
 455 594 455 594 493.5 574 c 128,-1,40
 532 554 532 554 558 536 c 1,41,-1
 616 809 l 1,42,-1
 679 809 l 1,43,-1
 533 121 l 2,15,16
EndSplineSet
EndChar
StartChar: e
Encoding: 101 101 70
Width: 559
VWidth: 1473
Flags: W
HStem: -12 55<222.205 340.267> 289 54<180 517> 541 53<317.571 479.178>
VStem: 103 483.5<292 343 343 412.5 292 412.5 292 292>
Fore
168 289 m 1,0,1
 158 239 158 239 159.5 194.5 c 128,-1,2
 161 150 161 150 176.5 116 c 128,-1,3
 192 82 192 82 222.5 62.5 c 128,-1,4
 253 43 253 43 303 43 c 0,5,6
 331 43 331 43 354 49 c 128,-1,7
 377 55 377 55 399 68 c 128,-1,8
 421 81 421 81 444.5 103 c 128,-1,9
 468 125 468 125 496 159 c 1,10,-1
 545 131 l 1,11,12
 514 93 514 93 485.5 65.5 c 128,-1,13
 457 38 457 38 426.5 21 c 128,-1,14
 396 4 396 4 362.5 -4 c 128,-1,15
 329 -12 329 -12 286 -12 c 0,16,17
 172 -12 172 -12 121.5 63 c 128,-1,18
 71 138 71 138 103 292 c 0,19,20
 121 376 121 376 152.5 433.5 c 128,-1,21
 184 491 184 491 225.5 527 c 128,-1,22
 267 563 267 563 314.5 578.5 c 128,-1,23
 362 594 362 594 412 594 c 0,24,25
 471 594 471 594 509.5 572 c 128,-1,26
 548 550 548 550 566.5 509 c 128,-1,27
 585 468 585 468 586.5 412.5 c 128,-1,28
 588 357 588 357 573 289 c 1,29,-1
 168 289 l 1,0,1
517 343 m 1,30,31
 533 439 533 439 504.5 490 c 128,-1,32
 476 541 476 541 399 541 c 0,33,34
 355 541 355 541 318 524.5 c 128,-1,35
 281 508 281 508 254 481.5 c 128,-1,36
 227 455 227 455 208 419 c 128,-1,37
 189 383 189 383 180 343 c 1,38,-1
 517 343 l 1,30,31
EndSplineSet
EndChar
StartChar: f
Encoding: 102 102 71
Width: 312
VWidth: 1473
Flags: W
HStem: 0 21G<108 178.234> 529 53<134 220 296 405> 762 59<348.89 445.912>
VStem: 108 384<0 812 66 175>
Fore
286 529 m 1,0,-1
 174 0 l 1,1,-1
 108 0 l 1,2,-1
 220 529 l 1,3,-1
 124 529 l 1,4,-1
 134 582 l 1,5,-1
 230 582 l 1,6,-1
 247 664 l 2,7,8
 264 741 264 741 304.5 781 c 128,-1,9
 345 821 345 821 420 821 c 0,10,11
 438 821 438 821 457 819.5 c 128,-1,12
 476 818 476 818 492 812 c 1,13,14
 498 791 498 791 489 767.5 c 128,-1,15
 480 744 480 744 473 744 c 1,16,17
 460 751 460 751 446 756.5 c 128,-1,18
 432 762 432 762 414 762 c 0,19,20
 374 762 374 762 350.5 743.5 c 128,-1,21
 327 725 327 725 317 673 c 2,22,-1
 296 582 l 1,23,-1
 415 582 l 1,24,-1
 405 529 l 1,25,-1
 286 529 l 1,0,-1
EndSplineSet
EndChar
StartChar: g
Encoding: 103 103 72
Width: 559
VWidth: 1473
Flags: W
HStem: -206 53<155.236 321.871> 39 67<212.266 294.874 294.874 298.55 298.55 433.37> 192.5 58<220.017 249 257 275.454 275.454 293.609 284.531 371.486> 541 53<277.189 445.051> 545 71<611.841 654>
VStem: 510.5 67<415.458 466.5 466.5 511.466>
Fore
561 523 m 1,0,1
 575 498 575 498 577.5 468 c 128,-1,2
 580 438 580 438 570 395 c 0,3,4
 557 333 557 333 533.5 293 c 128,-1,5
 510 253 510 253 475 229.5 c 128,-1,6
 440 206 440 206 397 197.5 c 128,-1,7
 354 189 354 189 302 189 c 0,8,9
 274 189 274 189 249 192.5 c 128,-1,10
 224 196 224 196 203 203 c 1,11,12
 174 192 174 192 160 179 c 128,-1,13
 146 166 146 166 143 150 c 0,14,15
 140 137 140 137 144.5 128 c 128,-1,16
 149 119 149 119 167.5 114 c 128,-1,17
 186 109 186 109 221 106 c 128,-1,18
 256 103 256 103 315 103 c 0,19,20
 446 103 446 103 493.5 69 c 128,-1,21
 541 35 541 35 524 -47 c 0,22,23
 516 -90 516 -90 496.5 -120 c 128,-1,24
 477 -150 477 -150 444 -169.5 c 128,-1,25
 411 -189 411 -189 359.5 -197.5 c 128,-1,26
 308 -206 308 -206 233 -206 c 256,27,28
 158 -206 158 -206 111.5 -196.5 c 128,-1,29
 65 -187 65 -187 41.5 -168.5 c 128,-1,30
 18 -150 18 -150 12.5 -125 c 128,-1,31
 7 -100 7 -100 13 -69 c 0,32,33
 21 -31 21 -31 45 0.5 c 128,-1,34
 69 32 69 32 136 55 c 1,35,-1
 137 57 l 1,36,37
 96 65 96 65 85 87.5 c 128,-1,38
 74 110 74 110 81 141 c 0,39,40
 88 180 88 180 112 201 c 128,-1,41
 136 222 136 222 169 230 c 1,42,43
 136 255 136 255 128.5 296 c 128,-1,44
 121 337 121 337 131 383 c 0,45,46
 153 486 153 486 215.5 540 c 128,-1,47
 278 594 278 594 407 594 c 0,48,49
 452 594 452 594 483 583 c 128,-1,50
 514 572 514 572 530 560 c 1,51,52
 561 585 561 585 593 600.5 c 128,-1,53
 625 616 625 616 660 616 c 0,54,55
 667 616 667 616 669.5 608.5 c 128,-1,56
 672 601 672 601 671 590 c 128,-1,57
 670 579 670 579 665.5 567 c 128,-1,58
 661 555 661 555 654 545 c 1,59,60
 631 545 631 545 606.5 542 c 128,-1,61
 582 539 582 539 561 523 c 1,0,1
271 43 m 0,62,63
 221 43 221 43 187 35 c 128,-1,64
 153 27 153 27 131 13 c 128,-1,65
 109 -1 109 -1 98 -19 c 128,-1,66
 87 -37 87 -37 82 -56 c 0,67,68
 77 -88 77 -88 82 -107.5 c 128,-1,69
 87 -127 87 -127 105.5 -137 c 128,-1,70
 124 -147 124 -147 155.5 -150 c 128,-1,71
 187 -153 187 -153 233 -153 c 0,72,73
 287 -153 287 -153 325.5 -150 c 128,-1,74
 364 -147 364 -147 390.5 -137 c 128,-1,75
 417 -127 417 -127 432.5 -107 c 128,-1,76
 448 -87 448 -87 455 -53 c 0,77,78
 461 -24 461 -24 457.5 -5.5 c 128,-1,79
 454 13 454 13 434 24 c 128,-1,80
 414 35 414 35 375 39 c 128,-1,81
 336 43 336 43 271 43 c 0,62,63
200 390 m 0,82,83
 190 345 190 345 194.5 316 c 128,-1,84
 199 287 199 287 214.5 271.5 c 128,-1,85
 230 256 230 256 257 250.5 c 128,-1,86
 284 245 284 245 320 245 c 0,87,88
 361 245 361 245 390.5 250.5 c 128,-1,89
 420 256 420 256 442 271.5 c 128,-1,90
 464 287 464 287 478 316 c 128,-1,91
 492 345 492 345 502 390 c 0,92,93
 513 438 513 438 510.5 466.5 c 128,-1,94
 508 495 508 495 493.5 512 c 128,-1,95
 479 529 479 529 451.5 535 c 128,-1,96
 424 541 424 541 383 541 c 0,97,98
 302 541 302 541 260 508.5 c 128,-1,99
 218 476 218 476 200 390 c 0,82,83
EndSplineSet
EndChar
StartChar: h
Encoding: 104 104 73
Width: 623
VWidth: 1473
Flags: W
HStem: 0 21G<93 163.196 463 534.221> 541 53<403.274 532.268> 789 20G<259.773 330>
Fore
93 0 m 1,0,-1
 264 809 l 1,1,-1
 330 809 l 1,2,-1
 262 491 l 1,3,4
 320 539 320 539 369 566.5 c 128,-1,5
 418 594 418 594 483 594 c 0,6,7
 575 594 575 594 605 543 c 128,-1,8
 635 492 635 492 614 398 c 2,9,-1
 530 0 l 1,10,-1
 463 0 l 1,11,-1
 545 390 l 2,12,13
 561 464 561 464 544 502.5 c 128,-1,14
 527 541 527 541 460 541 c 0,15,16
 433 541 433 541 409 532.5 c 128,-1,17
 385 524 385 524 360.5 509.5 c 128,-1,18
 336 495 336 495 309.5 474.5 c 128,-1,19
 283 454 283 454 249 429 c 1,20,-1
 159 0 l 1,21,-1
 93 0 l 1,0,-1
EndSplineSet
EndChar
StartChar: i
Encoding: 105 105 74
Width: 248
VWidth: 1473
Flags: W
HStem: 0 21G<91 162.192> 562 20G<209.773 280> 789 20G<257.96 329>
VStem: 91 238<0 809 739.417 826.874>
Fore
158 0 m 1,0,-1
 91 0 l 1,1,-1
 214 582 l 1,2,-1
 280 582 l 1,3,-1
 158 0 l 1,0,-1
242 710 m 1,4,-1
 262 809 l 1,5,-1
 329 809 l 1,6,-1
 308 710 l 1,7,-1
 242 710 l 1,4,-1
EndSplineSet
EndChar
StartChar: j
Encoding: 106 106 75
Width: 248
VWidth: 1473
Flags: W
HStem: -206 59<-51.1246 34.0099> 562 20G<209.762 280> 789 20G<257.96 329>
VStem: -96 425<-197 809 618.261 705.584>
Fore
143 -65 m 2,0,1
 127 -141 127 -141 88.5 -173.5 c 128,-1,2
 50 -206 50 -206 -24 -206 c 0,3,4
 -41 -206 -41 -206 -60.5 -204.5 c 128,-1,5
 -80 -203 -80 -203 -96 -197 c 1,6,7
 -102 -177 -102 -177 -93 -153.5 c 128,-1,8
 -84 -130 -84 -130 -77 -130 c 1,9,10
 -63 -137 -63 -137 -50 -142 c 128,-1,11
 -37 -147 -37 -147 -19 -147 c 0,12,13
 0 -147 0 -147 15.5 -145 c 128,-1,14
 31 -143 31 -143 42 -135.5 c 128,-1,15
 53 -128 53 -128 61 -113.5 c 128,-1,16
 69 -99 69 -99 75 -74 c 2,17,-1
 214 582 l 1,18,-1
 280 582 l 1,19,-1
 143 -65 l 2,0,1
242 710 m 1,20,-1
 262 809 l 1,21,-1
 329 809 l 1,22,-1
 308 710 l 1,23,-1
 242 710 l 1,20,-1
EndSplineSet
EndChar
StartChar: k
Encoding: 107 107 76
Width: 559
VWidth: 1473
Flags: W
HStem: 0 21G<93 163.211 433.564 535> 562 20G<521 629> 789 20G<259.773 330>
Fore
93 0 m 1,0,-1
 264 809 l 1,1,-1
 330 809 l 1,2,-1
 222 302 l 1,3,-1
 544 582 l 1,4,-1
 629 582 l 1,5,-1
 331 320 l 1,6,-1
 535 0 l 1,7,-1
 446 0 l 1,8,-1
 275 275 l 1,9,-1
 203 209 l 1,10,-1
 159 0 l 1,11,-1
 93 0 l 1,0,-1
EndSplineSet
EndChar
StartChar: l
Encoding: 108 108 77
Width: 248
VWidth: 1473
Flags: W
HStem: 0 21G<91 162.227> 789 20G<257.773 329>
VStem: 91 238<0 809 1.53064e-18 1.53064e-18>
Fore
262 809 m 1,0,-1
 329 809 l 1,1,-1
 158 0 l 1,2,-1
 91 0 l 1,3,-1
 262 809 l 1,0,-1
EndSplineSet
EndChar
StartChar: m
Encoding: 109 109 78
Width: 932
VWidth: 1473
Flags: W
HStem: 0 21G<93 163.196 433 503.196 772 844.184> 541 53<426.721 513.349 737.702 853.485>
Fore
93 0 m 1,0,-1
 215 582 l 1,1,-1
 281 582 l 1,2,-1
 264 494 l 1,3,4
 290 517 290 517 314.5 535.5 c 128,-1,5
 339 554 339 554 364 567 c 128,-1,6
 389 580 389 580 416 587 c 128,-1,7
 443 594 443 594 477 594 c 0,8,9
 526 594 526 594 560 564.5 c 128,-1,10
 594 535 594 535 597 488 c 1,11,12
 647 533 647 533 697.5 563.5 c 128,-1,13
 748 594 748 594 812 594 c 0,14,15
 888 594 888 594 917.5 553.5 c 128,-1,16
 947 513 947 513 931 435 c 2,17,-1
 840 0 l 1,18,-1
 772 0 l 1,19,-1
 865 442 l 2,20,21
 887 541 887 541 787 541 c 0,22,23
 768 541 768 541 741.5 531.5 c 128,-1,24
 715 522 715 522 687 506.5 c 128,-1,25
 659 491 659 491 633 470 c 128,-1,26
 607 449 607 449 589 429 c 1,27,-1
 499 0 l 1,28,-1
 433 0 l 1,29,-1
 526 442 l 2,30,31
 538 491 538 491 516.5 516 c 128,-1,32
 495 541 495 541 446 541 c 0,33,34
 427 541 427 541 400.5 531.5 c 128,-1,35
 374 522 374 522 346 506.5 c 128,-1,36
 318 491 318 491 292.5 470 c 128,-1,37
 267 449 267 449 249 429 c 1,38,-1
 159 0 l 1,39,-1
 93 0 l 1,0,-1
EndSplineSet
EndChar
StartChar: n
Encoding: 110 110 79
Width: 623
VWidth: 1473
Flags: W
HStem: 0 21G<93 163.196 463 534.221> 541 53<373.868 532.268>
Fore
93 0 m 1,0,-1
 215 582 l 1,1,-1
 281 582 l 1,2,-1
 262 492 l 1,3,4
 309 541 309 541 363.5 567.5 c 128,-1,5
 418 594 418 594 483 594 c 0,6,7
 575 594 575 594 605 543 c 128,-1,8
 635 492 635 492 614 398 c 2,9,-1
 530 0 l 1,10,-1
 463 0 l 1,11,-1
 545 390 l 2,12,13
 561 464 561 464 544 502.5 c 128,-1,14
 527 541 527 541 460 541 c 0,15,16
 405 541 405 541 355 510 c 128,-1,17
 305 479 305 479 249 429 c 1,18,-1
 159 0 l 1,19,-1
 93 0 l 1,0,-1
EndSplineSet
EndChar
StartChar: o
Encoding: 111 111 80
Width: 559
VWidth: 1473
Flags: W
HStem: -12 55<204.418 388.32> 541 53<303.414 478.347>
VStem: 87.5 67<135.027 165 165 289.785> 528 67<294.184 450.192>
Fore
395 541 m 0,0,1
 345 541 345 541 307.5 524 c 128,-1,2
 270 507 270 507 243.5 475 c 128,-1,3
 217 443 217 443 199 397 c 128,-1,4
 181 351 181 351 169 292 c 0,5,6
 156 233 156 233 154.5 186.5 c 128,-1,7
 153 140 153 140 165.5 107.5 c 128,-1,8
 178 75 178 75 208.5 59 c 128,-1,9
 239 43 239 43 289 43 c 0,10,11
 390 43 390 43 439.5 107.5 c 128,-1,12
 489 172 489 172 514 292 c 0,13,14
 526 351 526 351 528 397 c 128,-1,15
 530 443 530 443 517.5 475 c 128,-1,16
 505 507 505 507 475.5 524 c 128,-1,17
 446 541 446 541 395 541 c 0,0,1
405 594 m 0,18,19
 474 594 474 594 515.5 573 c 128,-1,20
 557 552 557 552 576 513 c 128,-1,21
 595 474 595 474 595 418 c 128,-1,22
 595 362 595 362 580 292 c 256,23,24
 566 221 566 221 541.5 165 c 128,-1,25
 517 109 517 109 481.5 69 c 128,-1,26
 446 29 446 29 396 8.5 c 128,-1,27
 346 -12 346 -12 277 -12 c 0,28,29
 209 -12 209 -12 168 8.5 c 128,-1,30
 127 29 127 29 107 69 c 128,-1,31
 87 109 87 109 87.5 165 c 128,-1,32
 88 221 88 221 103 292 c 256,33,34
 118 362 118 362 141.5 418 c 128,-1,35
 165 474 165 474 201 513 c 128,-1,36
 237 552 237 552 287 573 c 128,-1,37
 337 594 337 594 405 594 c 0,18,19
EndSplineSet
EndChar
StartChar: p
Encoding: 112 112 81
Width: 611
VWidth: 1473
Flags: W
HStem: -206 21G<59 126.219> -12 53<244.856 430.122> 539 55<379.521 549.487>
Fore
187 103 m 1,0,1
 208 84 208 84 244 62.5 c 128,-1,2
 280 41 280 41 330 41 c 0,3,4
 433 41 433 41 487 107.5 c 128,-1,5
 541 174 541 174 567 299 c 0,6,7
 592 421 592 421 574.5 480 c 128,-1,8
 557 539 557 539 468 539 c 0,9,10
 407 539 407 539 352.5 501.5 c 128,-1,11
 298 464 298 464 255 418 c 1,12,-1
 187 103 l 1,0,1
265 582 m 0,13,14
 278 582 278 582 281 568.5 c 128,-1,15
 284 555 284 555 277 523 c 2,16,-1
 270 492 l 1,17,-1
 271 492 l 1,18,19
 317 544 317 544 372 569 c 128,-1,20
 427 594 427 594 485 594 c 0,21,22
 536 594 536 594 571.5 577.5 c 128,-1,23
 607 561 607 561 626 525 c 128,-1,24
 645 489 645 489 646.5 431 c 128,-1,25
 648 373 648 373 631 287 c 0,26,27
 601 147 601 147 526.5 67.5 c 128,-1,28
 452 -12 452 -12 337 -12 c 0,29,30
 278 -12 278 -12 243.5 -1 c 128,-1,31
 209 10 209 10 172 31 c 1,32,-1
 122 -206 l 1,33,-1
 59 -206 l 1,34,-1
 184 386 l 2,35,36
 187 399 187 399 192 425 c 128,-1,37
 197 451 197 451 202.5 478 c 128,-1,38
 208 505 208 505 211 530 c 128,-1,39
 214 555 214 555 211 567 c 1,40,41
 218 570 218 570 227 575 c 0,42,43
 245 582 245 582 265 582 c 0,13,14
EndSplineSet
EndChar
StartChar: q
Encoding: 113 113 82
Width: 611
VWidth: 1473
Flags: W
HStem: -206 21G<401 468.223> -12 53<205.624 338.951 294.123 348.229> 539 55<282.713 459.564>
Fore
536 433 m 1,0,1
 514 479 514 479 473 509 c 128,-1,2
 432 539 432 539 370 539 c 0,3,4
 281 539 281 539 237.5 475 c 128,-1,5
 194 411 194 411 171 299 c 0,6,7
 144 174 144 174 168.5 107.5 c 128,-1,8
 193 41 193 41 296 41 c 0,9,10
 346 41 346 41 385 57.5 c 128,-1,11
 424 74 424 74 466 103 c 1,12,-1
 536 433 l 1,0,1
647 567 m 1,13,14
 641 555 641 555 632 532.5 c 128,-1,15
 623 510 623 510 615 483.5 c 128,-1,16
 607 457 607 457 600.5 431 c 128,-1,17
 594 405 594 405 589 386 c 2,18,-1
 464 -206 l 1,19,-1
 401 -206 l 1,20,-1
 451 31 l 1,21,22
 424 18 424 18 403.5 9.5 c 128,-1,23
 383 1 383 1 362.5 -4 c 128,-1,24
 342 -9 342 -9 320 -10.5 c 128,-1,25
 298 -12 298 -12 268 -12 c 0,26,27
 153 -12 153 -12 112.5 67.5 c 128,-1,28
 72 147 72 147 102 287 c 0,29,30
 136 448 136 448 205.5 521 c 128,-1,31
 275 594 275 594 377 594 c 0,32,33
 498 594 498 594 560 514 c 1,34,35
 567 547 567 547 576 564.5 c 128,-1,36
 585 582 585 582 598 582 c 0,37,38
 619 582 619 582 633 575 c 0,39,40
 641 570 641 570 647 567 c 1,13,14
EndSplineSet
EndChar
StartChar: r
Encoding: 114 114 83
Width: 388
VWidth: 1473
Flags: W
HStem: 0 21G<87 159.195> 529 65<358.709 463.422>
VStem: 87 405<0 586 -98.8977 0>
Fore
412 529 m 0,0,1
 387 529 387 529 358 513.5 c 128,-1,2
 329 498 329 498 302 470.5 c 128,-1,3
 275 443 275 443 254 407 c 128,-1,4
 233 371 233 371 224 329 c 2,5,-1
 155 0 l 1,6,-1
 87 0 l 1,7,-1
 209 582 l 1,8,-1
 277 582 l 1,9,-1
 255 471 l 1,10,-1
 256 471 l 1,11,12
 290 526 290 526 338.5 560 c 128,-1,13
 387 594 387 594 443 594 c 0,14,15
 451 594 451 594 468 592.5 c 128,-1,16
 485 591 485 591 492 586 c 1,17,18
 495 576 495 576 491.5 564 c 128,-1,19
 488 552 488 552 482 541 c 128,-1,20
 476 530 476 530 469.5 523 c 128,-1,21
 463 516 463 516 460 516 c 1,22,23
 440 529 440 529 412 529 c 0,0,1
EndSplineSet
EndChar
StartChar: s
Encoding: 115 115 84
Width: 496
VWidth: 1473
Flags: W
HStem: -12 55<184.047 322.137> 541 53<288.197 421.969>
VStem: 50 483<106 489 106 106>
Fore
50 106 m 1,0,1
 57 113 57 113 65 119 c 256,2,3
 72 125 72 125 79.5 130.5 c 128,-1,4
 87 136 87 136 93 138 c 0,5,6
 110 146 110 146 119 133 c 0,7,8
 146 84 146 84 184 63.5 c 128,-1,9
 222 43 222 43 267 43 c 0,10,11
 323 43 323 43 366.5 75.5 c 128,-1,12
 410 108 410 108 420 155 c 0,13,14
 429 196 429 196 408 219 c 128,-1,15
 387 242 387 242 352 256 c 128,-1,16
 317 270 317 270 274 280 c 128,-1,17
 231 290 231 290 197.5 307 c 128,-1,18
 164 324 164 324 144.5 353.5 c 128,-1,19
 125 383 125 383 136 435 c 0,20,21
 144 476 144 476 168 506 c 128,-1,22
 192 536 192 536 222.5 555.5 c 128,-1,23
 253 575 253 575 288.5 584.5 c 128,-1,24
 324 594 324 594 355 594 c 0,25,26
 417 594 417 594 465 566.5 c 128,-1,27
 513 539 513 539 533 489 c 1,28,29
 522 477 l 1,30,31
 516 473 516 473 507.5 468 c 128,-1,32
 499 463 499 463 489 460 c 0,33,34
 480 457 480 457 477 460 c 128,-1,35
 474 463 474 463 470 471 c 0,36,37
 449 505 449 505 419.5 523 c 128,-1,38
 390 541 390 541 342 541 c 256,39,40
 293 541 293 541 255 516 c 128,-1,41
 217 491 217 491 205 438 c 0,42,43
 197 402 197 402 218.5 383 c 128,-1,44
 240 364 240 364 275.5 350.5 c 128,-1,45
 311 337 311 337 353 326 c 128,-1,46
 395 315 395 315 429 296 c 128,-1,47
 463 277 463 277 481 244 c 128,-1,48
 499 211 499 211 488 155 c 0,49,50
 479 115 479 115 456 84 c 128,-1,51
 433 53 433 53 400 31.5 c 128,-1,52
 367 10 367 10 328.5 -1 c 128,-1,53
 290 -12 290 -12 250 -12 c 0,54,55
 183 -12 183 -12 130.5 16 c 128,-1,56
 78 44 78 44 50 106 c 1,0,1
EndSplineSet
EndChar
StartChar: t
Encoding: 116 116 85
Width: 310
VWidth: 1473
Flags: W
HStem: -12 61<188.798 261.096> 529 53<134 211 287 407>
VStem: 118 299<91 582 83.8755 113.149>
Fore
221 582 m 1,0,-1
 262 772 l 1,1,-1
 329 772 l 1,2,-1
 287 582 l 1,3,-1
 417 582 l 1,4,-1
 407 529 l 1,5,-1
 277 529 l 1,6,-1
 187 105 l 2,7,8
 180 75 180 75 190 62 c 128,-1,9
 200 49 200 49 233 49 c 0,10,11
 249 49 249 49 272 54 c 128,-1,12
 295 59 295 59 312 66 c 1,13,14
 314 65 314 65 314.5 54.5 c 128,-1,15
 315 44 315 44 314.5 32.5 c 128,-1,16
 314 21 314 21 309.5 10.5 c 128,-1,17
 305 0 305 0 298 -1 c 0,18,19
 278 -6 278 -6 258.5 -9 c 128,-1,20
 239 -12 239 -12 222 -12 c 0,21,22
 150 -12 150 -12 128 12.5 c 128,-1,23
 106 37 106 37 118 91 c 2,24,-1
 211 529 l 1,25,-1
 124 529 l 1,26,-1
 134 582 l 1,27,-1
 221 582 l 1,0,-1
EndSplineSet
EndChar
StartChar: u
Encoding: 117 117 86
Width: 623
VWidth: 1473
Flags: W
HStem: -12 55<212.392 374.453> 562 20G<210.779 281 580.785 653>
VStem: 476 71<12 21.15 21.15 30.3923 30.3923 54.3882>
Fore
485 93 m 1,0,1
 449 43 449 43 388 15.5 c 128,-1,2
 327 -12 327 -12 262 -12 c 0,3,4
 169 -12 169 -12 139.5 39 c 128,-1,5
 110 90 110 90 131 184 c 2,6,-1
 215 582 l 1,7,-1
 281 582 l 1,8,-1
 199 192 l 2,9,10
 183 119 183 119 200.5 81 c 128,-1,11
 218 43 218 43 286 43 c 0,12,13
 342 43 342 43 396.5 73 c 128,-1,14
 451 103 451 103 495 155 c 1,15,-1
 585 582 l 1,16,-1
 653 582 l 1,17,-1
 555 121 l 2,18,19
 545 71 545 71 545 49 c 128,-1,20
 545 27 545 27 547 12 c 1,21,22
 533 6 533 6 523 3 c 128,-1,23
 513 0 513 0 501 0 c 0,24,25
 495 0 495 0 487 2 c 128,-1,26
 479 4 479 4 476 12 c 0,27,28
 474 18 474 18 475 30.5 c 128,-1,29
 476 43 476 43 479 57 c 0,30,31
 482 74 482 74 485 93 c 1,0,1
EndSplineSet
EndChar
StartChar: v
Encoding: 118 118 87
Width: 496
VWidth: 1473
Flags: W
HStem: 0 21G<212.32 292.1> 562 20G<137 211.422 521.061 604>
VStem: 137 467<582 582 307.026 573.345>
Fore
137 582 m 1,0,-1
 209 582 l 1,1,-1
 267 103 l 1,2,-1
 270 103 l 1,3,-1
 532 582 l 1,4,-1
 604 582 l 1,5,-1
 281 0 l 1,6,-1
 215 0 l 1,7,-1
 137 582 l 1,0,-1
EndSplineSet
EndChar
StartChar: w
Encoding: 119 119 88
Width: 746
VWidth: 1473
Flags: W
HStem: 0 21G<169.625 248.807 500.672 579> 562 20G<131 198.328 451.107 530.242 781.15 860>
Fore
131 582 m 1,0,-1
 197 582 l 1,1,-1
 228 115 l 1,2,-1
 230 115 l 1,3,-1
 461 582 l 1,4,-1
 529 582 l 1,5,-1
 558 115 l 1,6,-1
 561 115 l 1,7,-1
 791 582 l 1,8,-1
 860 582 l 1,9,-1
 569 0 l 1,10,-1
 502 0 l 1,11,-1
 471 467 l 1,12,-1
 468 467 l 1,13,-1
 239 0 l 1,14,-1
 171 0 l 1,15,-1
 131 582 l 1,0,-1
EndSplineSet
EndChar
StartChar: x
Encoding: 120 120 89
Width: 496
VWidth: 1473
Flags: W
HStem: 0 21G<12 109.98 398.347 486> 562 20G<156 245.612 487.967 585>
Fore
93 0 m 1,0,-1
 12 0 l 1,1,-1
 274 309 l 1,2,-1
 156 582 l 1,3,-1
 237 582 l 1,4,-1
 327 373 l 1,5,-1
 505 582 l 1,6,-1
 585 582 l 1,7,-1
 354 309 l 1,8,-1
 486 0 l 1,9,-1
 407 0 l 1,10,-1
 301 245 l 1,11,-1
 93 0 l 1,0,-1
EndSplineSet
EndChar
StartChar: y
Encoding: 121 121 90
Width: 496
VWidth: 1473
Flags: W
HStem: -206 56<21.133 115.446> 562 20G<137 211.579 521.922 607>
Fore
270 109 m 1,0,-1
 271 109 l 1,1,-1
 533 582 l 1,2,-1
 607 582 l 1,3,-1
 256 -43 l 2,4,5
 209 -127 209 -127 162 -166.5 c 128,-1,6
 115 -206 115 -206 37 -206 c 0,7,8
 15 -206 15 -206 1.5 -202.5 c 128,-1,9
 -12 -199 -12 -199 -24 -194 c 0,10,11
 -31 -192 -31 -192 -30 -180.5 c 128,-1,12
 -29 -169 -29 -169 -24 -157.5 c 128,-1,13
 -19 -146 -19 -146 -11.5 -135 c 128,-1,14
 -4 -124 -4 -124 0 -121 c 1,15,16
 12 -133 12 -133 24.5 -141.5 c 128,-1,17
 37 -150 37 -150 57 -150 c 0,18,19
 91 -150 91 -150 132.5 -115.5 c 128,-1,20
 174 -81 174 -81 217 9 c 1,21,-1
 137 582 l 1,22,-1
 209 582 l 1,23,-1
 270 109 l 1,0,-1
EndSplineSet
EndChar
StartChar: z
Encoding: 122 122 91
Width: 496
VWidth: 1473
Flags: W
HStem: 0 53<128 463> 529 53<177 476>
Fore
177 582 m 1,0,-1
 576 582 l 1,1,-1
 569 541 l 1,2,-1
 128 53 l 1,3,-1
 473 53 l 1,4,-1
 463 0 l 1,5,-1
 28 0 l 1,6,-1
 37 43 l 1,7,-1
 476 529 l 1,8,-1
 166 529 l 1,9,-1
 177 582 l 1,0,-1
EndSplineSet
EndChar
StartChar: braceleft
Encoding: 123 123 92
Width: 372
VWidth: 1473
Flags: W
HStem: -93 41<185.769 194 194 264> 345 38<130 167.055> 779 42<356.955 449>
VStem: 121 337<345 821 322 392>
Fore
130 383 m 1,0,1
 168 383 168 383 188 407.5 c 128,-1,2
 208 432 208 432 217 474 c 2,3,-1
 262 692 l 2,4,5
 275 754 275 754 308.5 787.5 c 128,-1,6
 342 821 342 821 389 821 c 2,7,-1
 458 821 l 1,8,-1
 449 779 l 1,9,-1
 393 779 l 2,10,11
 371 779 371 779 356.5 766 c 128,-1,12
 342 753 342 753 331 706 c 2,13,-1
 284 485 l 2,14,15
 273 429 273 429 247 402.5 c 128,-1,16
 221 376 221 376 180 365 c 1,17,-1
 180 362 l 1,18,19
 217 354 217 354 231.5 326.5 c 128,-1,20
 246 299 246 299 234 243 c 2,21,-1
 187 22 l 2,22,23
 177 -25 177 -25 185.5 -38.5 c 128,-1,24
 194 -52 194 -52 217 -52 c 2,25,-1
 273 -52 l 1,26,-1
 264 -93 l 1,27,-1
 194 -93 l 2,28,29
 147 -93 147 -93 128.5 -60 c 128,-1,30
 110 -27 110 -27 124 35 c 2,31,-1
 169 253 l 2,32,33
 178 296 178 296 168.5 320.5 c 128,-1,34
 159 345 159 345 121 345 c 1,35,-1
 130 383 l 1,0,1
EndSplineSet
EndChar
StartChar: bar
Encoding: 124 124 93
Width: 248
VWidth: 1473
Flags: W
HStem: -12 21G<91 156.25>
VStem: 91 238<-12 821 -12 -12>
Fore
268 821 m 1,0,-1
 329 821 l 1,1,-1
 152 -12 l 1,2,-1
 91 -12 l 1,3,-1
 268 821 l 1,0,-1
EndSplineSet
EndChar
StartChar: braceright
Encoding: 125 125 94
Width: 372
VWidth: 1473
Flags: W
HStem: -93 41<77 168.561> 345 38<358.104 395> 779 42<262 339.231>
VStem: 68 336<-93 383 92.5777 438.939>
Fore
395 345 m 1,0,1
 357 345 357 345 337.5 320.5 c 128,-1,2
 318 296 318 296 309 253 c 2,3,-1
 264 35 l 2,4,5
 250 -27 250 -27 217 -60 c 128,-1,6
 184 -93 184 -93 137 -93 c 2,7,-1
 68 -93 l 1,8,-1
 77 -52 l 1,9,-1
 133 -52 l 2,10,11
 155 -52 155 -52 169 -38.5 c 128,-1,12
 183 -25 183 -25 193 22 c 2,13,-1
 240 243 l 2,14,15
 252 299 252 299 278.5 326.5 c 128,-1,16
 305 354 305 354 346 362 c 1,17,-1
 346 365 l 1,18,19
 309 376 309 376 293.5 402.5 c 128,-1,20
 278 429 278 429 290 485 c 2,21,-1
 337 706 l 2,22,23
 348 753 348 753 339.5 766 c 128,-1,24
 331 779 331 779 309 779 c 2,25,-1
 253 779 l 1,26,-1
 262 821 l 1,27,-1
 331 821 l 2,28,29
 379 821 379 821 397 787.5 c 128,-1,30
 415 754 415 754 402 692 c 2,31,-1
 357 474 l 2,32,33
 348 432 348 432 356.5 407.5 c 128,-1,34
 365 383 365 383 404 383 c 1,35,-1
 395 345 l 1,0,1
EndSplineSet
EndChar
StartChar: asciitilde
Encoding: 126 126 95
Width: 671
VWidth: 1473
Flags: W
HStem: 222 64<473.173 589.328> 296 63<205.212 320.752>
Fore
681 317 m 1,0,1
 654 281 654 281 613.5 251.5 c 128,-1,2
 573 222 573 222 510 222 c 0,3,4
 480 222 480 222 448.5 232.5 c 128,-1,5
 417 243 417 243 385 259 c 0,6,7
 354 273 354 273 323.5 284.5 c 128,-1,8
 293 296 293 296 268 296 c 0,9,10
 231 296 231 296 201.5 271.5 c 128,-1,11
 172 247 172 247 144 218 c 1,12,-1
 113 267 l 1,13,14
 138 301 138 301 180 330 c 128,-1,15
 222 359 222 359 284 359 c 0,16,17
 314 359 314 359 345.5 349 c 128,-1,18
 377 339 377 339 410 323 c 0,19,20
 439 309 439 309 470 297.5 c 128,-1,21
 501 286 501 286 526 286 c 0,22,23
 563 286 563 286 592.5 310 c 128,-1,24
 622 334 622 334 650 364 c 1,25,-1
 681 317 l 1,0,1
EndSplineSet
EndChar
StartChar: uni0E33.alt1
Encoding: 65537 -1 96
Width: 493
VWidth: 1473
Flags: W
HStem: 0 21G<334 395> 547 51<280.556 384.369> 688 49<-212.57 -136.531> 837 48<-198.896 -123.158>
VStem: -267 49<757.659 821.53>
Fore
-69 787 m 256,0,1
 -78 745 -78 745 -112.5 716.5 c 128,-1,2
 -147 688 -147 688 -189 688 c 256,3,4
 -230 688 -230 688 -252.5 716.5 c 128,-1,5
 -275 745 -275 745 -267 787 c 256,6,7
 -258 828 -258 828 -223.5 856.5 c 128,-1,8
 -189 885 -189 885 -147 885 c 256,9,10
 -106 885 -106 885 -83 856.5 c 128,-1,11
 -60 828 -60 828 -69 787 c 256,0,1
-118 787 m 256,12,13
 -113 807 -113 807 -125 822 c 128,-1,14
 -137 837 -137 837 -158 837 c 256,15,16
 -178 837 -178 837 -196 822 c 128,-1,17
 -214 807 -214 807 -218 787 c 256,18,19
 -222 766 -222 766 -210.5 751.5 c 128,-1,20
 -199 737 -199 737 -178 737 c 256,21,22
 -158 737 -158 737 -140 751.5 c 128,-1,23
 -122 766 -122 766 -118 787 c 256,12,13
334 0 m 1,24,25
 345 46 345 46 354 88 c 0,26,27
 361 125 361 125 369 163.5 c 128,-1,28
 377 202 377 202 382 225 c 0,29,30
 392 273 392 273 404.5 315.5 c 128,-1,31
 417 358 417 358 429 410 c 0,32,33
 439 458 439 458 429.5 485.5 c 128,-1,34
 420 513 420 513 403 526 c 128,-1,35
 386 539 386 539 367.5 543 c 128,-1,36
 349 547 349 547 340 547 c 0,37,38
 289 547 289 547 243 520.5 c 128,-1,39
 197 494 197 494 150 449 c 0,40,41
 143 440 143 440 127.5 450.5 c 128,-1,42
 112 461 112 461 102 480 c 1,43,44
 119 499 119 499 148.5 520 c 128,-1,45
 178 541 178 541 212 558.5 c 128,-1,46
 246 576 246 576 280.5 587 c 128,-1,47
 315 598 315 598 343 598 c 0,48,49
 427 598 427 598 467.5 555.5 c 128,-1,50
 508 513 508 513 488 410 c 0,51,52
 476 362 476 362 465 320 c 128,-1,53
 454 278 454 278 443 233 c 0,54,55
 440 217 440 217 433.5 186 c 128,-1,56
 427 155 427 155 421 121.5 c 128,-1,57
 415 88 415 88 410 60 c 128,-1,58
 405 32 405 32 405 21 c 0,59,60
 405 6 405 6 401.5 3 c 128,-1,61
 398 0 398 0 392 0 c 2,62,-1
 334 0 l 1,24,25
EndSplineSet
EndChar
StartChar: exclamdown
Encoding: 161 161 100
Width: 248
VWidth: 1473
Flags: W
HStem: 482 100<197 274>
VStem: 168 56<283.046 333>
Fore
27 -227 m 1,0,-1
 168 333 l 1,1,-1
 224 333 l 1,2,-1
 124 -227 l 1,3,-1
 27 -227 l 1,0,-1
295 582 m 1,4,-1
 274 482 l 1,5,-1
 177 482 l 1,6,-1
 197 582 l 1,7,-1
 295 582 l 1,4,-1
EndSplineSet
EndChar
StartChar: cent
Encoding: 162 162 101
Width: 623
VWidth: 1473
Flags: W
HStem: -3 46<252 267.33 267.33 274.993 271.161 391.25> 508 47<333.716 425.097>
VStem: 110 462<-119 653 -103.67 -96.0066>
Fore
436 499 m 1,0,1
 424 502 424 502 414.5 505 c 128,-1,2
 405 508 405 508 393 508 c 0,3,4
 357 508 357 508 323.5 495.5 c 128,-1,5
 290 483 290 483 263 455 c 128,-1,6
 236 427 236 427 214.5 382 c 128,-1,7
 193 337 193 337 180 273 c 0,8,9
 147 121 147 121 211 66 c 1,10,-1
 436 499 l 1,0,1
252 43 m 1,11,12
 268 38 268 38 293 38 c 0,13,14
 359 38 359 38 399 66 c 128,-1,15
 439 94 439 94 468 144 c 1,16,-1
 513 121 l 1,17,18
 479 66 479 66 423.5 28 c 128,-1,19
 368 -10 368 -10 283 -10 c 0,20,21
 252 -10 252 -10 227 -3 c 1,22,-1
 164 -119 l 1,23,-1
 110 -119 l 1,24,-1
 184 15 l 1,25,26
 133 47 133 47 114.5 106.5 c 128,-1,27
 96 166 96 166 119 273 c 0,28,29
 136 351 136 351 164 404.5 c 128,-1,30
 192 458 192 458 228.5 491 c 128,-1,31
 265 524 265 524 309.5 539.5 c 128,-1,32
 354 555 354 555 404 555 c 0,33,34
 433 555 433 555 460 547 c 1,35,-1
 519 653 l 1,36,-1
 572 653 l 1,37,-1
 501 526 l 1,38,39
 554 488 554 488 560 414 c 1,40,-1
 502 399 l 1,41,42
 495 442 495 442 473 471 c 1,43,-1
 252 43 l 1,11,12
EndSplineSet
EndChar
StartChar: sterling
Encoding: 163 163 102
Width: 623
VWidth: 1473
Flags: W
HStem: -10 60<274.993 407.994> 333 47<94 196 267 402> 664 62<355.861 525.298>
VStem: 206 65.5<380 421.747 421.747 433.171 433.171 450 453 521.844> 563 68<544 621.32>
Fore
29 66 m 1,0,1
 63 75 63 75 89 95 c 128,-1,2
 115 115 115 115 135 142 c 128,-1,3
 155 169 155 169 167.5 201.5 c 128,-1,4
 180 234 180 234 187 267 c 0,5,6
 190 283 190 283 191.5 300 c 128,-1,7
 193 317 193 317 196 333 c 1,8,-1
 85 333 l 1,9,-1
 94 380 l 1,10,-1
 199 380 l 1,11,12
 203 417 203 417 206 453 c 128,-1,13
 209 489 209 489 217 526 c 0,14,15
 237 617 237 617 302 671.5 c 128,-1,16
 367 726 367 726 458 726 c 0,17,18
 544 726 544 726 588.5 677 c 128,-1,19
 633 628 633 628 631 544 c 1,20,-1
 563 523 l 1,21,22
 561 589 561 589 538.5 626.5 c 128,-1,23
 516 664 516 664 445 664 c 0,24,25
 373 664 373 664 335.5 626.5 c 128,-1,26
 298 589 298 589 283 523 c 0,27,28
 275 486 275 486 271.5 450 c 128,-1,29
 268 414 268 414 267 380 c 1,30,-1
 411 380 l 1,31,-1
 402 333 l 1,32,-1
 264 333 l 1,33,-1
 255 280 l 2,34,35
 245 231 245 231 229.5 193.5 c 128,-1,36
 214 156 214 156 184 112 c 1,37,38
 214 90 214 90 256.5 70 c 128,-1,39
 299 50 299 50 342 50 c 0,40,41
 371 50 371 50 393 55 c 128,-1,42
 415 60 415 60 433.5 74 c 128,-1,43
 452 88 452 88 469 113 c 128,-1,44
 486 138 486 138 504 177 c 1,45,-1
 564 165 l 1,46,47
 530 81 530 81 475.5 35.5 c 128,-1,48
 421 -10 421 -10 339 -10 c 0,49,50
 303 -10 303 -10 276.5 -3.5 c 128,-1,51
 250 3 250 3 228 14 c 128,-1,52
 206 25 206 25 187 38.5 c 128,-1,53
 168 52 168 52 147 66 c 1,54,55
 121 38 121 38 85 17.5 c 128,-1,56
 49 -3 49 -3 13 -10 c 1,57,-1
 29 66 l 1,0,1
EndSplineSet
EndChar
StartChar: currency
Encoding: 164 164 103
Width: 623
VWidth: 1473
Flags: W
HStem: 82 55<254.962 431.736> 585 53<350.18 517.36>
Fore
715 595 m 1,0,-1
 642 535 l 1,1,2
 666 496 666 496 671 452 c 128,-1,3
 676 408 676 408 666 361 c 0,4,5
 654 314 654 314 630.5 268 c 128,-1,6
 607 222 607 222 567 186 c 1,7,-1
 616 125 l 1,8,-1
 563 82 l 1,9,-1
 514 143 l 1,10,11
 424 82 424 82 327 82 c 0,12,13
 280 82 280 82 238.5 97.5 c 128,-1,14
 197 113 197 113 168 143 c 1,15,-1
 91 82 l 1,16,-1
 60 125 l 1,17,-1
 133 186 l 1,18,19
 108 222 108 222 103.5 268 c 128,-1,20
 99 314 99 314 110 361 c 128,-1,21
 121 408 121 408 143.5 452 c 128,-1,22
 166 496 166 496 208 535 c 1,23,-1
 159 595 l 1,24,-1
 211 638 l 1,25,-1
 261 576 l 1,26,27
 303 607 303 607 351 622.5 c 128,-1,28
 399 638 399 638 446 638 c 0,29,30
 545 638 545 638 607 576 c 1,31,-1
 682 638 l 1,32,-1
 715 595 l 1,0,-1
339 137 m 0,33,34
 385 137 385 137 428 154.5 c 128,-1,35
 471 172 471 172 507.5 203 c 128,-1,36
 544 234 544 234 569.5 274.5 c 128,-1,37
 595 315 595 315 605 361 c 0,38,39
 614 405 614 405 606 445.5 c 128,-1,40
 598 486 598 486 574.5 517 c 128,-1,41
 551 548 551 548 515.5 566.5 c 128,-1,42
 480 585 480 585 435 585 c 128,-1,43
 390 585 390 585 346.5 566.5 c 128,-1,44
 303 548 303 548 267 517 c 128,-1,45
 231 486 231 486 205.5 445.5 c 128,-1,46
 180 405 180 405 171 361 c 0,47,48
 161 315 161 315 169 274.5 c 128,-1,49
 177 234 177 234 199.5 203 c 128,-1,50
 222 172 222 172 258.5 154.5 c 128,-1,51
 295 137 295 137 339 137 c 0,33,34
EndSplineSet
EndChar
StartChar: yen
Encoding: 165 165 104
Width: 623
VWidth: 1473
Flags: W
HStem: 0 21G<239 309.28> 243 47<124 290 365 530> 389 47<140 255 473 576> 696 20G<150 227.099 619.662 704>
Fore
576 389 m 1,0,-1
 439 389 l 1,1,-1
 368 303 l 1,2,-1
 365 290 l 1,3,-1
 539 290 l 1,4,-1
 530 243 l 1,5,-1
 357 243 l 1,6,-1
 305 0 l 1,7,-1
 239 0 l 1,8,-1
 290 243 l 1,9,-1
 115 243 l 1,10,-1
 124 290 l 1,11,-1
 299 290 l 1,12,-1
 302 303 l 1,13,-1
 271 389 l 1,14,-1
 131 389 l 1,15,-1
 140 436 l 1,16,-1
 255 436 l 1,17,-1
 150 716 l 1,18,-1
 220 716 l 1,19,-1
 346 361 l 1,20,-1
 636 716 l 1,21,-1
 704 716 l 1,22,-1
 473 436 l 1,23,-1
 585 436 l 1,24,-1
 576 389 l 1,0,-1
EndSplineSet
EndChar
StartChar: brokenbar
Encoding: 166 166 105
Width: 248
VWidth: 1473
Flags: W
HStem: -12 21G<91 156.204>
VStem: 91 238<-12 821 210.009 518.528>
Fore
158 302 m 1,0,-1
 218 302 l 1,1,-1
 152 -12 l 1,2,-1
 91 -12 l 1,3,-1
 158 302 l 1,0,-1
268 821 m 1,4,-1
 329 821 l 1,5,-1
 262 507 l 1,6,-1
 202 507 l 1,7,-1
 268 821 l 1,4,-1
EndSplineSet
EndChar
StartChar: section
Encoding: 167 167 106
Width: 539
VWidth: 1473
Flags: W
HStem: -90 49<176.864 294.678> 448 35<244.843 305> 586 21G<523 564.714> 675 50<349.612 489.786>
VStem: 88 491<15 614 15 15>
Fore
529 586 m 1,0,1
 517 628 517 628 492 651.5 c 128,-1,2
 467 675 467 675 420 675 c 0,3,4
 382 675 382 675 354.5 661 c 128,-1,5
 327 647 327 647 317 600 c 0,6,7
 311 576 311 576 327 553 c 128,-1,8
 343 530 343 530 368 506.5 c 128,-1,9
 393 483 393 483 423.5 457.5 c 128,-1,10
 454 432 454 432 479 402.5 c 128,-1,11
 504 373 504 373 517 339 c 128,-1,12
 530 305 530 305 522 265 c 0,13,14
 510 208 510 208 468.5 180 c 128,-1,15
 427 152 427 152 374 147 c 1,16,17
 393 118 393 118 405.5 93 c 128,-1,18
 418 68 418 68 411 28 c 0,19,20
 404 -6 404 -6 385.5 -28 c 128,-1,21
 367 -50 367 -50 342.5 -64 c 128,-1,22
 318 -78 318 -78 288.5 -84 c 128,-1,23
 259 -90 259 -90 230 -90 c 0,24,25
 178 -90 178 -90 138.5 -61 c 128,-1,26
 99 -32 99 -32 88 15 c 1,27,-1
 140 44 l 1,28,29
 147 9 147 9 173.5 -16 c 128,-1,30
 200 -41 200 -41 240 -41 c 0,31,32
 287 -41 287 -41 316.5 -24 c 128,-1,33
 346 -7 346 -7 357 35 c 0,34,35
 361 56 361 56 345.5 79 c 128,-1,36
 330 102 330 102 305 128.5 c 128,-1,37
 280 155 280 155 250.5 183.5 c 128,-1,38
 221 212 221 212 196.5 243.5 c 128,-1,39
 172 275 172 275 159 308.5 c 128,-1,40
 146 342 146 342 153 377 c 0,41,42
 165 432 165 432 207.5 457.5 c 128,-1,43
 250 483 250 483 305 483 c 1,44,-1
 309 486 l 1,45,46
 284 507 284 507 268.5 535.5 c 128,-1,47
 253 564 253 564 262 608 c 0,48,49
 274 666 274 666 322 695.5 c 128,-1,50
 370 725 370 725 436 725 c 0,51,52
 494 725 494 725 530 695.5 c 128,-1,53
 566 666 566 666 579 614 c 1,54,-1
 529 586 l 1,0,1
296 448 m 256,55,56
 271 448 271 448 244 429.5 c 128,-1,57
 217 411 217 411 211 382 c 0,58,59
 205 354 205 354 222 319 c 128,-1,60
 239 284 239 284 266 254 c 128,-1,61
 293 224 293 224 322.5 203.5 c 128,-1,62
 352 183 352 183 371 183 c 0,63,64
 407 183 407 183 432 205.5 c 128,-1,65
 457 228 457 228 464 262 c 0,66,67
 470 287 470 287 454 319 c 128,-1,68
 438 351 438 351 411.5 379.5 c 128,-1,69
 385 408 385 408 353 428 c 128,-1,70
 321 448 321 448 296 448 c 256,55,56
EndSplineSet
EndChar
StartChar: dieresis
Encoding: 168 168 107
Width: 248
VWidth: 1473
Flags: W
HStem: 659 106<162 214 337 389 140 411 162 162>
Fore
236 765 m 1,0,-1
 214 659 l 1,1,-1
 140 659 l 1,2,-1
 162 765 l 1,3,-1
 236 765 l 1,0,-1
411 765 m 1,4,-1
 389 659 l 1,5,-1
 315 659 l 1,6,-1
 337 765 l 1,7,-1
 411 765 l 1,4,-1
EndSplineSet
EndChar
StartChar: copyright
Encoding: 169 169 108
Width: 895
VWidth: 1473
Flags: W
HStem: -10 50<293.332 522.339> 125 50<376.758 524.211> 541 50<441.962 593.598> 676 50<421.086 649.829>
VStem: 631 53<436 503.075>
Fore
550 726 m 256,0,1
 626 726 626 726 686.5 696.5 c 128,-1,2
 747 667 747 667 786.5 617 c 128,-1,3
 826 567 826 567 841 500 c 128,-1,4
 856 433 856 433 840 358 c 256,5,6
 824 283 824 283 781 216 c 128,-1,7
 738 149 738 149 677 99 c 128,-1,8
 616 49 616 49 543 19.5 c 128,-1,9
 470 -10 470 -10 393 -10 c 256,10,11
 317 -10 317 -10 256.5 19.5 c 128,-1,12
 196 49 196 49 156 99 c 128,-1,13
 116 149 116 149 101.5 216 c 128,-1,14
 87 283 87 283 103 358 c 256,15,16
 119 433 119 433 162 500 c 128,-1,17
 205 567 205 567 266 617 c 128,-1,18
 327 667 327 667 400 696.5 c 128,-1,19
 473 726 473 726 550 726 c 256,0,1
404 40 m 256,20,21
 470 40 470 40 532 65 c 128,-1,22
 594 90 594 90 644.5 132.5 c 128,-1,23
 695 175 695 175 731.5 233.5 c 128,-1,24
 768 292 768 292 781 358 c 0,25,26
 796 424 796 424 784.5 482.5 c 128,-1,27
 773 541 773 541 741 583.5 c 128,-1,28
 709 626 709 626 657 651 c 128,-1,29
 605 676 605 676 539 676 c 256,30,31
 473 676 473 676 412 651 c 128,-1,32
 351 626 351 626 300 583.5 c 128,-1,33
 249 541 249 541 213 482.5 c 128,-1,34
 177 424 177 424 162 358 c 0,35,36
 149 292 149 292 160 233.5 c 128,-1,37
 171 175 171 175 203.5 132.5 c 128,-1,38
 236 90 236 90 286.5 65 c 128,-1,39
 337 40 337 40 404 40 c 256,20,21
651 283 m 1,40,41
 622 212 622 212 563.5 168.5 c 128,-1,42
 505 125 505 125 435 125 c 0,43,44
 383 125 383 125 345.5 143 c 128,-1,45
 308 161 308 161 286 192.5 c 128,-1,46
 264 224 264 224 257 266.5 c 128,-1,47
 250 309 250 309 261 359 c 256,48,49
 271 410 271 410 295.5 452 c 128,-1,50
 320 494 320 494 354.5 524.5 c 128,-1,51
 389 555 389 555 433 573 c 128,-1,52
 477 591 477 591 529 591 c 0,53,54
 603 591 603 591 647 551 c 128,-1,55
 691 511 691 511 684 436 c 1,56,-1
 631 436 l 1,57,58
 632 479 632 479 604 510 c 128,-1,59
 576 541 576 541 520 541 c 0,60,61
 482 541 482 541 448.5 527 c 128,-1,62
 415 513 415 513 388.5 488 c 128,-1,63
 362 463 362 463 344.5 430.5 c 128,-1,64
 327 398 327 398 318 359 c 0,65,66
 311 324 311 324 316 290 c 128,-1,67
 321 256 321 256 337.5 231 c 128,-1,68
 354 206 354 206 381 190.5 c 128,-1,69
 408 175 408 175 445 175 c 0,70,71
 498 175 498 175 539 206 c 128,-1,72
 580 237 580 237 598 283 c 1,73,-1
 651 283 l 1,40,41
EndSplineSet
EndChar
StartChar: ordfeminine
Encoding: 170 170 109
Width: 335
VWidth: 1473
Flags: W
HStem: 460 44<191.968 261.848> 719 21G<192.783 231.5> 775 46<266.761 389.124>
VStem: 131 317<550 713 521.364 583.314>
Fore
189 742 m 1,0,1
 222 785 222 785 260 803 c 128,-1,2
 298 821 298 821 351 821 c 0,3,4
 414 821 414 821 437 795 c 128,-1,5
 460 769 460 769 448 713 c 2,6,-1
 411 538 l 2,7,8
 405 513 405 513 403.5 499 c 128,-1,9
 402 485 402 485 404 466 c 1,10,-1
 354 466 l 1,11,-1
 357 508 l 1,12,13
 323 483 323 483 291 471.5 c 128,-1,14
 259 460 259 460 217 460 c 0,15,16
 171 460 171 460 146 483.5 c 128,-1,17
 121 507 121 507 131 550 c 0,18,19
 140 594 140 594 171 619.5 c 128,-1,20
 202 645 202 645 241 660 c 128,-1,21
 280 675 280 675 320.5 682 c 128,-1,22
 361 689 361 689 389 697 c 1,23,-1
 395 725 l 2,24,25
 399 747 399 747 387.5 761 c 128,-1,26
 376 775 376 775 334 775 c 0,27,28
 298 775 298 775 271.5 761.5 c 128,-1,29
 245 748 245 748 218 719 c 1,30,-1
 189 742 l 1,0,1
379 650 m 1,31,32
 359 644 359 644 329 637.5 c 128,-1,33
 299 631 299 631 269 619.5 c 128,-1,34
 239 608 239 608 216 592 c 128,-1,35
 193 576 193 576 187 551 c 0,36,37
 183 530 183 530 194.5 517 c 128,-1,38
 206 504 206 504 233 504 c 0,39,40
 262 504 262 504 298 518 c 128,-1,41
 334 532 334 532 359 555 c 1,42,-1
 379 650 l 1,31,32
EndSplineSet
EndChar
StartChar: guillemotleft
Encoding: 171 171 110
Width: 559
VWidth: 1473
Flags: W
HStem: 119 344<492 492 492 492>
VStem: 155 409<295 463 295 295>
Fore
389 295 m 1,0,-1
 492 119 l 1,1,-1
 420 119 l 1,2,-1
 320 295 l 1,3,-1
 492 463 l 1,4,-1
 564 463 l 1,5,-1
 389 295 l 1,0,-1
224 295 m 1,6,-1
 326 119 l 1,7,-1
 252 119 l 1,8,-1
 155 295 l 1,9,-1
 324 463 l 1,10,-1
 398 463 l 1,11,-1
 224 295 l 1,6,-1
EndSplineSet
EndChar
StartChar: logicalnot
Encoding: 172 172 111
Width: 671
VWidth: 1473
Flags: W
HStem: 314 62<124 633>
Fore
633 314 m 1,0,-1
 110 314 l 1,1,-1
 124 376 l 1,2,-1
 707 376 l 1,3,-1
 653 119 l 1,4,-1
 592 119 l 1,5,-1
 633 314 l 1,0,-1
EndSplineSet
EndChar
StartChar: registered
Encoding: 174 174 112
Width: 895
VWidth: 1473
Flags: W
HStem: -10 50<293.332 522.339> 334 49<401 474> 527 49<432 559.5> 676 50<421.086 649.829>
Fore
348 138 m 1,0,-1
 289 138 l 1,1,-1
 383 576 l 1,2,-1
 550 576 l 2,3,4
 625 576 625 576 650.5 545 c 128,-1,5
 676 514 676 514 664 455 c 0,6,7
 659 427 659 427 645.5 406 c 128,-1,8
 632 385 632 385 614.5 370 c 128,-1,9
 597 355 597 355 577.5 347 c 128,-1,10
 558 339 558 339 539 334 c 1,11,-1
 617 138 l 1,12,-1
 551 138 l 1,13,-1
 474 334 l 1,14,-1
 390 334 l 1,15,-1
 348 138 l 1,0,-1
468 383 m 2,16,17
 491 383 491 383 512 384 c 128,-1,18
 533 385 533 385 551.5 391.5 c 128,-1,19
 570 398 570 398 584 413.5 c 128,-1,20
 598 429 598 429 604 457 c 0,21,22
 608 479 608 479 603 493 c 128,-1,23
 598 507 598 507 587 515 c 128,-1,24
 576 523 576 523 560 525 c 128,-1,25
 544 527 544 527 526 527 c 2,26,-1
 432 527 l 1,27,-1
 401 383 l 1,28,-1
 468 383 l 2,16,17
550 726 m 256,29,30
 626 726 626 726 686.5 696.5 c 128,-1,31
 747 667 747 667 786.5 617 c 128,-1,32
 826 567 826 567 841 500 c 128,-1,33
 856 433 856 433 840 358 c 256,34,35
 824 283 824 283 781 216 c 128,-1,36
 738 149 738 149 677 99 c 128,-1,37
 616 49 616 49 543 19.5 c 128,-1,38
 470 -10 470 -10 393 -10 c 256,39,40
 317 -10 317 -10 256.5 19.5 c 128,-1,41
 196 49 196 49 156 99 c 128,-1,42
 116 149 116 149 101.5 216 c 128,-1,43
 87 283 87 283 103 358 c 256,44,45
 119 433 119 433 162 500 c 128,-1,46
 205 567 205 567 266 617 c 128,-1,47
 327 667 327 667 400 696.5 c 128,-1,48
 473 726 473 726 550 726 c 256,29,30
404 40 m 256,49,50
 470 40 470 40 532 65 c 128,-1,51
 594 90 594 90 644.5 132.5 c 128,-1,52
 695 175 695 175 731.5 233.5 c 128,-1,53
 768 292 768 292 781 358 c 0,54,55
 796 424 796 424 784.5 482.5 c 128,-1,56
 773 541 773 541 741 583.5 c 128,-1,57
 709 626 709 626 657 651 c 128,-1,58
 605 676 605 676 539 676 c 256,59,60
 473 676 473 676 412 651 c 128,-1,61
 351 626 351 626 300 583.5 c 128,-1,62
 249 541 249 541 213 482.5 c 128,-1,63
 177 424 177 424 162 358 c 0,64,65
 149 292 149 292 160 233.5 c 128,-1,66
 171 175 171 175 203.5 132.5 c 128,-1,67
 236 90 236 90 286.5 65 c 128,-1,68
 337 40 337 40 404 40 c 256,49,50
EndSplineSet
EndChar
StartChar: macron
Encoding: 175 175 113
Width: 248
VWidth: 1473
Flags: W
HStem: 691 50<113 436 103 446 113 113>
Fore
113 741 m 1,0,-1
 446 741 l 1,1,-1
 436 691 l 1,2,-1
 103 691 l 1,3,-1
 113 741 l 1,0,-1
EndSplineSet
EndChar
StartChar: degree
Encoding: 176 176 114
Width: 447
VWidth: 1473
Flags: W
HStem: 492 49<274.836 402.741> 772 49<322.501 451.965>
VStem: 199 328.5<691 691 657 720.5 657 657>
Fore
387 772 m 256,0,1
 337 772 337 772 299.5 739 c 128,-1,2
 262 706 262 706 250 657 c 0,3,4
 240 607 240 607 264.5 574 c 128,-1,5
 289 541 289 541 339 541 c 256,6,7
 389 541 389 541 426.5 574 c 128,-1,8
 464 607 464 607 474 657 c 0,9,10
 486 706 486 706 462 739 c 128,-1,11
 438 772 438 772 387 772 c 256,0,1
398 821 m 256,12,13
 433 821 433 821 459.5 807.5 c 128,-1,14
 486 794 486 794 504 772 c 128,-1,15
 522 750 522 750 527.5 720.5 c 128,-1,16
 533 691 533 691 526 657 c 256,17,18
 519 623 519 623 499.5 593 c 128,-1,19
 480 563 480 563 453.5 541 c 128,-1,20
 427 519 427 519 394.5 505.5 c 128,-1,21
 362 492 362 492 327 492 c 0,22,23
 256 492 256 492 220 540 c 128,-1,24
 184 588 184 588 199 657 c 0,25,26
 206 691 206 691 225.5 720.5 c 128,-1,27
 245 750 245 750 271.5 772 c 128,-1,28
 298 794 298 794 330 807.5 c 128,-1,29
 362 821 362 821 398 821 c 256,12,13
EndSplineSet
EndChar
StartChar: plusminus
Encoding: 177 177 115
Width: 671
VWidth: 1473
Flags: W
HStem: 0 60<56 628> 315 61<124 371 446 694> 562 20G<422.922 489>
Fore
427 582 m 1,0,-1
 489 582 l 1,1,-1
 446 376 l 1,2,-1
 707 376 l 1,3,-1
 694 315 l 1,4,-1
 433 315 l 1,5,-1
 389 108 l 1,6,-1
 327 108 l 1,7,-1
 371 315 l 1,8,-1
 110 315 l 1,9,-1
 124 376 l 1,10,-1
 385 376 l 1,11,-1
 427 582 l 1,0,-1
56 60 m 1,12,-1
 639 60 l 1,13,-1
 628 0 l 1,14,-1
 44 0 l 1,15,-1
 56 60 l 1,12,-1
EndSplineSet
EndChar
StartChar: twosuperior
Encoding: 178 178 116
Width: 340
VWidth: 1473
Flags: W
HStem: 289 45<143 377> 595 21G<155 209.5> 682 44<252.736 384.004>
VStem: 82 363<289 597 289 289>
Fore
155 603 m 1,0,1
 180 661 180 661 227 693.5 c 128,-1,2
 274 726 274 726 336 726 c 256,3,4
 398 726 398 726 427.5 692.5 c 128,-1,5
 457 659 457 659 445 597 c 0,6,7
 439 566 439 566 421.5 544 c 128,-1,8
 404 522 404 522 380.5 503.5 c 128,-1,9
 357 485 357 485 329 468.5 c 128,-1,10
 301 452 301 452 273 435 c 0,11,12
 209 393 209 393 179 372 c 128,-1,13
 149 351 149 351 143 334 c 1,14,-1
 387 334 l 1,15,-1
 377 289 l 1,16,-1
 82 289 l 1,17,-1
 90 323 l 2,18,19
 93 336 93 336 99 348.5 c 128,-1,20
 105 361 105 361 121 377 c 128,-1,21
 137 393 137 393 165 414 c 128,-1,22
 193 435 193 435 240 463 c 0,23,24
 284 489 284 489 313 508 c 128,-1,25
 342 527 342 527 358 542.5 c 128,-1,26
 374 558 374 558 382 572 c 128,-1,27
 390 586 390 586 393 601 c 0,28,29
 401 638 401 638 384.5 660 c 128,-1,30
 368 682 368 682 330 682 c 0,31,32
 286 682 286 682 253 661.5 c 128,-1,33
 220 641 220 641 199 595 c 1,34,-1
 155 603 l 1,0,1
EndSplineSet
EndChar
StartChar: threesuperior
Encoding: 179 179 117
Width: 359
VWidth: 1473
Flags: W
HStem: 284 43<175.426 332.201> 495 44<231 353.117> 682 44<273.357 377.672>
VStem: 100 354<368 620 368 368>
Fore
143 392 m 1,0,1
 158 354 158 354 180.5 340.5 c 128,-1,2
 203 327 203 327 250 327 c 0,3,4
 302 327 302 327 333 349 c 128,-1,5
 364 371 364 371 373 410 c 0,6,7
 382 455 382 455 354 475 c 128,-1,8
 326 495 326 495 265 495 c 2,9,-1
 222 495 l 1,10,-1
 231 539 l 1,11,-1
 267 539 l 2,12,13
 323 539 323 539 357.5 557 c 128,-1,14
 392 575 392 575 402 617 c 0,15,16
 408 647 408 647 386 664.5 c 128,-1,17
 364 682 364 682 330 682 c 0,18,19
 292 682 292 682 268.5 673 c 128,-1,20
 245 664 245 664 215 632 c 1,21,-1
 183 656 l 1,22,23
 220 694 220 694 256.5 710 c 128,-1,24
 293 726 293 726 336 726 c 0,25,26
 362 726 362 726 386 719.5 c 128,-1,27
 410 713 410 713 426.5 700 c 128,-1,28
 443 687 443 687 451.5 667 c 128,-1,29
 460 647 460 647 454 620 c 0,30,31
 446 583 446 583 428.5 559 c 128,-1,32
 411 535 411 535 365 519 c 1,33,34
 402 507 402 507 417.5 481 c 128,-1,35
 433 455 433 455 424 410 c 0,36,37
 410 342 410 342 359 313 c 128,-1,38
 308 284 308 284 239 284 c 0,39,40
 183 284 183 284 146 305 c 128,-1,41
 109 326 109 326 100 368 c 1,42,-1
 143 392 l 1,0,1
EndSplineSet
EndChar
StartChar: acute
Encoding: 180 180 118
Width: 248
VWidth: 1473
Flags: W
HStem: 647 154<247 435 435 435>
Fore
435 801 m 1,0,-1
 247 647 l 1,1,-1
 190 647 l 1,2,-1
 348 801 l 1,3,-1
 435 801 l 1,0,-1
EndSplineSet
EndChar
StartChar: mu
Encoding: 181 181 119
Width: 623
VWidth: 1473
Flags: W
HStem: -206 21G<49 119.253> -12 55<212.308 342.753> 562 20G<210.787 281 580.785 653>
Fore
653 582 m 1,0,-1
 530 0 l 1,1,-1
 463 0 l 1,2,-1
 482 93 l 1,3,4
 424 43 424 43 375.5 15.5 c 128,-1,5
 327 -12 327 -12 262 -12 c 0,6,7
 193 -12 193 -12 162 15 c 1,8,-1
 115 -206 l 1,9,-1
 49 -206 l 1,10,-1
 215 582 l 1,11,-1
 281 582 l 1,12,-1
 199 192 l 2,13,14
 183 119 183 119 200.5 81 c 128,-1,15
 218 43 218 43 286 43 c 0,16,17
 314 43 314 43 337.5 51 c 128,-1,18
 361 59 361 59 385.5 73.5 c 128,-1,19
 410 88 410 88 436.5 109 c 128,-1,20
 463 130 463 130 495 155 c 1,21,-1
 585 582 l 1,22,-1
 653 582 l 1,0,-1
EndSplineSet
EndChar
StartChar: paragraph
Encoding: 182 182 120
Width: 559
VWidth: 1473
Flags: W
HStem: 759 50<466 583 639 723>
Fore
329 377 m 1,0,1
 280 377 280 377 241.5 394 c 128,-1,2
 203 411 203 411 178 439.5 c 128,-1,3
 153 468 153 468 143.5 506.5 c 128,-1,4
 134 545 134 545 143 589 c 0,5,6
 165 695 165 695 242.5 752 c 128,-1,7
 320 809 320 809 438 809 c 2,8,-1
 734 809 l 1,9,-1
 723 759 l 1,10,-1
 639 759 l 1,11,-1
 460 -90 l 1,12,-1
 404 -90 l 1,13,-1
 583 759 l 1,14,-1
 466 759 l 1,15,-1
 286 -90 l 1,16,-1
 230 -90 l 1,17,-1
 329 377 l 1,0,1
EndSplineSet
EndChar
StartChar: periodcentered
Encoding: 183 183 121
Width: 310
VWidth: 1473
Flags: W
HStem: 236 112<187.172 246.375>
VStem: 161 112<267.928 334.661>
Fore
228 348 m 0,0,1
 250 348 250 348 263.5 331.5 c 128,-1,2
 277 315 277 315 273 292 c 0,3,4
 267 268 267 268 247 252 c 128,-1,5
 227 236 227 236 205 236 c 0,6,7
 184 236 184 236 169.5 252 c 128,-1,8
 155 268 155 268 161 292 c 0,9,10
 165 315 165 315 186.5 331.5 c 128,-1,11
 208 348 208 348 228 348 c 0,0,1
EndSplineSet
EndChar
StartChar: cedilla
Encoding: 184 184 122
Width: 248
VWidth: 1473
Flags: W
HStem: -233 233<57 106 106 106> -233 46<16.4656 84.2446>
VStem: -44 237<-211 -146 -211 -211>
Fore
-21 -171 m 1,0,1
 -7 -175 -7 -175 10.5 -181 c 128,-1,2
 28 -187 28 -187 41 -187 c 0,3,4
 80 -187 80 -187 99 -177.5 c 128,-1,5
 118 -168 118 -168 124 -143 c 256,6,7
 130 -118 130 -118 116 -107.5 c 128,-1,8
 102 -97 102 -97 82 -97 c 0,9,10
 55 -97 55 -97 32 -106 c 1,11,-1
 19 -93 l 1,12,-1
 106 0 l 1,13,-1
 149 0 l 1,14,-1
 87 -56 l 1,15,-1
 90 -59 l 1,16,17
 102 -52 102 -52 125 -52 c 0,18,19
 166 -52 166 -52 184.5 -77 c 128,-1,20
 203 -102 203 -102 193 -146 c 0,21,22
 189 -168 189 -168 174 -184 c 128,-1,23
 159 -200 159 -200 139 -211 c 128,-1,24
 119 -222 119 -222 97 -227.5 c 128,-1,25
 75 -233 75 -233 57 -233 c 0,26,27
 29 -233 29 -233 3.5 -227.5 c 128,-1,28
 -22 -222 -22 -222 -44 -211 c 1,29,-1
 -21 -171 l 1,0,1
EndSplineSet
EndChar
StartChar: onesuperior
Encoding: 185 185 123
Width: 387
VWidth: 1473
Flags: W
HStem: 289 437<159 336 460 526> 289 45<169 242 293 359>
Fore
159 289 m 1,0,-1
 169 334 l 1,1,-1
 242 334 l 1,2,-1
 314 676 l 1,3,-1
 227 657 l 1,4,-1
 234 692 l 1,5,-1
 336 726 l 1,6,-1
 376 726 l 1,7,-1
 293 334 l 1,8,-1
 370 334 l 1,9,-1
 359 289 l 1,10,-1
 159 289 l 1,0,-1
EndSplineSet
EndChar
StartChar: ordmasculine
Encoding: 186 186 124
Width: 304
VWidth: 1473
Flags: W
HStem: 407 45<193.652 309.259> 681 45<235.455 352.248>
VStem: 128 288<506 626.5 506 506>
Fore
189 566 m 256,0,1
 177 510 177 510 189.5 481 c 128,-1,2
 202 452 202 452 249 452 c 256,3,4
 296 452 296 452 319.5 481 c 128,-1,5
 343 510 343 510 355 566 c 256,6,7
 367 622 367 622 356 651.5 c 128,-1,8
 345 681 345 681 298 681 c 256,9,10
 250 681 250 681 225 651.5 c 128,-1,11
 200 622 200 622 189 566 c 256,0,1
306 726 m 256,12,13
 346 726 346 726 369.5 713 c 128,-1,14
 393 700 393 700 404 678 c 128,-1,15
 415 656 415 656 416 626.5 c 128,-1,16
 417 597 417 597 410 566 c 0,17,18
 404 535 404 535 390.5 506 c 128,-1,19
 377 477 377 477 356.5 455 c 128,-1,20
 336 433 336 433 307 420 c 128,-1,21
 278 407 278 407 239 407 c 256,22,23
 199 407 199 407 175.5 420 c 128,-1,24
 152 433 152 433 140 455 c 128,-1,25
 128 477 128 477 128 506 c 128,-1,26
 128 535 128 535 134 566 c 0,27,28
 141 597 141 597 153.5 626.5 c 128,-1,29
 166 656 166 656 187 678 c 128,-1,30
 208 700 208 700 237.5 713 c 128,-1,31
 267 726 267 726 306 726 c 256,12,13
EndSplineSet
EndChar
StartChar: guillemotright
Encoding: 187 187 125
Width: 559
VWidth: 1473
Flags: W
HStem: 119 344<190 190 190 190>
VStem: 118 409<119 289 119 119>
Fore
293 289 m 1,0,-1
 190 463 l 1,1,-1
 262 463 l 1,2,-1
 362 289 l 1,3,-1
 190 119 l 1,4,-1
 118 119 l 1,5,-1
 293 289 l 1,0,-1
458 289 m 1,6,-1
 357 463 l 1,7,-1
 430 463 l 1,8,-1
 527 289 l 1,9,-1
 358 119 l 1,10,-1
 284 119 l 1,11,-1
 458 289 l 1,6,-1
EndSplineSet
EndChar
StartChar: onequarter
Encoding: 188 188 126
Width: 878
VWidth: 1473
Flags: W
HStem: 0 21G<178 252.168 667 724.078> 103 43<545 688 751 810> 289 45<168 240 293 358> 656 20G<227 307.789>
Fore
545 146 m 1,0,-1
 698 146 l 1,1,-1
 745 370 l 1,2,-1
 742 370 l 1,3,-1
 545 146 l 1,0,-1
492 152 m 1,4,-1
 745 430 l 1,5,-1
 812 430 l 1,6,-1
 751 146 l 1,7,-1
 821 146 l 1,8,-1
 810 103 l 1,9,-1
 741 103 l 1,10,-1
 720 0 l 1,11,-1
 667 0 l 1,12,-1
 688 103 l 1,13,-1
 482 103 l 1,14,-1
 492 152 l 1,4,-1
158 289 m 1,15,-1
 168 334 l 1,16,-1
 240 334 l 1,17,-1
 312 676 l 1,18,-1
 227 657 l 1,19,-1
 234 692 l 1,20,-1
 334 726 l 1,21,-1
 376 726 l 1,22,-1
 293 334 l 1,23,-1
 368 334 l 1,24,-1
 358 289 l 1,25,-1
 158 289 l 1,15,-1
773 726 m 1,26,-1
 831 726 l 1,27,-1
 236 -10 l 1,28,-1
 178 -10 l 1,29,-1
 773 726 l 1,26,-1
EndSplineSet
Ligature2: "'frac' Diagonal Fractions in Latin lookup 1 subtable" one fraction four
Ligature2: "'frac' Diagonal Fractions in Latin lookup 1 subtable" one slash four
EndChar
StartChar: onehalf
Encoding: 189 189 127
Width: 873
VWidth: 1473
Flags: W
HStem: 0 43<550 784> 289 45<168 240 293 358> 392 44<657.656 787.511> 656 20G<227 307.789>
Fore
158 289 m 1,0,-1
 168 334 l 1,1,-1
 240 334 l 1,2,-1
 312 676 l 1,3,-1
 227 657 l 1,4,-1
 234 692 l 1,5,-1
 334 726 l 1,6,-1
 376 726 l 1,7,-1
 293 334 l 1,8,-1
 368 334 l 1,9,-1
 358 289 l 1,10,-1
 158 289 l 1,0,-1
561 312 m 1,11,12
 585 371 585 371 633 403.5 c 128,-1,13
 681 436 681 436 742 436 c 256,14,15
 804 436 804 436 833.5 403 c 128,-1,16
 863 370 863 370 850 308 c 0,17,18
 844 277 844 277 826.5 254 c 128,-1,19
 809 231 809 231 785.5 212.5 c 128,-1,20
 762 194 762 194 734 178 c 128,-1,21
 706 162 706 162 678 144 c 0,22,23
 616 105 616 105 585 82.5 c 128,-1,24
 554 60 554 60 550 43 c 1,25,-1
 793 43 l 1,26,-1
 784 0 l 1,27,-1
 489 0 l 1,28,-1
 495 32 l 2,29,30
 498 46 498 46 504.5 58.5 c 128,-1,31
 511 71 511 71 526.5 87 c 128,-1,32
 542 103 542 103 571 124.5 c 128,-1,33
 600 146 600 146 647 175 c 0,34,35
 691 200 691 200 719 219.5 c 128,-1,36
 747 239 747 239 764 254.5 c 128,-1,37
 781 270 781 270 787.5 283 c 128,-1,38
 794 296 794 296 797 311 c 0,39,40
 804 348 804 348 788.5 370 c 128,-1,41
 773 392 773 392 737 392 c 0,42,43
 644 392 644 392 605 306 c 1,44,-1
 561 312 l 1,11,12
762 726 m 1,45,-1
 818 726 l 1,46,-1
 224 -10 l 1,47,-1
 165 -10 l 1,48,-1
 762 726 l 1,45,-1
EndSplineSet
Ligature2: "'frac' Diagonal Fractions in Latin lookup 1 subtable" one fraction two
Ligature2: "'frac' Diagonal Fractions in Latin lookup 1 subtable" one slash two
EndChar
StartChar: threequarters
Encoding: 190 190 128
Width: 876
VWidth: 1473
Flags: W
HStem: 0 21G<193 268.087 666 723.078> 103 43<544 687 750 809> 284 43<183.367 339.645> 495 44<240 360.602> 682 44<281.748 387.155>
Fore
544 146 m 1,0,-1
 697 146 l 1,1,-1
 744 370 l 1,2,-1
 741 370 l 1,3,-1
 544 146 l 1,0,-1
491 152 m 1,4,-1
 744 430 l 1,5,-1
 810 430 l 1,6,-1
 750 146 l 1,7,-1
 819 146 l 1,8,-1
 809 103 l 1,9,-1
 740 103 l 1,10,-1
 719 0 l 1,11,-1
 666 0 l 1,12,-1
 687 103 l 1,13,-1
 480 103 l 1,14,-1
 491 152 l 1,4,-1
153 392 m 1,15,16
 165 354 165 354 188.5 340.5 c 128,-1,17
 212 327 212 327 256 327 c 0,18,19
 309 327 309 327 341 349 c 128,-1,20
 373 371 373 371 382 410 c 0,21,22
 390 455 390 455 361.5 475 c 128,-1,23
 333 495 333 495 274 495 c 2,24,-1
 231 495 l 1,25,-1
 240 539 l 1,26,-1
 275 539 l 2,27,28
 331 539 331 539 366 557 c 128,-1,29
 401 575 401 575 411 617 c 0,30,31
 417 647 417 647 395.5 664.5 c 128,-1,32
 374 682 374 682 340 682 c 0,33,34
 301 682 301 682 276.5 673 c 128,-1,35
 252 664 252 664 221 632 c 1,36,-1
 190 656 l 1,37,38
 228 694 228 694 264.5 710 c 128,-1,39
 301 726 301 726 343 726 c 0,40,41
 370 726 370 726 394 719.5 c 128,-1,42
 418 713 418 713 435 700 c 128,-1,43
 452 687 452 687 460 667 c 128,-1,44
 468 647 468 647 463 620 c 0,45,46
 455 583 455 583 437.5 559 c 128,-1,47
 420 535 420 535 374 519 c 1,48,49
 411 507 411 507 426.5 481 c 128,-1,50
 442 455 442 455 433 410 c 0,51,52
 418 342 418 342 367.5 313 c 128,-1,53
 317 284 317 284 247 284 c 0,54,55
 192 284 192 284 155.5 305 c 128,-1,56
 119 326 119 326 108 368 c 1,57,-1
 153 392 l 1,15,16
788 726 m 1,58,-1
 844 726 l 1,59,-1
 252 -10 l 1,60,-1
 193 -10 l 1,61,-1
 788 726 l 1,58,-1
EndSplineSet
Ligature2: "'frac' Diagonal Fractions in Latin lookup 1 subtable" three fraction four
Ligature2: "'frac' Diagonal Fractions in Latin lookup 1 subtable" three slash four
EndChar
StartChar: questiondown
Encoding: 191 191 129
Width: 434
VWidth: 1473
Flags: W
HStem: -239 62<113.648 233.776> 482 100<333 407>
VStem: 20.5 406.5<-134.5 582 -134.5 -134.5>
Fore
382 -99 m 1,0,1
 345 -162 345 -162 292 -200.5 c 128,-1,2
 239 -239 239 -239 166 -239 c 0,3,4
 131 -239 131 -239 100 -227 c 128,-1,5
 69 -215 69 -215 48.5 -192 c 128,-1,6
 28 -169 28 -169 20.5 -134.5 c 128,-1,7
 13 -100 13 -100 22 -55 c 0,8,9
 29 -18 29 -18 50 12.5 c 128,-1,10
 71 43 71 43 97.5 68.5 c 128,-1,11
 124 94 124 94 153.5 117.5 c 128,-1,12
 183 141 183 141 209.5 166.5 c 128,-1,13
 236 192 236 192 255.5 219.5 c 128,-1,14
 275 247 275 247 283 283 c 2,15,-1
 295 336 l 1,16,-1
 355 336 l 1,17,-1
 337 255 l 2,18,19
 329 212 329 212 293.5 175 c 128,-1,20
 258 138 258 138 217.5 101.5 c 128,-1,21
 177 65 177 65 140 23.5 c 128,-1,22
 103 -18 103 -18 91 -71 c 0,23,24
 81 -122 81 -122 107.5 -149.5 c 128,-1,25
 134 -177 134 -177 181 -177 c 0,26,27
 209 -177 209 -177 232 -167.5 c 128,-1,28
 255 -158 255 -158 273.5 -142.5 c 128,-1,29
 292 -127 292 -127 306.5 -107.5 c 128,-1,30
 321 -88 321 -88 331 -71 c 1,31,-1
 382 -99 l 1,0,1
427 582 m 1,32,-1
 407 482 l 1,33,-1
 312 482 l 1,34,-1
 333 582 l 1,35,-1
 427 582 l 1,32,-1
EndSplineSet
EndChar
StartChar: AE
Encoding: 198 198 136
Width: 956
VWidth: 1473
Flags: W
HStem: 0 62<591 922> 208 65<309 555> 351 61<666 956> 654 62<603 651 717 1065>
Fore
591 62 m 1,0,-1
 934 62 l 1,1,-1
 922 0 l 1,2,-1
 513 0 l 1,3,-1
 555 208 l 1,4,-1
 265 208 l 1,5,-1
 109 0 l 1,6,-1
 29 0 l 1,7,-1
 577 716 l 1,8,-1
 1078 716 l 1,9,-1
 1065 654 l 1,10,-1
 717 654 l 1,11,-1
 666 412 l 1,12,-1
 969 412 l 1,13,-1
 956 351 l 1,14,-1
 653 351 l 1,15,-1
 591 62 l 1,0,-1
570 273 m 1,16,-1
 651 656 l 1,17,-1
 603 656 l 1,18,-1
 309 273 l 1,19,-1
 570 273 l 1,16,-1
EndSplineSet
EndChar
StartChar: Eth
Encoding: 208 208 146
Width: 687
VWidth: 1473
Flags: W
HStem: 0 62<174 470.167> 334 59<53 159 245 455> 654 62<301 589.384>
VStem: 651.5 72<350.838 487.5 487.5 558.472>
Fore
41 334 m 1,0,-1
 53 393 l 1,1,-1
 171 393 l 1,2,-1
 240 716 l 1,3,-1
 507 716 l 2,4,5
 585 716 585 716 633 693 c 128,-1,6
 681 670 681 670 703 623.5 c 128,-1,7
 725 577 725 577 723.5 508 c 128,-1,8
 722 439 722 439 703 348 c 0,9,10
 685 262 685 262 658 196.5 c 128,-1,11
 631 131 631 131 589.5 87.5 c 128,-1,12
 548 44 548 44 490.5 22 c 128,-1,13
 433 0 433 0 355 0 c 2,14,-1
 88 0 l 1,15,-1
 159 334 l 1,16,-1
 41 334 l 1,0,-1
467 393 m 1,17,-1
 455 334 l 1,18,-1
 233 334 l 1,19,-1
 174 62 l 1,20,-1
 367 62 l 2,21,22
 429 62 429 62 471.5 79 c 128,-1,23
 514 96 514 96 544.5 130.5 c 128,-1,24
 575 165 575 165 594 219 c 128,-1,25
 613 273 613 273 629 348 c 0,26,27
 647 430 647 430 651.5 487.5 c 128,-1,28
 656 545 656 545 641 582.5 c 128,-1,29
 626 620 626 620 590.5 637 c 128,-1,30
 555 654 555 654 494 654 c 2,31,-1
 301 654 l 1,32,-1
 245 393 l 1,33,-1
 467 393 l 1,17,-1
EndSplineSet
EndChar
StartChar: multiply
Encoding: 215 215 153
Width: 573
VWidth: 1473
Flags: W
HStem: 565 20G<177.61 217.355 594.829 634.61>
Fore
398 336 m 1,0,-1
 563 127 l 1,1,-1
 513 85 l 1,2,-1
 348 295 l 1,3,-1
 96 85 l 1,4,-1
 63 127 l 1,5,-1
 317 336 l 1,6,-1
 152 544 l 1,7,-1
 202 585 l 1,8,-1
 364 374 l 1,9,-1
 619 585 l 1,10,-1
 651 544 l 1,11,-1
 398 336 l 1,0,-1
EndSplineSet
EndChar
StartChar: Oslash
Encoding: 216 216 154
Width: 695
VWidth: 1473
Flags: W
HStem: -9 69<250.787 470.533> 654 66<373.709 594.345>
VStem: 115.5 77<162.035 346.38> 653.5 74<436.008 497.5 497.5 592.838>
Fore
49 -88 m 1,0,-1
 -15 -88 l 1,1,-1
 137 93 l 1,2,3
 116 138 116 138 115.5 201.5 c 128,-1,4
 115 265 115 265 133 349 c 0,5,6
 171 533 171 533 256.5 626.5 c 128,-1,7
 342 720 342 720 499 720 c 0,8,9
 589 720 589 720 642 689 c 1,10,-1
 756 819 l 1,11,-1
 829 819 l 1,12,-1
 685 654 l 1,13,14
 723 607 723 607 727.5 531 c 128,-1,15
 732 455 732 455 710 349 c 0,16,17
 673 177 673 177 587.5 84 c 128,-1,18
 502 -9 502 -9 345 -9 c 0,19,20
 222 -9 222 -9 166 50 c 1,21,-1
 49 -88 l 1,0,-1
359 60 m 0,22,23
 421 60 421 60 466 77 c 128,-1,24
 511 94 511 94 543 129.5 c 128,-1,25
 575 165 575 165 596 219.5 c 128,-1,26
 617 274 617 274 633 349 c 0,27,28
 653 438 653 438 653.5 497.5 c 128,-1,29
 654 557 654 557 633 594 c 1,30,-1
 217 109 l 1,31,32
 256 60 256 60 359 60 c 0,22,23
486 654 m 0,33,34
 423 654 423 654 378.5 637 c 128,-1,35
 334 620 334 620 302 583.5 c 128,-1,36
 270 547 270 547 248.5 489.5 c 128,-1,37
 227 432 227 432 209 349 c 0,38,39
 196 289 196 289 192.5 241.5 c 128,-1,40
 189 194 189 194 196 161 c 1,41,-1
 595 632 l 1,42,43
 555 654 555 654 486 654 c 0,33,34
EndSplineSet
EndChar
StartChar: Thorn
Encoding: 222 222 160
Width: 655
VWidth: 1473
Flags: W
HStem: 0 21G<112 189.969> 131 61<225 482.871> 550 61<315 553.541> 696 20G<259.754 337>
VStem: 613 76<405.746 499.279>
Fore
186 0 m 1,0,-1
 112 0 l 1,1,-1
 264 716 l 1,2,-1
 337 716 l 1,3,-1
 315 611 l 1,4,-1
 485 611 l 2,5,6
 557 611 557 611 600.5 593 c 128,-1,7
 644 575 644 575 665.5 542.5 c 128,-1,8
 687 510 687 510 689 466.5 c 128,-1,9
 691 423 691 423 679 371 c 0,10,11
 669 321 669 321 648.5 277 c 128,-1,12
 628 233 628 233 592.5 200.5 c 128,-1,13
 557 168 557 168 505.5 149.5 c 128,-1,14
 454 131 454 131 382 131 c 2,15,-1
 212 131 l 1,16,-1
 186 0 l 1,0,-1
225 192 m 1,17,-1
 395 192 l 2,18,19
 448 192 448 192 484 205 c 128,-1,20
 520 218 520 218 543.5 241.5 c 128,-1,21
 567 265 567 265 581 298 c 128,-1,22
 595 331 595 331 604 371 c 256,23,24
 613 411 613 411 613 444 c 128,-1,25
 613 477 613 477 599 500 c 128,-1,26
 585 523 585 523 554.5 536.5 c 128,-1,27
 524 550 524 550 471 550 c 2,28,-1
 302 550 l 1,29,-1
 225 192 l 1,17,-1
EndSplineSet
EndChar
StartChar: germandbls
Encoding: 223 223 161
Width: 559
VWidth: 1473
Flags: W
HStem: -12 55<308.282 416.545> 404 53<351 446.156> 754 55<363.611 510.372>
Fore
85 0 m 1,0,-1
 212 597 l 2,1,2
 233 692 233 692 293.5 750.5 c 128,-1,3
 354 809 354 809 454 809 c 0,4,5
 496 809 496 809 528 793.5 c 128,-1,6
 560 778 560 778 580 751.5 c 128,-1,7
 600 725 600 725 605.5 688 c 128,-1,8
 611 651 611 651 603 608 c 0,9,10
 591 552 591 552 556.5 509 c 128,-1,11
 522 466 522 466 466 440 c 1,12,13
 536 417 536 417 562 361 c 128,-1,14
 588 305 588 305 572 225 c 0,15,16
 548 116 548 116 485.5 52 c 128,-1,17
 423 -12 423 -12 330 -12 c 0,18,19
 306 -12 306 -12 278 -4.5 c 128,-1,20
 250 3 250 3 234 15 c 1,21,-1
 268 65 l 1,22,23
 283 56 283 56 304.5 49.5 c 128,-1,24
 326 43 326 43 346 43 c 0,25,26
 404 43 404 43 445 89.5 c 128,-1,27
 486 136 486 136 504 217 c 0,28,29
 524 318 524 318 482 361 c 128,-1,30
 440 404 440 404 340 404 c 1,31,-1
 351 457 l 1,32,33
 424 460 424 460 471.5 493.5 c 128,-1,34
 519 527 519 527 536 611 c 0,35,36
 551 679 551 679 525 716.5 c 128,-1,37
 499 754 499 754 430 754 c 0,38,39
 395 754 395 754 370 741 c 128,-1,40
 345 728 345 728 326.5 706 c 128,-1,41
 308 684 308 684 297 656.5 c 128,-1,42
 286 629 286 629 280 601 c 2,43,-1
 153 0 l 1,44,-1
 85 0 l 1,0,-1
EndSplineSet
EndChar
StartChar: ae
Encoding: 230 230 168
Width: 917
VWidth: 1473
Flags: W
HStem: -12 55<149.515 282.072 567.064 743.191> 289 54<362.791 461 538 860> 541 53<294.774 473.068 661.149 818.046>
VStem: 461 65<224.328 292> 860 69.5<348.058 366.074 366.074 486.185>
Fore
526 289 m 1,0,1
 516 239 516 239 514.5 194.5 c 128,-1,2
 513 150 513 150 526 116 c 128,-1,3
 539 82 539 82 568 62.5 c 128,-1,4
 597 43 597 43 647 43 c 0,5,6
 703 43 703 43 748 67 c 128,-1,7
 793 91 793 91 840 159 c 1,8,-1
 888 131 l 1,9,10
 837 53 837 53 775 20.5 c 128,-1,11
 713 -12 713 -12 629 -12 c 0,12,13
 561 -12 561 -12 523 17 c 128,-1,14
 485 46 485 46 464 99 c 1,15,16
 432 71 432 71 400 50 c 128,-1,17
 368 29 368 29 335 15 c 128,-1,18
 302 1 302 1 265 -5.5 c 128,-1,19
 228 -12 228 -12 186 -12 c 0,20,21
 118 -12 118 -12 82 35 c 128,-1,22
 46 82 46 82 62 156 c 0,23,24
 75 215 75 215 106 252 c 128,-1,25
 137 289 137 289 188 309.5 c 128,-1,26
 239 330 239 330 310.5 338 c 128,-1,27
 382 346 382 346 474 346 c 1,28,-1
 492 423 l 2,29,30
 504 482 504 482 481 511.5 c 128,-1,31
 458 541 458 541 383 541 c 0,32,33
 331 541 331 541 282.5 513 c 128,-1,34
 234 485 234 485 190 435 c 1,35,-1
 144 463 l 1,36,37
 205 533 205 533 270.5 563.5 c 128,-1,38
 336 594 336 594 396 594 c 0,39,40
 470 594 470 594 507.5 566 c 128,-1,41
 545 538 545 538 554 489 c 1,42,43
 592 533 592 533 640.5 563.5 c 128,-1,44
 689 594 689 594 756 594 c 0,45,46
 815 594 815 594 853 572 c 128,-1,47
 891 550 891 550 909.5 509 c 128,-1,48
 928 468 928 468 929.5 412.5 c 128,-1,49
 931 357 931 357 916 289 c 1,50,-1
 526 289 l 1,0,1
461 292 m 1,51,52
 364 292 364 292 301.5 281 c 128,-1,53
 239 270 239 270 201.5 251.5 c 128,-1,54
 164 233 164 233 147 208.5 c 128,-1,55
 130 184 130 184 124 158 c 0,56,57
 113 109 113 109 138.5 76 c 128,-1,58
 164 43 164 43 209 43 c 0,59,60
 277 43 277 43 328.5 68.5 c 128,-1,61
 380 94 380 94 427 138 c 1,62,-1
 461 292 l 1,51,52
860 343 m 1,63,64
 865 387 865 387 863.5 424 c 128,-1,65
 862 461 862 461 850 487 c 128,-1,66
 838 513 838 513 812.5 527 c 128,-1,67
 787 541 787 541 742 541 c 256,68,69
 698 541 698 541 663.5 523 c 128,-1,70
 629 505 629 505 604 476.5 c 128,-1,71
 579 448 579 448 562 412.5 c 128,-1,72
 545 377 545 377 538 343 c 1,73,-1
 860 343 l 1,63,64
EndSplineSet
EndChar
StartChar: eth
Encoding: 240 240 178
Width: 559
VWidth: 1473
Flags: W
HStem: -12 55<204.427 382.16> 541 53<301.578 478.546> 789 20G<381.333 434.5 575.689 627.909>
Fore
395 541 m 256,0,1
 303 541 303 541 248.5 476 c 128,-1,2
 194 411 194 411 169 292 c 256,3,4
 144 172 144 172 170.5 107.5 c 128,-1,5
 197 43 197 43 289 43 c 256,6,7
 380 43 380 43 434.5 107.5 c 128,-1,8
 489 172 489 172 514 292 c 256,9,10
 539 411 539 411 512.5 476 c 128,-1,11
 486 541 486 541 395 541 c 256,0,1
426 809 m 1,12,13
 443 794 443 794 460 779.5 c 128,-1,14
 477 765 477 765 491 748 c 1,15,-1
 617 809 l 1,16,-1
 641 765 l 1,17,-1
 524 709 l 1,18,19
 558 663 558 663 575 611.5 c 128,-1,20
 592 560 592 560 597.5 507 c 128,-1,21
 603 454 603 454 597.5 399.5 c 128,-1,22
 592 345 592 345 580 292 c 0,23,24
 567 233 567 233 544.5 177.5 c 128,-1,25
 522 122 522 122 485 80 c 128,-1,26
 448 38 448 38 397 13 c 128,-1,27
 346 -12 346 -12 277 -12 c 0,28,29
 209 -12 209 -12 168.5 13 c 128,-1,30
 128 38 128 38 109.5 80 c 128,-1,31
 91 122 91 122 90.5 177.5 c 128,-1,32
 90 233 90 233 103 292 c 0,33,34
 115 351 115 351 138.5 405.5 c 128,-1,35
 162 460 162 460 198 502 c 128,-1,36
 234 544 234 544 285.5 569 c 128,-1,37
 337 594 337 594 405 594 c 0,38,39
 470 594 470 594 511 569 c 1,40,-1
 514 572 l 1,41,42
 504 600 504 600 491.5 628 c 128,-1,43
 479 656 479 656 461 681 c 1,44,-1
 334 620 l 1,45,-1
 311 664 l 1,46,-1
 427 719 l 1,47,48
 414 737 414 737 397 751.5 c 128,-1,49
 380 766 380 766 359 779 c 1,50,-1
 426 809 l 1,12,13
EndSplineSet
EndChar
StartChar: divide
Encoding: 247 247 185
Width: 592
VWidth: 1473
Flags: W
HStem: 75 108<293.11 352.375> 303 62<128 604> 485 107<379.625 439.375>
Fore
115 303 m 1,0,-1
 128 365 l 1,1,-1
 617 365 l 1,2,-1
 604 303 l 1,3,-1
 115 303 l 1,0,-1
421 592 m 256,4,5
 443 592 443 592 455.5 576 c 128,-1,6
 468 560 468 560 464 539 c 0,7,8
 460 517 460 517 440 501 c 128,-1,9
 420 485 420 485 398 485 c 256,10,11
 376 485 376 485 363.5 501 c 128,-1,12
 351 517 351 517 355 539 c 0,13,14
 359 560 359 560 379 576 c 128,-1,15
 399 592 399 592 421 592 c 256,4,5
334 183 m 256,16,17
 357 183 357 183 369.5 166.5 c 128,-1,18
 382 150 382 150 377 128 c 0,19,20
 373 108 373 108 353 91.5 c 128,-1,21
 333 75 333 75 311 75 c 256,22,23
 289 75 289 75 276.5 91.5 c 128,-1,24
 264 108 264 108 268 128 c 0,25,26
 273 150 273 150 292.5 166.5 c 128,-1,27
 312 183 312 183 334 183 c 256,16,17
EndSplineSet
EndChar
StartChar: oslash
Encoding: 248 248 186
Width: 559
VWidth: 1473
Flags: W
HStem: -12 55<212.852 388.32> 541 53<303.414 482.019>
VStem: 528 67.5<361.871 393 393 447.785>
Fore
494 510 m 1,0,1
 463 541 463 541 395 541 c 0,2,3
 345 541 345 541 307.5 524 c 128,-1,4
 270 507 270 507 243.5 475 c 128,-1,5
 217 443 217 443 199 397 c 128,-1,6
 181 351 181 351 169 292 c 0,7,8
 144 180 144 180 161 119 c 1,9,-1
 494 510 l 1,0,1
184 77 m 1,10,11
 215 43 215 43 289 43 c 0,12,13
 390 43 390 43 439.5 107.5 c 128,-1,14
 489 172 489 172 514 292 c 0,15,16
 526 348 526 348 528 393 c 128,-1,17
 530 438 530 438 519 468 c 1,18,-1
 184 77 l 1,10,11
44 -88 m 1,19,-1
 -15 -88 l 1,20,-1
 110 62 l 1,21,22
 88 100 88 100 87.5 158.5 c 128,-1,23
 87 217 87 217 103 292 c 0,24,25
 118 362 118 362 141.5 418 c 128,-1,26
 165 474 165 474 201 513 c 128,-1,27
 237 552 237 552 287 573 c 128,-1,28
 337 594 337 594 405 594 c 0,29,30
 489 594 489 594 536 560 c 1,31,-1
 645 687 l 1,32,-1
 706 687 l 1,33,-1
 567 526 l 1,34,35
 594 488 594 488 595.5 428 c 128,-1,36
 597 368 597 368 580 292 c 0,37,38
 566 221 566 221 541.5 165 c 128,-1,39
 517 109 517 109 481.5 69 c 128,-1,40
 446 29 446 29 396 8.5 c 128,-1,41
 346 -12 346 -12 277 -12 c 0,42,43
 230 -12 230 -12 197 -2.5 c 128,-1,44
 164 7 164 7 140 25 c 1,45,-1
 44 -88 l 1,19,-1
EndSplineSet
EndChar
StartChar: thorn
Encoding: 254 254 192
Width: 623
VWidth: 1473
Flags: W
HStem: -206 21G<59 131.199> -12 55<295.318 436.983> 541 53<375.648 532.011> 789 20G<269.764 342>
VStem: 587 65<327.506 388.5 388.5 464.451>
Fore
274 809 m 1,0,-1
 342 809 l 1,1,-1
 274 492 l 1,2,-1
 275 492 l 1,3,4
 321 544 321 544 369 569 c 128,-1,5
 417 594 417 594 474 594 c 0,6,7
 530 594 530 594 568.5 569 c 128,-1,8
 607 544 607 544 627.5 501 c 128,-1,9
 648 458 648 458 652 403.5 c 128,-1,10
 656 349 656 349 642 289 c 0,11,12
 610 136 610 136 531 62 c 128,-1,13
 452 -12 452 -12 349 -12 c 0,14,15
 290 -12 290 -12 255 8.5 c 128,-1,16
 220 29 220 29 186 75 c 1,17,-1
 127 -206 l 1,18,-1
 59 -206 l 1,19,-1
 274 809 l 1,0,-1
202 147 m 1,20,21
 206 133 206 133 220 114.5 c 128,-1,22
 234 96 234 96 252.5 80.5 c 128,-1,23
 271 65 271 65 294.5 54 c 128,-1,24
 318 43 318 43 343 43 c 0,25,26
 436 43 436 43 494 110.5 c 128,-1,27
 552 178 552 178 579 299 c 0,28,29
 588 345 588 345 587 388.5 c 128,-1,30
 586 432 586 432 573 465.5 c 128,-1,31
 560 499 560 499 532 520 c 128,-1,32
 504 541 504 541 460 541 c 0,33,34
 404 541 404 541 359 510 c 128,-1,35
 314 479 314 479 262 435 c 1,36,-1
 202 147 l 1,20,21
EndSplineSet
EndChar
StartChar: dotlessi
Encoding: 305 305 194
Width: 248
VWidth: 1473
Flags: W
HStem: 0 21G<91 162.192> 562 20G<209.773 280>
VStem: 91 189<0 582 1.53064e-18 1.53064e-18>
Fore
158 0 m 1,0,-1
 91 0 l 1,1,-1
 214 582 l 1,2,-1
 280 582 l 1,3,-1
 158 0 l 1,0,-1
EndSplineSet
EndChar
StartChar: Lslash
Encoding: 321 321 195
Width: 559
VWidth: 1473
Flags: W
HStem: 0 60<197 547> 789 20G<278.745 357>
VStem: 85 473<60 324 812.48 1150.87>
Fore
268 393 m 1,0,-1
 197 60 l 1,1,-1
 558 60 l 1,2,-1
 547 0 l 1,3,-1
 112 0 l 1,4,-1
 189 362 l 1,5,-1
 85 324 l 1,6,-1
 100 395 l 1,7,-1
 203 433 l 1,8,-1
 283 809 l 1,9,-1
 357 809 l 1,10,-1
 283 463 l 1,11,-1
 491 539 l 1,12,-1
 476 468 l 1,13,-1
 268 393 l 1,0,-1
EndSplineSet
EndChar
StartChar: lslash
Encoding: 322 322 196
Width: 248
VWidth: 1473
Flags: W
HStem: 0 21G<91 162.167> 789 20G<257.824 329>
VStem: 71 287<327 526 318.493 327>
Fore
158 0 m 1,0,-1
 91 0 l 1,1,-1
 169 374 l 1,2,-1
 71 327 l 1,3,-1
 85 399 l 1,4,-1
 186 445 l 1,5,-1
 262 809 l 1,6,-1
 329 809 l 1,7,-1
 259 480 l 1,8,-1
 358 526 l 1,9,-1
 343 455 l 1,10,-1
 243 408 l 1,11,-1
 158 0 l 1,0,-1
EndSplineSet
EndChar
StartChar: OE
Encoding: 338 338 197
Width: 969
VWidth: 1473
Flags: W
HStem: -9 68<255.184 407.039 396.453 417.624 417.624 450 457.5 518.368> 0 62<604 935> 351 61<679 969> 654 62<373.467 553.187 545.15 561.224 731 1078>
Fore
654 639 m 1,0,1
 628 645 628 645 580.5 650.5 c 128,-1,2
 533 656 533 656 486 656 c 0,3,4
 423 656 423 656 378 639 c 128,-1,5
 333 622 333 622 300.5 584.5 c 128,-1,6
 268 547 268 547 246 489.5 c 128,-1,7
 224 432 224 432 206 349 c 0,8,9
 190 274 190 274 188.5 219.5 c 128,-1,10
 187 165 187 165 204 129.5 c 128,-1,11
 221 94 221 94 258.5 76.5 c 128,-1,12
 296 59 296 59 359 59 c 0,13,14
 407 59 407 59 457.5 65 c 128,-1,15
 508 71 508 71 535 81 c 1,16,-1
 654 639 l 1,0,1
1078 654 m 1,17,-1
 731 654 l 1,18,-1
 679 412 l 1,19,-1
 983 412 l 1,20,-1
 969 351 l 1,21,-1
 666 351 l 1,22,-1
 604 62 l 1,23,-1
 947 62 l 1,24,-1
 935 0 l 1,25,-1
 519 0 l 2,26,27
 499 0 499 0 450 -4.5 c 128,-1,28
 401 -9 401 -9 345 -9 c 0,29,30
 189 -9 189 -9 142.5 84 c 128,-1,31
 96 177 96 177 133 349 c 0,32,33
 171 533 171 533 256.5 626.5 c 128,-1,34
 342 720 342 720 499 720 c 0,35,36
 542 720 542 720 591.5 718 c 128,-1,37
 641 716 641 716 670 716 c 2,38,-1
 1092 716 l 1,39,-1
 1078 654 l 1,17,-1
EndSplineSet
EndChar
StartChar: oe
Encoding: 339 339 198
Width: 932
VWidth: 1473
Flags: W
HStem: -12 55<203.052 368.297 602.641 712.493> 289 54<576 891> 541 53<299.827 464.642 722.046 848.169>
VStem: 891 68.5<348.058 443.538>
Fore
169 292 m 256,0,1
 144 172 144 172 170 107.5 c 128,-1,2
 196 43 196 43 284 43 c 0,3,4
 365 43 365 43 419 107.5 c 128,-1,5
 473 172 473 172 498 292 c 256,6,7
 523 411 523 411 497 476 c 128,-1,8
 471 541 471 541 390 541 c 0,9,10
 302 541 302 541 248 476 c 128,-1,11
 194 411 194 411 169 292 c 256,0,1
564 289 m 1,12,13
 554 239 554 239 553 194.5 c 128,-1,14
 552 150 552 150 564 116 c 128,-1,15
 576 82 576 82 603.5 62.5 c 128,-1,16
 631 43 631 43 676 43 c 0,17,18
 704 43 704 43 727 49 c 128,-1,19
 750 55 750 55 772 68 c 128,-1,20
 794 81 794 81 817.5 103 c 128,-1,21
 841 125 841 125 869 159 c 1,22,-1
 919 131 l 1,23,24
 888 93 888 93 858.5 65.5 c 128,-1,25
 829 38 829 38 798.5 21 c 128,-1,26
 768 4 768 4 734 -4 c 128,-1,27
 700 -12 700 -12 659 -12 c 0,28,29
 588 -12 588 -12 547.5 20.5 c 128,-1,30
 507 53 507 53 489 116 c 1,31,32
 455 62 455 62 403 25 c 128,-1,33
 351 -12 351 -12 273 -12 c 0,34,35
 206 -12 206 -12 166.5 13 c 128,-1,36
 127 38 127 38 108.5 80 c 128,-1,37
 90 122 90 122 90 177.5 c 128,-1,38
 90 233 90 233 103 292 c 0,39,40
 115 351 115 351 138.5 405.5 c 128,-1,41
 162 460 162 460 198 502 c 128,-1,42
 234 544 234 544 284 569 c 128,-1,43
 334 594 334 594 401 594 c 0,44,45
 477 594 477 594 515.5 558 c 128,-1,46
 554 522 554 522 566 467 c 1,47,48
 580 489 580 489 601 512 c 128,-1,49
 622 535 622 535 649 553.5 c 128,-1,50
 676 572 676 572 710 583 c 128,-1,51
 744 594 744 594 785 594 c 0,52,53
 843 594 843 594 881 572 c 128,-1,54
 919 550 919 550 938.5 509 c 128,-1,55
 958 468 958 468 959.5 412.5 c 128,-1,56
 961 357 961 357 946 289 c 1,57,-1
 564 289 l 1,12,13
891 343 m 1,58,59
 899 433 899 433 874 487 c 128,-1,60
 849 541 849 541 773 541 c 0,61,62
 734 541 734 541 702 525.5 c 128,-1,63
 670 510 670 510 646 482.5 c 128,-1,64
 622 455 622 455 605 419 c 128,-1,65
 588 383 588 383 576 343 c 1,66,-1
 891 343 l 1,58,59
EndSplineSet
EndChar
StartChar: florin
Encoding: 402 402 204
Width: 564
VWidth: 1473
Flags: W
HStem: -200 59<16.402 111.709> 423 51<211 346 436 555> 738 60<557.051 643.76 639.969 647.551 647.551 657 657 666>
Fore
666 735 m 1,0,1
 657 737 657 737 648 737.5 c 128,-1,2
 639 738 639 738 632 738 c 0,3,4
 586 738 586 738 555 712.5 c 128,-1,5
 524 687 524 687 503 648.5 c 128,-1,6
 482 610 482 610 467 563.5 c 128,-1,7
 452 517 452 517 436 474 c 1,8,-1
 566 474 l 1,9,-1
 555 423 l 1,10,-1
 418 423 l 1,11,-1
 264 -13 l 2,12,13
 250 -52 250 -52 227.5 -85.5 c 128,-1,14
 205 -119 205 -119 175.5 -145 c 128,-1,15
 146 -171 146 -171 109 -185.5 c 128,-1,16
 72 -200 72 -200 29 -200 c 0,17,18
 18 -200 18 -200 8.5 -199.5 c 128,-1,19
 -1 -199 -1 -199 -12 -197 c 1,20,-1
 9 -133 l 1,21,22
 22 -137 l 0,23,24
 35 -141 35 -141 44 -141 c 0,25,26
 106 -141 106 -141 142 -93.5 c 128,-1,27
 178 -46 178 -46 212 43 c 2,28,-1
 346 423 l 1,29,-1
 200 423 l 1,30,-1
 211 474 l 1,31,-1
 364 474 l 1,32,33
 379 519 379 519 399.5 575 c 128,-1,34
 420 631 420 631 451 681 c 128,-1,35
 482 731 482 731 524.5 764.5 c 128,-1,36
 567 798 567 798 626 798 c 0,37,38
 660 798 660 798 688 793 c 1,39,-1
 666 735 l 1,0,1
EndSplineSet
EndChar
StartChar: circumflex
Encoding: 710 710 205
Width: 248
VWidth: 1473
Flags: W
HStem: 647 154<256 427 256 256>
VStem: 94 333<647 647 647 647>
Fore
427 647 m 1,0,-1
 352 647 l 1,1,-1
 286 760 l 1,2,-1
 169 647 l 1,3,-1
 94 647 l 1,4,-1
 256 801 l 1,5,-1
 331 801 l 1,6,-1
 427 647 l 1,0,-1
EndSplineSet
EndChar
StartChar: caron
Encoding: 711 711 206
Width: 248
VWidth: 1473
Flags: W
HStem: 659 154<130 302 130 130>
VStem: 130 333<813 813 813 813>
Fore
130 813 m 1,0,-1
 205 813 l 1,1,-1
 273 700 l 1,2,-1
 387 813 l 1,3,-1
 463 813 l 1,4,-1
 302 659 l 1,5,-1
 227 659 l 1,6,-1
 130 813 l 1,0,-1
EndSplineSet
EndChar
StartChar: breve
Encoding: 728 728 207
Width: 248
VWidth: 1473
Flags: W
HStem: 666 50<207.093 353>
VStem: 134 323<741 807 807 807 807 807> 134 50<738.672 807>
Fore
277 716 m 0,0,1
 320 716 320 716 353 736.5 c 128,-1,2
 386 757 386 757 407 807 c 1,3,-1
 457 807 l 1,4,5
 438 741 438 741 387.5 703.5 c 128,-1,6
 337 666 337 666 267 666 c 256,7,8
 196 666 196 666 160 703.5 c 128,-1,9
 124 741 124 741 134 807 c 1,10,-1
 184 807 l 1,11,12
 183 757 183 757 207 736.5 c 128,-1,13
 231 716 231 716 277 716 c 0,0,1
EndSplineSet
EndChar
StartChar: dotaccent
Encoding: 729 729 208
Width: 248
VWidth: 1473
Flags: W
HStem: 659 106<249 301 227 323 249 249>
Fore
323 765 m 1,0,-1
 301 659 l 1,1,-1
 227 659 l 1,2,-1
 249 765 l 1,3,-1
 323 765 l 1,0,-1
EndSplineSet
EndChar
StartChar: ring
Encoding: 730 730 209
Width: 248
VWidth: 1473
Flags: W
HStem: 642 39<221.289 324.851> 828 38<243.493 347.413>
VStem: 172 224<707 754 754 801 754 754 754 754>
Fore
308 866 m 0,0,1
 352 866 352 866 379.5 833.5 c 128,-1,2
 407 801 407 801 396 754 c 256,3,4
 386 707 386 707 345.5 674.5 c 128,-1,5
 305 642 305 642 261 642 c 0,6,7
 215 642 215 642 188.5 674.5 c 128,-1,8
 162 707 162 707 172 754 c 256,9,10
 183 801 183 801 222.5 833.5 c 128,-1,11
 262 866 262 866 308 866 c 0,0,1
301 828 m 0,12,13
 270 828 270 828 243.5 807.5 c 128,-1,14
 217 787 217 787 209 754 c 0,15,16
 203 725 203 725 221 703 c 128,-1,17
 239 681 239 681 270 681 c 0,18,19
 299 681 299 681 325.5 703 c 128,-1,20
 352 725 352 725 358 754 c 0,21,22
 365 787 365 787 347.5 807.5 c 128,-1,23
 330 828 330 828 301 828 c 0,12,13
EndSplineSet
EndChar
StartChar: ogonek
Encoding: 731 731 210
Width: 248
VWidth: 1473
Flags: W
HStem: -231 54<46.5497 122.197>
VStem: -27 270<-141 21 -141 -141>
Fore
242 12 m 1,0,1
 215 1 215 1 183.5 -11.5 c 128,-1,2
 152 -24 152 -24 122.5 -40.5 c 128,-1,3
 93 -57 93 -57 71 -79.5 c 128,-1,4
 49 -102 49 -102 43 -131 c 0,5,6
 38 -150 38 -150 48.5 -163.5 c 128,-1,7
 59 -177 59 -177 93 -177 c 0,8,9
 119 -177 119 -177 156 -161.5 c 128,-1,10
 193 -146 193 -146 218 -134 c 1,11,-1
 230 -172 l 1,12,13
 212 -183 212 -183 190 -193 c 128,-1,14
 168 -203 168 -203 145 -212 c 128,-1,15
 122 -221 122 -221 99.5 -226 c 128,-1,16
 77 -231 77 -231 57 -231 c 0,17,18
 15 -231 15 -231 -11 -211.5 c 128,-1,19
 -37 -192 -37 -192 -27 -141 c 0,20,21
 -18 -100 -18 -100 14 -72 c 128,-1,22
 46 -44 46 -44 86.5 -25.5 c 128,-1,23
 127 -7 127 -7 169.5 4 c 128,-1,24
 212 15 212 15 243 21 c 1,25,-1
 242 12 l 1,0,1
EndSplineSet
EndChar
StartChar: tilde
Encoding: 732 732 211
Width: 248
VWidth: 1473
Flags: W
HStem: 664 109<88 463 463 463> 664 55<328.221 400.319> 715 54<169.475 233.335>
Fore
88 659 m 1,0,1
 94 679 94 679 105 698 c 128,-1,2
 116 717 116 717 132.5 733.5 c 128,-1,3
 149 750 149 750 168 759.5 c 128,-1,4
 187 769 187 769 209 769 c 0,5,6
 230 769 230 769 250 761 c 128,-1,7
 270 753 270 753 287 742 c 0,8,9
 306 734 306 734 323 726.5 c 128,-1,10
 340 719 340 719 359 719 c 0,11,12
 383 719 383 719 398.5 736 c 128,-1,13
 414 753 414 753 421 773 c 1,14,-1
 463 773 l 1,15,16
 446 731 446 731 418 697.5 c 128,-1,17
 390 664 390 664 340 664 c 0,18,19
 323 664 323 664 304.5 673 c 128,-1,20
 286 682 286 682 267 691 c 256,21,22
 247 700 247 700 229 707.5 c 128,-1,23
 211 715 211 715 194 715 c 0,24,25
 171 715 171 715 154.5 697 c 128,-1,26
 138 679 138 679 131 659 c 1,27,-1
 88 659 l 1,0,1
EndSplineSet
EndChar
StartChar: hungarumlaut
Encoding: 733 733 212
Width: 248
VWidth: 1473
Flags: W
HStem: 647 154<183 352 352 352>
Fore
352 801 m 1,0,-1
 183 647 l 1,1,-1
 128 647 l 1,2,-1
 265 801 l 1,3,-1
 352 801 l 1,0,-1
507 801 m 1,4,-1
 320 647 l 1,5,-1
 264 647 l 1,6,-1
 420 801 l 1,7,-1
 507 801 l 1,4,-1
EndSplineSet
EndChar
StartChar: uni0E01
Encoding: 3585 3585 214
Width: 618
VWidth: 1473
Flags: W
HStem: 0 21G<97 160.198 479 542.142> 392 28<265 331> 547 51<359.982 484.449>
VStem: 564 58.5<397.322 459 459 512.887>
Fore
438 598 m 0,0,1
 488 598 488 598 527.5 587.5 c 128,-1,2
 567 577 567 577 591.5 550.5 c 128,-1,3
 616 524 616 524 622.5 479.5 c 128,-1,4
 629 435 629 435 614 367 c 2,5,-1
 538 0 l 1,6,-1
 479 0 l 1,7,-1
 555 367 l 2,8,9
 567 424 567 424 564 459 c 128,-1,10
 561 494 561 494 543.5 513.5 c 128,-1,11
 526 533 526 533 496.5 540 c 128,-1,12
 467 547 467 547 426 547 c 0,13,14
 389 547 389 547 353.5 538 c 128,-1,15
 318 529 318 529 289.5 516.5 c 128,-1,16
 261 504 261 504 243 492 c 128,-1,17
 225 480 225 480 224 473 c 0,18,19
 222 468 222 468 227.5 459.5 c 128,-1,20
 233 451 233 451 239.5 442 c 128,-1,21
 246 433 246 433 253.5 426.5 c 128,-1,22
 261 420 261 420 265 420 c 0,23,24
 277 420 277 420 292.5 429.5 c 128,-1,25
 308 439 308 439 321 439 c 0,26,27
 326 439 326 439 330 431.5 c 128,-1,28
 334 424 334 424 336.5 415.5 c 128,-1,29
 339 407 339 407 338 399.5 c 128,-1,30
 337 392 337 392 331 392 c 0,31,32
 309 392 309 392 291.5 387.5 c 128,-1,33
 274 383 274 383 258.5 369 c 128,-1,34
 243 355 243 355 231.5 329 c 128,-1,35
 220 303 220 303 211 262 c 2,36,-1
 156 0 l 1,37,-1
 97 0 l 1,38,-1
 152 262 l 2,39,40
 164 318 164 318 180.5 344 c 128,-1,41
 197 370 197 370 227 395 c 1,42,43
 222 398 222 398 211 406.5 c 128,-1,44
 200 415 200 415 189 426.5 c 128,-1,45
 178 438 178 438 171 449.5 c 128,-1,46
 164 461 164 461 165 470 c 0,47,48
 168 483 168 483 191.5 505 c 128,-1,49
 215 527 215 527 252 548 c 128,-1,50
 289 569 289 569 337 583.5 c 128,-1,51
 385 598 385 598 438 598 c 0,0,1
EndSplineSet
EndChar
StartChar: uni0E02
Encoding: 3586 3586 215
Width: 587
VWidth: 1473
Flags: W
HStem: -9 52<240.943 410.233> 382 53<229.093 287.582> 544 48<274.068 383.889>
VStem: 165 467<141 589 174.864 249.527>
Fore
320 544 m 0,0,1
 309 544 309 544 295 542.5 c 128,-1,2
 281 541 281 541 268 534 c 128,-1,3
 255 527 255 527 244 514.5 c 128,-1,4
 233 502 233 502 228 482 c 0,5,6
 224 463 224 463 230 449 c 128,-1,7
 236 435 236 435 256 435 c 0,8,9
 273 435 273 435 289 446 c 128,-1,10
 305 457 305 457 311 480 c 2,11,-1
 320 523 l 1,12,-1
 345 523 l 1,13,-1
 362 480 l 1,14,15
 352 436 352 436 321 409 c 128,-1,16
 290 382 290 382 246 382 c 256,17,18
 202 382 202 382 184 410.5 c 128,-1,19
 166 439 166 439 175 482 c 0,20,21
 186 529 186 529 232 560.5 c 128,-1,22
 278 592 278 592 336 592 c 0,23,24
 395 592 395 592 427.5 558 c 128,-1,25
 460 524 460 524 446 463 c 0,26,27
 433 399 433 399 402 366 c 128,-1,28
 371 333 371 333 337 311.5 c 128,-1,29
 303 290 303 290 275 271 c 128,-1,30
 247 252 247 252 239 214 c 2,31,-1
 222 137 l 2,32,33
 211 81 211 81 242 62 c 128,-1,34
 273 43 273 43 329 43 c 0,35,36
 362 43 362 43 387 46.5 c 128,-1,37
 412 50 412 50 430.5 61 c 128,-1,38
 449 72 449 72 461 92 c 128,-1,39
 473 112 473 112 479 144 c 0,40,41
 485 169 485 169 492 211 c 128,-1,42
 499 253 499 253 507 290 c 2,43,-1
 572 589 l 1,44,-1
 632 589 l 1,45,-1
 542 166 l 2,46,47
 522 69 522 69 465 30 c 128,-1,48
 408 -9 408 -9 315 -9 c 0,49,50
 236 -9 236 -9 191.5 25 c 128,-1,51
 147 59 147 59 165 141 c 2,52,-1
 180 214 l 2,53,54
 190 261 190 261 221 286.5 c 128,-1,55
 252 312 252 312 286.5 334.5 c 128,-1,56
 321 357 321 357 352 383.5 c 128,-1,57
 383 410 383 410 393 458 c 0,58,59
 411 544 411 544 320 544 c 0,0,1
EndSplineSet
EndChar
StartChar: uni0E03
Encoding: 3587 3587 216
Width: 608
VWidth: 1473
Flags: W
HStem: -2.5 48.5<249.986 254.5 288.5 299.563 299.563 314.181 306.872 442.673> 390 52<206.603 264.161> 542 52<222.282 283.275> 580 20<396.73 429.5 587.652 653>
VStem: 155 498<492 494 583.5 589 492 589 738.126 785.39>
Fore
327 468 m 1,0,1
 312 486 312 486 304 500 c 128,-1,2
 296 514 296 514 289.5 523.5 c 128,-1,3
 283 533 283 533 276.5 537.5 c 128,-1,4
 270 542 270 542 258 542 c 0,5,6
 239 542 239 542 225 528 c 128,-1,7
 211 514 211 514 206 494 c 0,8,9
 200 471 200 471 207.5 456.5 c 128,-1,10
 215 442 215 442 237 442 c 0,11,12
 246 442 246 442 259.5 448.5 c 128,-1,13
 273 455 273 455 293 473 c 1,14,-1
 303 455 l 1,15,-1
 287 421 l 1,16,17
 255 390 255 390 225 390 c 0,18,19
 183 390 183 390 164.5 419.5 c 128,-1,20
 146 449 146 449 155 492 c 0,21,22
 166 544 166 544 200 569 c 128,-1,23
 234 594 234 594 268 594 c 0,24,25
 287 594 287 594 301 583.5 c 128,-1,26
 315 573 315 573 324 560 c 0,27,28
 334 544 334 544 342 526 c 1,29,-1
 417 600 l 1,30,31
 442 586 442 586 456 548 c 128,-1,32
 470 510 470 510 461 468 c 0,33,34
 448 405 448 405 416.5 373.5 c 128,-1,35
 385 342 385 342 350 320.5 c 128,-1,36
 315 299 315 299 285 277.5 c 128,-1,37
 255 256 255 256 246 214 c 2,38,-1
 228 130 l 2,39,40
 222 102 222 102 228 85 c 128,-1,41
 234 68 234 68 249.5 58.5 c 128,-1,42
 265 49 265 49 288.5 46 c 128,-1,43
 312 43 312 43 340 43 c 0,44,45
 408 43 408 43 448 65 c 128,-1,46
 488 87 488 87 501 152 c 0,47,48
 507 177 507 177 513.5 215 c 128,-1,49
 520 253 520 253 527 290 c 2,50,-1
 592 589 l 1,51,-1
 653 589 l 1,52,-1
 564 174 l 2,53,54
 544 77 544 77 482 34 c 128,-1,55
 420 -9 420 -9 327 -9 c 0,56,57
 287 -9 287 -9 254.5 -2.5 c 128,-1,58
 222 4 222 4 200 21 c 128,-1,59
 178 38 178 38 170 65.5 c 128,-1,60
 162 93 162 93 171 134 c 2,61,-1
 187 214 l 2,62,63
 194 249 194 249 212.5 272.5 c 128,-1,64
 231 296 231 296 254 313 c 128,-1,65
 277 330 277 330 302 343.5 c 128,-1,66
 327 357 327 357 350 373 c 128,-1,67
 373 389 373 389 390 411 c 128,-1,68
 407 433 407 433 414 466 c 0,69,70
 420 494 420 494 414 513 c 128,-1,71
 408 532 408 532 402 539 c 1,72,-1
 327 468 l 1,0,1
EndSplineSet
EndChar
StartChar: uni0E04
Encoding: 3588 3588 217
Width: 626
VWidth: 1473
Flags: W
HStem: 0 21G<107.5 177 486 549.253> 202 51<349.343 424.793> 355 52<350.057 441.045> 547 51<325.995 526.73>
VStem: 103 65<9.59976 89.901> 572.5 59.5<406.129 482.632>
Fore
557 333 m 2,0,1
 569 390 569 390 572.5 431.5 c 128,-1,2
 576 473 576 473 563 498 c 128,-1,3
 550 523 550 523 517.5 535 c 128,-1,4
 485 547 485 547 424 547 c 0,5,6
 346 547 346 547 287 500.5 c 128,-1,7
 228 454 228 454 208 357 c 0,8,9
 200 326 200 326 199.5 286.5 c 128,-1,10
 199 247 199 247 203 225 c 1,11,12
 224 258 224 258 246 290.5 c 128,-1,13
 268 323 268 323 294.5 348.5 c 128,-1,14
 321 374 321 374 352 390.5 c 128,-1,15
 383 407 383 407 420 407 c 0,16,17
 454 407 454 407 480.5 382 c 128,-1,18
 507 357 507 357 496 305 c 0,19,20
 488 262 488 262 451.5 232 c 128,-1,21
 415 202 415 202 373 202 c 128,-1,22
 331 202 331 202 308 231 c 1,23,-1
 311 277 l 1,24,-1
 330 295 l 1,25,-1
 352 268 l 2,26,27
 362 253 362 253 382 253 c 0,28,29
 404 253 404 253 422 268.5 c 128,-1,30
 440 284 440 284 446 306 c 0,31,32
 451 327 451 327 439 341 c 128,-1,33
 427 355 427 355 402 355 c 0,34,35
 374 355 374 355 341 328.5 c 128,-1,36
 308 302 308 302 275.5 255 c 128,-1,37
 243 208 243 208 214.5 143 c 128,-1,38
 186 78 186 78 168 0 c 1,39,-1
 110 0 l 2,40,41
 105 0 105 0 102.5 3 c 128,-1,42
 100 6 100 6 103 21 c 0,43,44
 110 47 110 47 127 88.5 c 128,-1,45
 144 130 144 130 161 156 c 0,46,47
 175 180 175 180 168 190 c 0,48,49
 152 218 152 218 144.5 258.5 c 128,-1,50
 137 299 137 299 149 357 c 0,51,52
 174 471 174 471 252.5 534.5 c 128,-1,53
 331 598 331 598 436 598 c 0,54,55
 507 598 507 598 549.5 583.5 c 128,-1,56
 592 569 592 569 612 538 c 128,-1,57
 632 507 632 507 632 459.5 c 128,-1,58
 632 412 632 412 619 348 c 2,59,-1
 545 0 l 1,60,-1
 486 0 l 1,61,-1
 557 333 l 2,0,1
EndSplineSet
EndChar
StartChar: uni0E05
Encoding: 3589 3589 218
Width: 640
VWidth: 1473
Flags: W
HStem: 0 21G<107.5 177 501 564.195> 202 51<349.343 424.793> 355 52<350.057 441.045> 578 20G<305 377.032 512.077 567>
VStem: 103 65<9.59976 89.901>
Fore
208 357 m 0,0,1
 200 326 200 326 199.5 286.5 c 128,-1,2
 199 247 199 247 203 225 c 1,3,4
 224 258 224 258 246 290.5 c 128,-1,5
 268 323 268 323 294.5 348.5 c 128,-1,6
 321 374 321 374 352 390.5 c 128,-1,7
 383 407 383 407 420 407 c 0,8,9
 454 407 454 407 480.5 382 c 128,-1,10
 507 357 507 357 496 305 c 0,11,12
 488 262 488 262 451.5 232 c 128,-1,13
 415 202 415 202 373 202 c 128,-1,14
 331 202 331 202 308 231 c 1,15,-1
 311 277 l 1,16,-1
 330 295 l 1,17,-1
 352 268 l 2,18,19
 362 253 362 253 382 253 c 0,20,21
 404 253 404 253 422 268.5 c 128,-1,22
 440 284 440 284 446 306 c 0,23,24
 451 327 451 327 439 341 c 128,-1,25
 427 355 427 355 402 355 c 0,26,27
 374 355 374 355 341 328.5 c 128,-1,28
 308 302 308 302 275.5 255 c 128,-1,29
 243 208 243 208 214.5 143 c 128,-1,30
 186 78 186 78 168 0 c 1,31,-1
 110 0 l 2,32,33
 105 0 105 0 102.5 3 c 128,-1,34
 100 6 100 6 103 21 c 0,35,36
 110 47 110 47 127 88.5 c 128,-1,37
 144 130 144 130 161 156 c 0,38,39
 175 180 175 180 168 190 c 0,40,41
 152 218 152 218 144.5 258.5 c 128,-1,42
 137 299 137 299 149 357 c 0,43,44
 169 451 169 451 215.5 510 c 128,-1,45
 262 569 262 569 348 598 c 1,46,-1
 438 536 l 1,47,-1
 545 601 l 1,48,49
 589 594 589 594 612.5 573 c 128,-1,50
 636 552 636 552 644.5 520.5 c 128,-1,51
 653 489 653 489 649 445.5 c 128,-1,52
 645 402 645 402 633 348 c 2,53,-1
 560 0 l 1,54,-1
 501 0 l 1,55,-1
 577 365 l 2,56,57
 586 404 586 404 590.5 435 c 128,-1,58
 595 466 595 466 592 488 c 128,-1,59
 589 510 589 510 574.5 524.5 c 128,-1,60
 560 539 560 539 530 547 c 1,61,-1
 426 485 l 1,62,-1
 342 545 l 1,63,64
 289 529 289 529 256.5 480.5 c 128,-1,65
 224 432 224 432 208 357 c 0,0,1
EndSplineSet
EndChar
StartChar: uni0E06
Encoding: 3590 3590 219
Width: 692
VWidth: 1473
Flags: W
HStem: -9 53<183.456 232.5> 390 52<206.603 269.309> 542 52<222.282 297.675> 569 20<411.73 444.5 664.612 728>
VStem: 542 71<3.54199 48.75>
Fore
476 468 m 0,0,1
 468 433 468 433 448.5 408 c 128,-1,2
 429 383 429 383 407 361 c 128,-1,3
 385 339 385 339 364 316 c 128,-1,4
 343 293 343 293 333 262 c 1,5,6
 370 261 370 261 408 248.5 c 128,-1,7
 446 236 446 236 479.5 215 c 128,-1,8
 513 194 513 194 537 166 c 128,-1,9
 561 138 561 138 570 105 c 1,10,11
 572 122 572 122 577 150 c 128,-1,12
 582 178 582 178 588 207.5 c 128,-1,13
 594 237 594 237 599.5 265 c 128,-1,14
 605 293 605 293 608 311 c 2,15,-1
 669 589 l 1,16,-1
 728 589 l 1,17,-1
 672 327 l 2,18,19
 661 278 661 278 651 228 c 128,-1,20
 641 178 641 178 633 136 c 128,-1,21
 625 94 625 94 619 63 c 128,-1,22
 613 32 613 32 613 21 c 0,23,24
 613 6 613 6 609 3 c 128,-1,25
 605 0 605 0 600 0 c 2,26,-1
 542 0 l 1,27,28
 541 49 541 49 523 88 c 128,-1,29
 505 127 505 127 475.5 155.5 c 128,-1,30
 446 184 446 184 407 200.5 c 128,-1,31
 368 217 368 217 324 220 c 1,32,-1
 311 140 l 2,33,34
 305 110 305 110 299 83.5 c 128,-1,35
 293 57 293 57 281.5 36.5 c 128,-1,36
 270 16 270 16 250.5 3.5 c 128,-1,37
 231 -9 231 -9 197 -9 c 0,38,39
 153 -9 153 -9 134.5 20.5 c 128,-1,40
 116 50 116 50 128 110 c 0,41,42
 143 177 143 177 188.5 214.5 c 128,-1,43
 234 252 234 252 283 261 c 1,44,45
 292 302 292 302 312.5 325.5 c 128,-1,46
 333 349 333 349 355 368 c 128,-1,47
 377 387 377 387 396 408.5 c 128,-1,48
 415 430 415 430 423 466 c 0,49,50
 427 491 427 491 422.5 510.5 c 128,-1,51
 418 530 418 530 415 538 c 1,52,-1
 342 468 l 1,53,54
 312 505 312 505 296.5 523.5 c 128,-1,55
 281 542 281 542 258 542 c 0,56,57
 239 542 239 542 225 528 c 128,-1,58
 211 514 211 514 206 494 c 0,59,60
 200 471 200 471 207.5 456.5 c 128,-1,61
 215 442 215 442 237 442 c 0,62,63
 246 442 246 442 255.5 445 c 128,-1,64
 265 448 265 448 274 455 c 2,65,-1
 306 483 l 1,66,-1
 318 466 l 1,67,-1
 302 423 l 1,68,69
 262 390 262 390 225 390 c 0,70,71
 183 390 183 390 164.5 419.5 c 128,-1,72
 146 449 146 449 155 492 c 0,73,74
 166 544 166 544 200 569 c 128,-1,75
 234 594 234 594 268 594 c 0,76,77
 287 594 287 594 303.5 583.5 c 128,-1,78
 320 573 320 573 331 560 c 0,79,80
 346 544 346 544 357 526 c 1,81,-1
 432 600 l 1,82,83
 457 586 457 586 471 548 c 128,-1,84
 485 510 485 510 476 468 c 0,0,1
258 136 m 0,85,86
 261 152 261 152 264.5 172.5 c 128,-1,87
 268 193 268 193 274 217 c 1,88,89
 246 209 246 209 219.5 184 c 128,-1,90
 193 159 193 159 183 113 c 0,91,92
 175 81 175 81 184 62.5 c 128,-1,93
 193 44 193 44 209 44 c 0,94,95
 222 44 222 44 230.5 51.5 c 128,-1,96
 239 59 239 59 243 71.5 c 128,-1,97
 247 84 247 84 250 101 c 128,-1,98
 253 118 253 118 258 136 c 0,85,86
EndSplineSet
EndChar
StartChar: uni0E07
Encoding: 3591 3591 220
Width: 550
VWidth: 1473
Flags: W
HStem: 2.5 44<250.067 270.829 272.172 295.727 283.949 344.484 341.273 347.696 347.696 364.5 364.5 388.932> 542 53<423.553 504.061>
VStem: 196 54<55 93.7792 93.7792 221.357> 507 61<454.804 528.371>
Fore
181 408 m 1,0,1
 215 367 215 367 234 278.5 c 128,-1,2
 253 190 253 190 250 55 c 1,3,4
 252 50 252 50 273.5 46.5 c 128,-1,5
 295 43 295 43 318 43 c 256,6,7
 342 43 342 43 364.5 46.5 c 128,-1,8
 387 50 387 50 389 56 c 0,9,10
 402 103 402 103 418.5 153 c 128,-1,11
 435 203 435 203 450.5 251 c 128,-1,12
 466 299 466 299 479 340.5 c 128,-1,13
 492 382 492 382 498 411 c 0,14,15
 513 479 513 479 507 510.5 c 128,-1,16
 501 542 501 542 466 542 c 0,17,18
 445 542 445 542 428 529 c 128,-1,19
 411 516 411 516 407 496 c 0,20,21
 404 479 404 479 412.5 465 c 128,-1,22
 421 451 421 451 443 451 c 2,23,-1
 488 451 l 1,24,-1
 482 426 l 1,25,-1
 432 399 l 1,26,27
 387 399 387 399 366 425.5 c 128,-1,28
 345 452 345 452 354 496 c 0,29,30
 362 539 362 539 397 567 c 128,-1,31
 432 595 432 595 476 595 c 0,32,33
 510 595 510 595 530.5 582 c 128,-1,34
 551 569 551 569 560 546 c 128,-1,35
 569 523 569 523 568 491.5 c 128,-1,36
 567 460 567 460 558 421 c 0,37,38
 554 398 554 398 543 362.5 c 128,-1,39
 532 327 532 327 520 289.5 c 128,-1,40
 508 252 508 252 495.5 216.5 c 128,-1,41
 483 181 483 181 476 158 c 0,42,43
 464 124 464 124 453 85.5 c 128,-1,44
 442 47 442 47 435 19 c 0,45,46
 432 7 432 7 394.5 1.5 c 128,-1,47
 357 -4 357 -4 315 -4 c 0,48,49
 293 -4 293 -4 271.5 -2.5 c 128,-1,50
 250 -1 250 -1 233.5 2.5 c 128,-1,51
 217 6 217 6 206.5 10.5 c 128,-1,52
 196 15 196 15 196 21 c 0,53,54
 199 91 199 91 197.5 138.5 c 128,-1,55
 196 186 196 186 188 222.5 c 128,-1,56
 180 259 180 259 164.5 291 c 128,-1,57
 149 323 149 323 124 361 c 0,58,59
 118 370 118 370 138.5 384 c 128,-1,60
 159 398 159 398 181 408 c 1,0,1
EndSplineSet
EndChar
StartChar: uni0E08
Encoding: 3592 3592 221
Width: 601
VWidth: 1473
Flags: W
HStem: -2.5 43.5<351.972 372.207 372.207 380.454 376.331 417.087 414.031 420.144 420.144 450.934> 343 53<255.595 332.079> 545 52<357.567 469.493>
VStem: 161 446<479 496 419.34 484.911> 339.5 51.5<230.242 309.736>
Fore
293 15 m 0,0,1
 311 85 311 85 323.5 145.5 c 128,-1,2
 336 206 336 206 339.5 249.5 c 128,-1,3
 343 293 343 293 333.5 318 c 128,-1,4
 324 343 324 343 298 343 c 0,5,6
 277 343 277 343 260 330 c 128,-1,7
 243 317 243 317 239 298 c 0,8,9
 236 281 236 281 244.5 266.5 c 128,-1,10
 253 252 253 252 275 252 c 2,11,-1
 320 252 l 1,12,-1
 314 227 l 1,13,-1
 264 200 l 1,14,15
 220 200 220 200 198.5 226.5 c 128,-1,16
 177 253 177 253 186 298 c 0,17,18
 196 342 196 342 230.5 369 c 128,-1,19
 265 396 265 396 309 396 c 0,20,21
 351 396 351 396 370 372 c 128,-1,22
 389 348 389 348 391 302 c 128,-1,23
 393 256 393 256 382 192 c 128,-1,24
 371 128 371 128 352 49 c 0,25,26
 351 44 351 44 365 41 c 128,-1,27
 379 38 379 38 396 38 c 0,28,29
 415 38 415 38 432 41 c 128,-1,30
 449 44 449 44 451 50 c 0,31,32
 461 99 461 99 475 151 c 128,-1,33
 489 203 489 203 503 252 c 128,-1,34
 517 301 517 301 529 341.5 c 128,-1,35
 541 382 541 382 547 408 c 0,36,37
 557 457 557 457 543 484 c 128,-1,38
 529 511 529 511 507 524.5 c 128,-1,39
 485 538 485 538 462 541.5 c 128,-1,40
 439 545 439 545 430 545 c 0,41,42
 362 545 362 545 310 518.5 c 128,-1,43
 258 492 258 492 211 448 c 0,44,45
 202 439 202 439 187 449.5 c 128,-1,46
 172 460 172 460 161 479 c 1,47,48
 178 498 178 498 210 518.5 c 128,-1,49
 242 539 242 539 279.5 557 c 128,-1,50
 317 575 317 575 357.5 586 c 128,-1,51
 398 597 398 597 433 597 c 0,52,53
 474 597 474 597 510.5 586.5 c 128,-1,54
 547 576 547 576 572 554 c 128,-1,55
 597 532 597 532 607 496 c 128,-1,56
 617 460 617 460 605 408 c 0,57,58
 601 385 601 385 591.5 351.5 c 128,-1,59
 582 318 582 318 571 284 c 128,-1,60
 560 250 560 250 549.5 218 c 128,-1,61
 539 186 539 186 532 162 c 0,62,63
 527 144 527 144 521.5 122 c 128,-1,64
 516 100 516 100 510.5 78.5 c 128,-1,65
 505 57 505 57 501.5 39.5 c 128,-1,66
 498 22 498 22 495 13 c 0,67,68
 492 1 492 1 461 -4 c 128,-1,69
 430 -9 430 -9 392 -9 c 256,70,71
 354 -9 354 -9 323 -2.5 c 128,-1,72
 292 4 292 4 293 15 c 0,0,1
EndSplineSet
EndChar
StartChar: uni0E09
Encoding: 3593 3593 222
Width: 642
VWidth: 1473
Flags: W
HStem: -4 53<474.62 555.561> 183 47<413.74 499.906> 320 50<204.322 279.401> 545 52<395.86 508.524>
Fore
594 408 m 2,0,1
 604 457 604 457 589.5 484 c 128,-1,2
 575 511 575 511 550.5 524.5 c 128,-1,3
 526 538 526 538 501 541.5 c 128,-1,4
 476 545 476 545 467 545 c 0,5,6
 401 545 401 545 348.5 518.5 c 128,-1,7
 296 492 296 492 249 448 c 0,8,9
 239 439 239 439 225 449.5 c 128,-1,10
 211 460 211 460 199 479 c 1,11,12
 217 498 217 498 248.5 518.5 c 128,-1,13
 280 539 280 539 317.5 557 c 128,-1,14
 355 575 355 575 395.5 586 c 128,-1,15
 436 597 436 597 471 597 c 0,16,17
 513 597 513 597 550.5 586.5 c 128,-1,18
 588 576 588 576 614.5 554 c 128,-1,19
 641 532 641 532 652.5 496 c 128,-1,20
 664 460 664 460 653 408 c 2,21,-1
 625 273 l 2,22,23
 622 259 622 259 611 238 c 128,-1,24
 600 217 600 217 586 205 c 1,25,26
 611 189 611 189 622 163.5 c 128,-1,27
 633 138 633 138 626 100 c 0,28,29
 613 40 613 40 578.5 18 c 128,-1,30
 544 -4 544 -4 499 -4 c 256,31,32
 455 -4 455 -4 432.5 19.5 c 128,-1,33
 410 43 410 43 421 96 c 0,34,35
 429 130 429 130 447.5 148 c 128,-1,36
 466 166 466 166 486 181 c 1,37,38
 480 183 480 183 471 183 c 0,39,40
 446 183 446 183 415.5 166.5 c 128,-1,41
 385 150 385 150 356 123.5 c 128,-1,42
 327 97 327 97 305 64.5 c 128,-1,43
 283 32 283 32 275 0 c 1,44,-1
 221 0 l 2,45,46
 215 0 215 0 212 3 c 128,-1,47
 209 6 209 6 214 21 c 0,48,49
 224 44 224 44 239.5 83 c 128,-1,50
 255 122 255 122 271 194 c 2,51,-1
 281 245 l 2,52,53
 289 278 289 278 280 299 c 128,-1,54
 271 320 271 320 249 320 c 0,55,56
 224 320 224 320 208 306.5 c 128,-1,57
 192 293 192 293 187 271 c 0,58,59
 181 249 181 249 190 234.5 c 128,-1,60
 199 220 199 220 222 220 c 2,61,-1
 262 220 l 1,62,-1
 258 196 l 1,63,-1
 212 168 l 1,64,65
 168 168 168 168 146.5 197.5 c 128,-1,66
 125 227 125 227 136 271 c 0,67,68
 144 315 144 315 179.5 342.5 c 128,-1,69
 215 370 215 370 259 370 c 0,70,71
 312 370 312 370 330 334.5 c 128,-1,72
 348 299 348 299 337 256 c 2,73,74
 337 252 337 252 335 241.5 c 128,-1,75
 333 231 333 231 324 194 c 1,76,77
 321 187 321 187 316 169.5 c 128,-1,78
 311 152 311 152 303 133 c 0,79,80
 296 110 296 110 286 85 c 1,81,82
 326 159 326 159 385.5 194.5 c 128,-1,83
 445 230 445 230 494 230 c 0,84,85
 514 230 514 230 528 227 c 128,-1,86
 542 224 542 224 550 221 c 1,87,88
 554 228 554 228 558.5 243.5 c 128,-1,89
 563 259 563 259 566 273 c 2,90,-1
 594 408 l 2,0,1
573 103 m 0,91,92
 583 147 583 147 530 169 c 1,93,94
 502 153 502 153 489.5 136 c 128,-1,95
 477 119 477 119 474 103 c 0,96,97
 467 72 467 72 476.5 60.5 c 128,-1,98
 486 49 486 49 511 49 c 256,99,100
 536 49 536 49 551 60 c 128,-1,101
 566 71 566 71 573 103 c 0,91,92
EndSplineSet
EndChar
StartChar: uni0E0A
Encoding: 3594 3594 223
Width: 587
VWidth: 1473
Flags: W
HStem: -9 52<281.98 442.043> 379 53<205.987 264.436> 544 48<243.429 371.668>
Fore
633 625 m 1,0,1
 642 622 642 622 650 616 c 0,2,3
 657 611 657 611 664.5 606 c 128,-1,4
 672 601 672 601 676 594 c 1,5,6
 679 591 679 591 679 585 c 1,7,8
 676 579 676 579 672 575 c 0,9,10
 644 542 644 542 613.5 513.5 c 128,-1,11
 583 485 583 485 552 466 c 1,12,13
 560 460 560 460 569.5 451.5 c 128,-1,14
 579 443 579 443 587 430.5 c 128,-1,15
 595 418 595 418 599 399 c 128,-1,16
 603 380 603 380 597 354 c 2,17,-1
 557 166 l 2,18,19
 536 69 536 69 475.5 30 c 128,-1,20
 415 -9 415 -9 323 -9 c 0,21,22
 283 -9 283 -9 250 -1 c 128,-1,23
 217 7 217 7 195.5 25 c 128,-1,24
 174 43 174 43 165 71.5 c 128,-1,25
 156 100 156 100 165 141 c 2,26,-1
 180 214 l 2,27,28
 190 261 190 261 218.5 286.5 c 128,-1,29
 247 312 247 312 279 334.5 c 128,-1,30
 311 357 311 357 339.5 383.5 c 128,-1,31
 368 410 368 410 379 458 c 0,32,33
 387 501 387 501 372 522.5 c 128,-1,34
 357 544 357 544 301 544 c 0,35,36
 268 544 268 544 240 534 c 128,-1,37
 212 524 212 524 203 482 c 0,38,39
 199 463 199 463 207 447.5 c 128,-1,40
 215 432 215 432 236 432 c 0,41,42
 252 432 252 432 266 443 c 128,-1,43
 280 454 280 454 284 477 c 2,44,-1
 295 520 l 1,45,-1
 320 520 l 1,46,-1
 336 477 l 1,47,48
 327 433 327 433 297.5 406 c 128,-1,49
 268 379 268 379 224 379 c 256,50,51
 180 379 180 379 160.5 409 c 128,-1,52
 141 439 141 439 150 482 c 0,53,54
 161 529 161 529 205 560.5 c 128,-1,55
 249 592 249 592 317 592 c 0,56,57
 387 592 387 592 415 555.5 c 128,-1,58
 443 519 443 519 432 463 c 0,59,60
 418 399 418 399 389.5 366 c 128,-1,61
 361 333 361 333 330 311.5 c 128,-1,62
 299 290 299 290 273 271 c 128,-1,63
 247 252 247 252 239 214 c 2,64,-1
 222 137 l 2,65,66
 217 109 217 109 223.5 90.5 c 128,-1,67
 230 72 230 72 245.5 62 c 128,-1,68
 261 52 261 52 284.5 47.5 c 128,-1,69
 308 43 308 43 336 43 c 0,70,71
 404 43 404 43 442 61.5 c 128,-1,72
 480 80 480 80 494 144 c 0,73,74
 496 158 496 158 499 174 c 128,-1,75
 502 190 502 190 507.5 213.5 c 128,-1,76
 513 237 513 237 519.5 270 c 128,-1,77
 526 303 526 303 536 351 c 256,78,79
 547 398 547 398 532 420.5 c 128,-1,80
 517 443 517 443 504 443 c 0,81,82
 495 443 495 443 490.5 439.5 c 128,-1,83
 486 436 486 436 476 436 c 0,84,85
 471 436 471 436 467 442 c 128,-1,86
 463 448 463 448 460 454.5 c 128,-1,87
 457 461 457 461 457 467 c 128,-1,88
 457 473 457 473 461 474 c 0,89,90
 486 480 486 480 504 487 c 128,-1,91
 522 494 522 494 539 507 c 0,92,93
 561 523 561 523 579 543.5 c 128,-1,94
 597 564 597 564 608 582 c 0,95,96
 623 603 623 603 633 625 c 1,0,1
EndSplineSet
EndChar
StartChar: uni0E0B
Encoding: 3595 3595 224
Width: 608
VWidth: 1473
Flags: W
HStem: -2.5 48.5<254.533 261 295.5 306.651 306.651 321.696 314.174 457.2> 390 52<199.385 256.889> 542 52<214.251 275.532>
Fore
296 455 m 1,0,-1
 280 421 l 1,1,2
 247 390 247 390 218 390 c 0,3,4
 175 390 175 390 156.5 419.5 c 128,-1,5
 138 449 138 449 147 492 c 0,6,7
 159 544 159 544 193 569 c 128,-1,8
 227 594 227 594 261 594 c 0,9,10
 280 594 280 594 294 583.5 c 128,-1,11
 308 573 308 573 317 560 c 0,12,13
 327 544 327 544 334 526 c 1,14,-1
 414 600 l 1,15,16
 439 586 439 586 451 548 c 128,-1,17
 463 510 463 510 454 468 c 0,18,19
 440 405 440 405 409.5 373.5 c 128,-1,20
 379 342 379 342 345.5 320.5 c 128,-1,21
 312 299 312 299 283.5 277.5 c 128,-1,22
 255 256 255 256 246 214 c 2,23,-1
 228 130 l 2,24,25
 222 102 222 102 229.5 85 c 128,-1,26
 237 68 237 68 254 58.5 c 128,-1,27
 271 49 271 49 295.5 46 c 128,-1,28
 320 43 320 43 348 43 c 0,29,30
 415 43 415 43 458 61.5 c 128,-1,31
 501 80 501 80 514 144 c 0,32,33
 517 158 517 158 520 174 c 128,-1,34
 523 190 523 190 528 213.5 c 128,-1,35
 533 237 533 237 540 270 c 128,-1,36
 547 303 547 303 557 351 c 256,37,38
 567 398 567 398 552.5 420.5 c 128,-1,39
 538 443 538 443 524 443 c 0,40,41
 516 443 516 443 511.5 439.5 c 128,-1,42
 507 436 507 436 496 436 c 0,43,44
 492 436 492 436 487.5 442 c 128,-1,45
 483 448 483 448 480 454.5 c 128,-1,46
 477 461 477 461 477 467 c 128,-1,47
 477 473 477 473 482 474 c 0,48,49
 507 480 507 480 524.5 487 c 128,-1,50
 542 494 542 494 560 507 c 0,51,52
 582 523 582 523 599.5 543.5 c 128,-1,53
 617 564 617 564 629 582 c 0,54,55
 644 603 644 603 654 625 c 1,56,57
 663 622 663 622 670 616 c 0,58,59
 678 611 678 611 685 606 c 128,-1,60
 692 601 692 601 697 594 c 1,61,62
 700 591 700 591 700 585 c 1,63,64
 697 579 697 579 692 575 c 0,65,66
 664 542 664 542 634 513.5 c 128,-1,67
 604 485 604 485 573 466 c 1,68,69
 580 460 580 460 590 451.5 c 128,-1,70
 600 443 600 443 608 430.5 c 128,-1,71
 616 418 616 418 619.5 399 c 128,-1,72
 623 380 623 380 617 354 c 2,73,-1
 577 166 l 2,74,75
 557 69 557 69 492 30 c 128,-1,76
 427 -9 427 -9 334 -9 c 0,77,78
 295 -9 295 -9 261 -2.5 c 128,-1,79
 227 4 227 4 204 21 c 128,-1,80
 181 38 181 38 171.5 65.5 c 128,-1,81
 162 93 162 93 171 134 c 2,82,-1
 187 214 l 2,83,84
 194 249 194 249 212 272.5 c 128,-1,85
 230 296 230 296 252 313 c 128,-1,86
 274 330 274 330 298.5 343.5 c 128,-1,87
 323 357 323 357 344 373 c 128,-1,88
 365 389 365 389 382 411 c 128,-1,89
 399 433 399 433 407 466 c 0,90,91
 412 494 412 494 408.5 513 c 128,-1,92
 405 532 405 532 399 539 c 1,93,-1
 320 468 l 1,94,95
 305 486 305 486 297 500 c 128,-1,96
 289 514 289 514 282 523.5 c 128,-1,97
 275 533 275 533 268.5 537.5 c 128,-1,98
 262 542 262 542 250 542 c 0,99,100
 231 542 231 542 217 528 c 128,-1,101
 203 514 203 514 199 494 c 0,102,103
 193 471 193 471 200.5 456.5 c 128,-1,104
 208 442 208 442 230 442 c 0,105,106
 239 442 239 442 252 448.5 c 128,-1,107
 265 455 265 455 286 473 c 1,108,-1
 296 455 l 1,0,-1
EndSplineSet
EndChar
StartChar: uni0E0C
Encoding: 3596 3596 225
Width: 934
VWidth: 1473
Flags: W
HStem: -9 52<181.902 257.456 458.078 515.261> 220 42<607 692.075> 392 28<265 331> 547 51<373.066 498.984>
VStem: 579 58.5<397.322 512.887> 784 70<3.09668 48.75>
Fore
552 259 m 1,0,1
 554 268 554 268 557 283.5 c 128,-1,2
 560 299 560 299 562 315 c 128,-1,3
 564 331 564 331 566.5 346 c 128,-1,4
 569 361 569 361 570 367 c 0,5,6
 582 424 582 424 579 459 c 128,-1,7
 576 494 576 494 558.5 513.5 c 128,-1,8
 541 533 541 533 511.5 540 c 128,-1,9
 482 547 482 547 440 547 c 0,10,11
 404 547 404 547 366.5 538 c 128,-1,12
 329 529 329 529 297 516.5 c 128,-1,13
 265 504 265 504 245 492 c 128,-1,14
 225 480 225 480 224 473 c 0,15,16
 222 468 222 468 227.5 459.5 c 128,-1,17
 233 451 233 451 239.5 442 c 128,-1,18
 246 433 246 433 253.5 426.5 c 128,-1,19
 261 420 261 420 265 420 c 0,20,21
 277 420 277 420 292.5 429.5 c 128,-1,22
 308 439 308 439 321 439 c 0,23,24
 326 439 326 439 330 431.5 c 128,-1,25
 334 424 334 424 336.5 415.5 c 128,-1,26
 339 407 339 407 338 399.5 c 128,-1,27
 337 392 337 392 331 392 c 0,28,29
 309 392 309 392 291.5 387.5 c 128,-1,30
 274 383 274 383 258.5 369 c 128,-1,31
 243 355 243 355 231.5 329 c 128,-1,32
 220 303 220 303 211 262 c 2,33,-1
 180 113 l 2,34,35
 172 80 172 80 182 61.5 c 128,-1,36
 192 43 192 43 214 43 c 0,37,38
 239 43 239 43 255 59 c 128,-1,39
 271 75 271 75 277 97 c 0,40,41
 281 119 281 119 271.5 134.5 c 128,-1,42
 262 150 262 150 240 150 c 2,43,-1
 199 150 l 1,44,-1
 205 174 l 1,45,-1
 252 202 l 1,46,47
 295 202 295 202 317 171.5 c 128,-1,48
 339 141 339 141 330 97 c 0,49,50
 320 53 320 53 283 22 c 128,-1,51
 246 -9 246 -9 202 -9 c 0,52,53
 152 -9 152 -9 130.5 25.5 c 128,-1,54
 109 60 109 60 125 133 c 2,55,-1
 152 262 l 2,56,57
 164 318 164 318 180.5 344 c 128,-1,58
 197 370 197 370 227 395 c 1,59,60
 222 398 222 398 211 406.5 c 128,-1,61
 200 415 200 415 189 426.5 c 128,-1,62
 178 438 178 438 171 449.5 c 128,-1,63
 164 461 164 461 165 470 c 0,64,65
 168 483 168 483 194 505 c 128,-1,66
 220 527 220 527 259.5 548 c 128,-1,67
 299 569 299 569 349 583.5 c 128,-1,68
 399 598 399 598 452 598 c 0,69,70
 502 598 502 598 542 587.5 c 128,-1,71
 582 577 582 577 606.5 550.5 c 128,-1,72
 631 524 631 524 637.5 479.5 c 128,-1,73
 644 435 644 435 629 367 c 2,74,-1
 607 262 l 1,75,76
 681 258 681 258 738.5 219 c 128,-1,77
 796 180 796 180 812 105 c 1,78,79
 813 122 813 122 818.5 150 c 128,-1,80
 824 178 824 178 829.5 207.5 c 128,-1,81
 835 237 835 237 841 265 c 128,-1,82
 847 293 847 293 850 311 c 2,83,-1
 910 589 l 1,84,-1
 969 589 l 1,85,-1
 913 327 l 2,86,87
 903 278 903 278 892.5 228 c 128,-1,88
 882 178 882 178 874 136 c 128,-1,89
 866 94 866 94 860 63 c 128,-1,90
 854 32 854 32 854 21 c 0,91,92
 854 6 854 6 850.5 3 c 128,-1,93
 847 0 847 0 841 0 c 2,94,-1
 784 0 l 1,95,96
 781 97 781 97 735 154.5 c 128,-1,97
 689 212 689 212 600 220 c 1,98,-1
 585 140 l 2,99,100
 579 110 579 110 573 83.5 c 128,-1,101
 567 57 567 57 555.5 36.5 c 128,-1,102
 544 16 544 16 524.5 3.5 c 128,-1,103
 505 -9 505 -9 471 -9 c 0,104,105
 427 -9 427 -9 408.5 20.5 c 128,-1,106
 390 50 390 50 402 110 c 0,107,108
 417 177 417 177 461 213.5 c 128,-1,109
 505 250 505 250 552 259 c 1,0,1
545 217 m 1,110,111
 517 209 517 209 491.5 183.5 c 128,-1,112
 466 158 466 158 457 113 c 0,113,114
 449 81 449 81 458 62.5 c 128,-1,115
 467 44 467 44 483 44 c 0,116,117
 511 44 511 44 517.5 71.5 c 128,-1,118
 524 99 524 99 532 136 c 0,119,120
 535 146 535 146 538 169 c 128,-1,121
 541 192 541 192 545 217 c 1,110,111
EndSplineSet
EndChar
StartChar: uni0E0D
Encoding: 3597 3597 226
Width: 957
VWidth: 1473
Flags: W
HStem: -262 44<530.653 689.935> -109 49<525.535 581.364> -9 52<181.902 257.456 606.367 756.001> 392 28<265 331> 547 51<359.982 484.449>
VStem: 564 58.5<397.322 459 459 512.887>
Fore
199 150 m 1,0,-1
 205 174 l 1,1,-1
 252 202 l 1,2,3
 295 202 295 202 317 171.5 c 128,-1,4
 339 141 339 141 330 97 c 0,5,6
 320 53 320 53 283 22 c 128,-1,7
 246 -9 246 -9 202 -9 c 0,8,9
 152 -9 152 -9 130.5 25.5 c 128,-1,10
 109 60 109 60 125 133 c 2,11,-1
 152 262 l 2,12,13
 164 318 164 318 180.5 344 c 128,-1,14
 197 370 197 370 227 395 c 1,15,16
 222 398 222 398 211 406.5 c 128,-1,17
 200 415 200 415 189 426.5 c 128,-1,18
 178 438 178 438 171 449.5 c 128,-1,19
 164 461 164 461 165 470 c 0,20,21
 168 483 168 483 191.5 505 c 128,-1,22
 215 527 215 527 252 548 c 128,-1,23
 289 569 289 569 337 583.5 c 128,-1,24
 385 598 385 598 438 598 c 0,25,26
 488 598 488 598 527.5 587.5 c 128,-1,27
 567 577 567 577 591.5 550.5 c 128,-1,28
 616 524 616 524 622.5 479.5 c 128,-1,29
 629 435 629 435 614 367 c 0,30,31
 610 349 610 349 607 336.5 c 0,32,-1
 595 286.5 l 0,33,34
 586 249 586 249 580.5 225.5 c 128,-1,35
 575 202 575 202 572 187 c 0,36,37
 564 152 564 152 562 124.5 c 128,-1,38
 560 97 560 97 569 82 c 0,39,40
 595 43 595 43 685 43 c 0,41,42
 772 43 772 43 816 82 c 0,43,44
 832 97 832 97 840.5 118.5 c 128,-1,45
 849 140 849 140 856 169 c 0,46,47
 862 194 862 194 870 238.5 c 128,-1,48
 878 283 878 283 885 320 c 2,49,-1
 943 589 l 1,50,-1
 1002 589 l 1,51,-1
 918 194 l 2,52,53
 906 138 906 138 893 106.5 c 128,-1,54
 880 75 880 75 854 52 c 0,55,56
 810 12 810 12 761.5 1.5 c 128,-1,57
 713 -9 713 -9 673 -9 c 256,58,59
 633 -9 633 -9 589 1.5 c 128,-1,60
 545 12 545 12 519 52 c 0,61,62
 504 74 504 74 507 110.5 c 128,-1,63
 510 147 510 147 520 194 c 2,64,-1
 555 367 l 2,65,66
 567 424 567 424 564 459 c 128,-1,67
 561 494 561 494 543.5 513.5 c 128,-1,68
 526 533 526 533 496.5 540 c 128,-1,69
 467 547 467 547 426 547 c 0,70,71
 389 547 389 547 353.5 538 c 128,-1,72
 318 529 318 529 289.5 516.5 c 128,-1,73
 261 504 261 504 243 492 c 128,-1,74
 225 480 225 480 224 473 c 0,75,76
 222 468 222 468 227.5 459.5 c 128,-1,77
 233 451 233 451 239.5 442 c 128,-1,78
 246 433 246 433 253.5 426.5 c 128,-1,79
 261 420 261 420 265 420 c 0,80,81
 277 420 277 420 292.5 429.5 c 128,-1,82
 308 439 308 439 321 439 c 0,83,84
 326 439 326 439 330 431.5 c 128,-1,85
 334 424 334 424 336.5 415.5 c 128,-1,86
 339 407 339 407 338 399.5 c 128,-1,87
 337 392 337 392 331 392 c 0,88,89
 309 392 309 392 291.5 387.5 c 128,-1,90
 274 383 274 383 258.5 369 c 128,-1,91
 243 355 243 355 231.5 329 c 128,-1,92
 220 303 220 303 211 262 c 2,93,-1
 180 113 l 2,94,95
 172 80 172 80 182 61.5 c 128,-1,96
 192 43 192 43 214 43 c 0,97,98
 239 43 239 43 255 59 c 128,-1,99
 271 75 271 75 277 97 c 0,100,101
 281 119 281 119 271.5 134.5 c 128,-1,102
 262 150 262 150 240 150 c 2,103,-1
 199 150 l 1,0,-1
850 -71 m 1,104,105
 841 -113 841 -113 825 -148.5 c 128,-1,106
 809 -184 809 -184 781.5 -209 c 128,-1,107
 754 -234 754 -234 713 -248 c 128,-1,108
 672 -262 672 -262 613 -262 c 0,109,110
 530 -262 530 -262 494 -231 c 128,-1,111
 458 -200 458 -200 470 -149 c 0,112,113
 480 -105 480 -105 510.5 -82.5 c 128,-1,114
 541 -60 541 -60 573 -60 c 0,115,116
 607 -60 607 -60 624.5 -81.5 c 128,-1,117
 642 -103 642 -103 632 -146 c 1,118,-1
 600 -189 l 1,119,-1
 576 -189 l 1,120,-1
 585 -146 l 2,121,122
 589 -125 589 -125 582 -117 c 128,-1,123
 575 -109 575 -109 563 -109 c 0,124,125
 527 -109 527 -109 519 -149 c 0,126,127
 511 -186 511 -186 533 -202 c 128,-1,128
 555 -218 555 -218 617 -218 c 0,129,130
 656 -218 656 -218 685.5 -211.5 c 128,-1,131
 715 -205 715 -205 735.5 -188 c 128,-1,132
 756 -171 756 -171 770 -142 c 128,-1,133
 784 -113 784 -113 793 -71 c 1,134,-1
 850 -71 l 1,104,105
EndSplineSet
Substitution2: "Single Substitution lookup 27 subtable" uni0E0D.alt1
Substitution2: "Single Substitution lookup 27 subtable" uni0E0D.alt1
EndChar
StartChar: uni0E0E
Encoding: 3598 3598 227
Width: 673
VWidth: 1473
Flags: W
HStem: -253 45<197.273 296.353> -127 45<203.604 296.14 293.546 298.734 298.734 313 331.5 348.381> -9 52<112.109 191.656> 147 49<125.409 171> 547 51<406.982 531.449>
VStem: 220 54<119.375 182.515 182.515 220.485 220.485 230.758 230.758 283.98> 611 58.5<394.125 459 459 512.887>
Fore
161 147 m 2,0,1
 138 147 138 147 125 131.5 c 128,-1,2
 112 116 112 116 108 94 c 256,3,4
 103 72 103 72 113.5 57.5 c 128,-1,5
 124 43 124 43 149 43 c 0,6,7
 171 43 171 43 188.5 57.5 c 128,-1,8
 206 72 206 72 214 106 c 0,9,10
 220 133 220 133 220 158 c 128,-1,11
 220 183 220 183 219 207 c 128,-1,12
 218 231 218 231 218 254.5 c 128,-1,13
 218 278 218 278 222 301 c 0,14,15
 230 336 230 336 244 355 c 128,-1,16
 258 374 258 374 277 393 c 1,17,18
 273 396 273 396 261.5 405.5 c 128,-1,19
 250 415 250 415 238.5 426.5 c 128,-1,20
 227 438 227 438 219 449.5 c 128,-1,21
 211 461 211 461 212 470 c 0,22,23
 215 483 215 483 238.5 505 c 128,-1,24
 262 527 262 527 299 548 c 128,-1,25
 336 569 336 569 384 583.5 c 128,-1,26
 432 598 432 598 485 598 c 0,27,28
 535 598 535 598 574.5 587.5 c 128,-1,29
 614 577 614 577 638.5 550.5 c 128,-1,30
 663 524 663 524 669.5 479.5 c 128,-1,31
 676 435 676 435 661 367 c 2,32,-1
 530 -250 l 1,33,-1
 470 -250 l 1,34,35
 463 -231 463 -231 441.5 -206 c 128,-1,36
 420 -181 420 -181 387 -161 c 1,37,38
 358 -194 358 -194 315.5 -223.5 c 128,-1,39
 273 -253 273 -253 217 -253 c 0,40,41
 174 -253 174 -253 156 -228 c 128,-1,42
 138 -203 138 -203 146 -169 c 0,43,44
 153 -131 153 -131 191.5 -106.5 c 128,-1,45
 230 -82 230 -82 278 -82 c 0,46,47
 306 -82 306 -82 331.5 -88 c 128,-1,48
 357 -94 357 -94 377 -103 c 1,49,50
 383 -93 383 -93 387.5 -85 c 128,-1,51
 392 -77 392 -77 395 -69 c 2,52,53
 399 -62 399 -62 401 -55 c 1,54,55
 410 -57 410 -57 417 -60 c 0,56,57
 433 -66 433 -66 440 -74 c 0,58,59
 443 -77 443 -77 441.5 -82 c 128,-1,60
 440 -87 440 -87 438 -91 c 0,61,62
 435 -97 435 -97 430.5 -105 c 128,-1,63
 426 -113 426 -113 418 -124 c 1,64,65
 442 -140 442 -140 459 -158.5 c 128,-1,66
 476 -177 476 -177 486 -193 c 1,67,68
 489 -175 489 -175 495.5 -142 c 128,-1,69
 502 -109 502 -109 515.5 -46.5 c 128,-1,70
 529 16 529 16 549.5 115.5 c 128,-1,71
 570 215 570 215 603 367 c 0,72,73
 614 424 614 424 611 459 c 128,-1,74
 608 494 608 494 590.5 513.5 c 128,-1,75
 573 533 573 533 543.5 540 c 128,-1,76
 514 547 514 547 473 547 c 0,77,78
 436 547 436 547 400.5 538 c 128,-1,79
 365 529 365 529 336.5 516.5 c 128,-1,80
 308 504 308 504 290.5 492 c 128,-1,81
 273 480 273 480 271 473 c 0,82,83
 270 468 270 468 275 459.5 c 128,-1,84
 280 451 280 451 286.5 442 c 128,-1,85
 293 433 293 433 300.5 426.5 c 128,-1,86
 308 420 308 420 312 420 c 0,87,88
 324 420 324 420 339.5 429.5 c 128,-1,89
 355 439 355 439 368 439 c 0,90,91
 373 439 373 439 377.5 431.5 c 128,-1,92
 382 424 382 424 384 415.5 c 128,-1,93
 386 407 386 407 385.5 399.5 c 128,-1,94
 385 392 385 392 379 392 c 0,95,96
 357 392 357 392 341.5 387.5 c 128,-1,97
 326 383 326 383 314 372.5 c 128,-1,98
 302 362 302 362 294.5 344.5 c 128,-1,99
 287 327 287 327 281 299 c 0,100,101
 275 274 275 274 274.5 247 c 128,-1,102
 274 220 274 220 274 194 c 128,-1,103
 274 168 274 168 274 145 c 128,-1,104
 274 122 274 122 271 106 c 0,105,106
 259 50 259 50 224 20.5 c 128,-1,107
 189 -9 189 -9 137 -9 c 0,108,109
 93 -9 93 -9 70 20.5 c 128,-1,110
 47 50 47 50 56 94 c 0,111,112
 66 138 66 138 98 167 c 128,-1,113
 130 196 130 196 171 196 c 1,114,-1
 199 171 l 1,115,-1
 194 147 l 1,116,-1
 161 147 l 2,0,1
225 -208 m 0,117,118
 265 -208 265 -208 296 -188 c 128,-1,119
 327 -168 327 -168 349 -141 c 1,120,121
 331 -134 331 -134 313 -130.5 c 128,-1,122
 295 -127 295 -127 274 -127 c 0,123,124
 200 -127 200 -127 192 -172 c 0,125,126
 187 -192 187 -192 196.5 -200 c 128,-1,127
 206 -208 206 -208 225 -208 c 0,117,118
EndSplineSet
Substitution2: "Single Substitution lookup 27 subtable" uni0E0E.alt1
Substitution2: "Single Substitution lookup 27 subtable" uni0E0E.alt1
EndChar
StartChar: uni0E0F
Encoding: 3599 3599 228
Width: 673
VWidth: 1473
Flags: W
HStem: -259 45<151.188 205.163> -131 46<170.974 230.788> -9 52<112.109 191.656> 147 49<125.409 171> 547 51<406.982 531.449>
VStem: 220 54<119.375 182.515 182.515 220.485 220.485 230.758 230.758 283.98> 611 58.5<394.125 459 459 512.887>
Fore
194 147 m 1,0,-1
 161 147 l 2,1,2
 138 147 138 147 125 131.5 c 128,-1,3
 112 116 112 116 108 94 c 256,4,5
 103 72 103 72 113.5 57.5 c 128,-1,6
 124 43 124 43 149 43 c 0,7,8
 171 43 171 43 188.5 57.5 c 128,-1,9
 206 72 206 72 214 106 c 0,10,11
 220 133 220 133 220 158 c 128,-1,12
 220 183 220 183 219 207 c 128,-1,13
 218 231 218 231 218 254.5 c 128,-1,14
 218 278 218 278 222 301 c 0,15,16
 230 336 230 336 244 355 c 128,-1,17
 258 374 258 374 277 393 c 1,18,19
 273 396 273 396 261.5 405.5 c 128,-1,20
 250 415 250 415 238.5 426.5 c 128,-1,21
 227 438 227 438 219 449.5 c 128,-1,22
 211 461 211 461 212 470 c 0,23,24
 215 483 215 483 238.5 505 c 128,-1,25
 262 527 262 527 299 548 c 128,-1,26
 336 569 336 569 384 583.5 c 128,-1,27
 432 598 432 598 485 598 c 0,28,29
 535 598 535 598 574.5 587.5 c 128,-1,30
 614 577 614 577 638.5 550.5 c 128,-1,31
 663 524 663 524 669.5 479.5 c 128,-1,32
 676 435 676 435 661 367 c 2,33,-1
 526 -265 l 1,34,-1
 463 -265 l 1,35,-1
 404 -206 l 1,36,-1
 323 -262 l 1,37,-1
 281 -206 l 1,38,39
 252 -236 252 -236 225.5 -247.5 c 128,-1,40
 199 -259 199 -259 169 -259 c 0,41,42
 131 -259 131 -259 115 -232.5 c 128,-1,43
 99 -206 99 -206 106 -177 c 0,44,45
 115 -134 115 -134 143.5 -109.5 c 128,-1,46
 172 -85 172 -85 206 -85 c 0,47,48
 236 -85 236 -85 255 -100.5 c 128,-1,49
 274 -116 274 -116 286 -130 c 1,50,51
 293 -116 293 -116 300.5 -95.5 c 128,-1,52
 308 -75 308 -75 311 -63 c 1,53,54
 318 -63 318 -63 324 -65 c 0,55,56
 337 -68 337 -68 348 -74 c 0,57,58
 352 -77 352 -77 351.5 -82 c 128,-1,59
 351 -87 351 -87 348 -94 c 0,60,61
 345 -105 345 -105 338 -116 c 128,-1,62
 331 -127 331 -127 324 -137 c 0,63,64
 309 -161 l 1,65,-1
 340 -202 l 1,66,-1
 412 -153 l 1,67,-1
 482 -212 l 1,68,69
 486 -194 486 -194 493.5 -158 c 128,-1,70
 501 -122 501 -122 514 -56 c 128,-1,71
 527 10 527 10 548.5 112.5 c 128,-1,72
 570 215 570 215 603 367 c 0,73,74
 614 424 614 424 611 459 c 128,-1,75
 608 494 608 494 590.5 513.5 c 128,-1,76
 573 533 573 533 543.5 540 c 128,-1,77
 514 547 514 547 473 547 c 0,78,79
 436 547 436 547 400.5 538 c 128,-1,80
 365 529 365 529 336.5 516.5 c 128,-1,81
 308 504 308 504 290.5 492 c 128,-1,82
 273 480 273 480 271 473 c 0,83,84
 270 468 270 468 275 459.5 c 128,-1,85
 280 451 280 451 286.5 442 c 128,-1,86
 293 433 293 433 300.5 426.5 c 128,-1,87
 308 420 308 420 312 420 c 0,88,89
 324 420 324 420 339.5 429.5 c 128,-1,90
 355 439 355 439 368 439 c 0,91,92
 373 439 373 439 377.5 431.5 c 128,-1,93
 382 424 382 424 384 415.5 c 128,-1,94
 386 407 386 407 385.5 399.5 c 128,-1,95
 385 392 385 392 379 392 c 0,96,97
 357 392 357 392 341.5 387.5 c 128,-1,98
 326 383 326 383 314 372.5 c 128,-1,99
 302 362 302 362 294.5 344.5 c 128,-1,100
 287 327 287 327 281 299 c 0,101,102
 275 274 275 274 274.5 247 c 128,-1,103
 274 220 274 220 274 194 c 128,-1,104
 274 168 274 168 274 145 c 128,-1,105
 274 122 274 122 271 106 c 0,106,107
 259 50 259 50 224 20.5 c 128,-1,108
 189 -9 189 -9 137 -9 c 0,109,110
 93 -9 93 -9 70 20.5 c 128,-1,111
 47 50 47 50 56 94 c 0,112,113
 66 138 66 138 98 167 c 128,-1,114
 130 196 130 196 171 196 c 1,115,-1
 199 171 l 1,116,-1
 194 147 l 1,0,-1
259 -174 m 1,117,118
 245 -153 245 -153 231.5 -142 c 128,-1,119
 218 -131 218 -131 200 -131 c 256,120,121
 183 -131 183 -131 169.5 -142 c 128,-1,122
 156 -153 156 -153 152 -175 c 0,123,124
 144 -214 144 -214 184 -214 c 0,125,126
 202 -214 202 -214 220.5 -207 c 128,-1,127
 239 -200 239 -200 259 -174 c 1,117,118
EndSplineSet
Substitution2: "Single Substitution lookup 27 subtable" uni0E0F.alt1
Substitution2: "Single Substitution lookup 27 subtable" uni0E0F.alt1
EndChar
StartChar: uni0E10
Encoding: 3600 3600 229
Width: 602
VWidth: 1473
Flags: W
HStem: -290 41<79.5627 129.392> -174 43<86.9844 166.054> -100 41<375.205 434.773> 1.5 39.5<344.942 365.243 365.243 374.242 369.742 408.996 406.273 411.72 411.72 439.934> 255 53<234.177 314.516> 377 53<230.909 325.297 325.297 326.471 326.471 437.376> 520 60.5<413.042 465.335 465.335 474.819 470.077 535.293 524.242 546.344 546.344 550.5 574.5 599.28> 538 51<253.768 349.589 575.884 600 600 635>
VStem: 322.5 50<165.254 228.092>
Fore
178 -211 m 1,0,1
 153 -174 153 -174 122 -174 c 0,2,3
 90 -174 90 -174 81 -212 c 0,4,5
 72 -249 72 -249 109 -249 c 0,6,7
 125 -249 125 -249 142 -242.5 c 128,-1,8
 159 -236 159 -236 178 -211 c 1,0,1
292 138 m 1,9,-1
 243 112 l 1,10,11
 199 112 199 112 177 138.5 c 128,-1,12
 155 165 155 165 165 209 c 0,13,14
 174 253 174 253 208.5 280.5 c 128,-1,15
 243 308 243 308 287 308 c 0,16,17
 329 308 329 308 348.5 289 c 128,-1,18
 368 270 368 270 372.5 236 c 128,-1,19
 377 202 377 202 368 154 c 128,-1,20
 359 106 359 106 345 49 c 0,21,22
 343 44 343 44 358.5 41 c 128,-1,23
 374 38 374 38 390 38 c 256,24,25
 407 38 407 38 422.5 41 c 128,-1,26
 438 44 438 44 440 50 c 0,27,28
 460 116 460 116 480.5 182.5 c 128,-1,29
 501 249 501 249 513 301 c 0,30,31
 516 315 516 315 515 330 c 128,-1,32
 514 345 514 345 502.5 356.5 c 128,-1,33
 491 368 491 368 463.5 375.5 c 128,-1,34
 436 383 436 383 387 383 c 0,35,36
 342 383 342 383 300.5 377 c 128,-1,37
 259 371 259 371 230 371 c 0,38,39
 187 371 187 371 177.5 398.5 c 128,-1,40
 168 426 168 426 177 466 c 0,41,42
 189 526 189 526 229.5 557.5 c 128,-1,43
 270 589 270 589 324 589 c 0,44,45
 334 589 334 589 355 587.5 c 128,-1,46
 376 586 376 586 401 584 c 128,-1,47
 426 582 426 582 451.5 580.5 c 128,-1,48
 477 579 477 579 498 579 c 0,49,50
 524 579 524 579 550.5 582.5 c 128,-1,51
 577 586 577 586 600 591 c 0,52,53
 626 597 626 597 648 603 c 1,54,55
 651 582 l 0,56,57
 653 573 653 573 653.5 564 c 128,-1,58
 654 555 654 555 653 548 c 0,59,60
 651 539 651 539 635 533 c 0,61,62
 619 529 619 529 574.5 524.5 c 128,-1,63
 530 520 530 520 488 520 c 0,64,65
 468 520 468 520 442.5 523 c 128,-1,66
 417 526 417 526 392 529 c 128,-1,67
 367 532 367 532 345.5 535 c 128,-1,68
 324 538 324 538 315 538 c 0,69,70
 273 538 273 538 255 519.5 c 128,-1,71
 237 501 237 501 230 467 c 0,72,73
 224 439 224 439 230 431.5 c 128,-1,74
 236 424 236 424 265 424 c 256,75,76
 295 424 295 424 341 430 c 128,-1,77
 387 436 387 436 439 436 c 0,78,79
 517 436 517 436 551 400.5 c 128,-1,80
 585 365 585 365 573 309 c 0,81,82
 569 289 569 289 558.5 255.5 c 128,-1,83
 548 222 548 222 535 182.5 c 128,-1,84
 522 143 522 143 508 100 c 128,-1,85
 494 57 494 57 482 18 c 0,86,87
 479 6 479 6 449.5 1 c 128,-1,88
 420 -4 420 -4 386 -4 c 0,89,90
 349 -4 349 -4 316 1.5 c 128,-1,91
 283 7 283 7 286 19 c 0,92,93
 301 80 301 80 311 124 c 128,-1,94
 321 168 321 168 322.5 196.5 c 128,-1,95
 324 225 324 225 313 240 c 128,-1,96
 302 255 302 255 275 255 c 0,97,98
 255 255 255 255 238 241.5 c 128,-1,99
 221 228 221 228 218 209 c 0,100,101
 214 193 214 193 222.5 178.5 c 128,-1,102
 231 164 231 164 253 164 c 2,103,-1
 298 164 l 1,104,-1
 292 138 l 1,9,-1
202 -174 m 1,105,106
 211 -161 211 -161 217.5 -139.5 c 128,-1,107
 224 -118 224 -118 227 -106 c 1,108,109
 234 -106 234 -106 240 -108 c 0,110,111
 253 -110 253 -110 264 -116 c 0,112,113
 268 -119 268 -119 267.5 -124.5 c 128,-1,114
 267 -130 267 -130 264 -137 c 0,115,116
 261 -147 261 -147 254 -158 c 0,117,-1
 240 -180 l 0,118,119
 233 -192 233 -192 224 -203 c 1,120,-1
 252 -239 l 1,121,-1
 315 -208 l 1,122,-1
 380 -246 l 1,123,124
 387 -215 387 -215 408 -194.5 c 128,-1,125
 429 -174 429 -174 436 -143 c 0,126,127
 439 -127 439 -127 434 -113.5 c 128,-1,128
 429 -100 429 -100 411 -100 c 0,129,130
 379 -100 379 -100 371 -134 c 0,131,132
 368 -146 368 -146 372.5 -152.5 c 128,-1,133
 377 -159 377 -159 382 -164 c 2,134,-1
 398 -178 l 1,135,-1
 382 -194 l 1,136,-1
 349 -189 l 1,137,138
 339 -178 339 -178 334 -165 c 128,-1,139
 329 -152 329 -152 331 -137 c 0,140,141
 339 -100 339 -100 364.5 -79.5 c 128,-1,142
 390 -59 390 -59 423 -59 c 0,143,144
 466 -59 466 -59 479 -85.5 c 128,-1,145
 492 -112 492 -112 485 -141 c 0,146,147
 479 -168 479 -168 455.5 -204 c 128,-1,148
 432 -240 432 -240 421 -289 c 1,149,-1
 355 -289 l 1,150,-1
 306 -255 l 1,151,-1
 234 -292 l 1,152,-1
 197 -242 l 1,153,154
 171 -268 171 -268 147.5 -279 c 128,-1,155
 124 -290 124 -290 97 -290 c 0,156,157
 62 -290 62 -290 47 -266 c 128,-1,158
 32 -242 32 -242 40 -214 c 0,159,160
 47 -175 47 -175 73.5 -153 c 128,-1,161
 100 -131 100 -131 131 -131 c 0,162,163
 158 -131 158 -131 175.5 -146.5 c 128,-1,164
 193 -162 193 -162 202 -174 c 1,105,106
EndSplineSet
Substitution2: "Single Substitution lookup 27 subtable" uni0E10.alt1
Substitution2: "Single Substitution lookup 27 subtable" uni0E10.alt1
EndChar
StartChar: uni0E11
Encoding: 3601 3601 230
Width: 679
VWidth: 1473
Flags: W
HStem: 0 21G<155 212.308 539 602.24> 401 48<175.748 232.084> 533 61<559.409 631.432> 545 49<189.409 249.908>
Fore
268 461 m 1,0,-1
 253 430 l 1,1,2
 222 401 222 401 190 401 c 0,3,4
 153 401 153 401 135.5 426.5 c 128,-1,5
 118 452 118 452 125 492 c 0,6,7
 137 544 137 544 168.5 569 c 128,-1,8
 200 594 200 594 228 594 c 0,9,10
 247 594 247 594 260.5 585.5 c 128,-1,11
 274 577 274 577 281 567 c 0,12,13
 290 555 290 555 296 541 c 1,14,-1
 362 600 l 1,15,16
 383 583 383 583 396.5 561 c 128,-1,17
 410 539 410 539 402 501 c 0,18,19
 393 460 393 460 374 435.5 c 128,-1,20
 355 411 355 411 334.5 390.5 c 128,-1,21
 314 370 314 370 294 344 c 128,-1,22
 274 318 274 318 265 271 c 2,23,-1
 239 168 l 1,24,25
 259 205 259 205 288.5 250.5 c 128,-1,26
 318 296 318 296 350.5 343 c 128,-1,27
 383 390 383 390 419 436 c 128,-1,28
 455 482 455 482 490.5 516.5 c 128,-1,29
 526 551 526 551 559 572.5 c 128,-1,30
 592 594 592 594 620 594 c 0,31,32
 682 594 682 594 697 563.5 c 128,-1,33
 712 533 712 533 697 467 c 2,34,-1
 598 0 l 1,35,-1
 539 0 l 1,36,-1
 638 467 l 2,37,38
 644 494 644 494 642.5 507 c 128,-1,39
 641 520 641 520 635 526 c 128,-1,40
 629 532 629 532 621.5 532.5 c 128,-1,41
 614 533 614 533 607 533 c 0,42,43
 585 533 585 533 554 509.5 c 128,-1,44
 523 486 523 486 487.5 448 c 128,-1,45
 452 410 452 410 415.5 359.5 c 128,-1,46
 379 309 379 309 344 257.5 c 128,-1,47
 309 206 309 206 277.5 155.5 c 128,-1,48
 246 105 246 105 222 65 c 1,49,-1
 208 0 l 1,50,-1
 158 0 l 2,51,52
 152 0 152 0 149 3 c 128,-1,53
 146 6 146 6 150 21 c 0,54,55
 161 44 161 44 175.5 106.5 c 128,-1,56
 190 169 190 169 211 268 c 0,57,58
 221 317 221 317 242.5 347 c 128,-1,59
 264 377 264 377 287.5 400 c 128,-1,60
 311 423 311 423 331 443.5 c 128,-1,61
 351 464 351 464 357 495 c 0,62,63
 359 507 359 507 358.5 516.5 c 128,-1,64
 358 526 358 526 355 533 c 256,65,66
 352 541 352 541 349 547 c 1,67,-1
 281 486 l 1,68,69
 262 522 262 522 252 533.5 c 128,-1,70
 242 545 242 545 224 545 c 0,71,72
 205 545 205 545 191.5 529.5 c 128,-1,73
 178 514 178 514 174 494 c 0,74,75
 169 474 169 474 177.5 461.5 c 128,-1,76
 186 449 186 449 205 449 c 0,77,78
 214 449 214 449 225.5 455 c 128,-1,79
 237 461 237 461 258 479 c 1,80,-1
 268 461 l 1,0,-1
EndSplineSet
EndChar
StartChar: uni0E12
Encoding: 3602 3602 231
Width: 956
VWidth: 1473
Flags: W
HStem: -9 53<472.456 520.887> 220 47<623 713.483> 376 51<341.793 419.76> 578 20<305 378.323 523.692 582 928.612 991>
VStem: 118 65<12.123 72.1456> 137 59<224.312 309.395> 806 71<3.54199 51.2314>
Fore
329 247 m 1,0,-1
 284 253 l 1,1,2
 273 270 273 270 270 287.5 c 128,-1,3
 267 305 267 305 270 324 c 0,4,5
 280 367 280 367 316 397 c 128,-1,6
 352 427 352 427 395 427 c 0,7,8
 420 427 420 427 437 417.5 c 128,-1,9
 454 408 454 408 464 394 c 128,-1,10
 474 380 474 380 476.5 363 c 128,-1,11
 479 346 479 346 476 329 c 0,12,13
 467 289 467 289 448.5 267 c 128,-1,14
 430 245 430 245 392 221 c 0,15,16
 355 197 355 197 321 174.5 c 128,-1,17
 287 152 287 152 258.5 126 c 128,-1,18
 230 100 230 100 210 69 c 128,-1,19
 190 38 190 38 183 0 c 1,20,-1
 125 0 l 2,21,22
 119 0 119 0 116 3 c 128,-1,23
 113 6 113 6 118 21 c 0,24,25
 128 44 128 44 144.5 69 c 128,-1,26
 161 94 161 94 180 115 c 0,27,28
 192 128 192 128 187 136 c 0,29,30
 178 147 178 147 165.5 161 c 128,-1,31
 153 175 153 175 145.5 198.5 c 128,-1,32
 138 222 138 222 137 260 c 128,-1,33
 136 298 136 298 149 357 c 0,34,35
 169 451 169 451 215.5 510 c 128,-1,36
 262 569 262 569 348 598 c 1,37,-1
 442 536 l 1,38,-1
 560 601 l 1,39,40
 604 594 604 594 626 573 c 128,-1,41
 648 552 648 552 655.5 520.5 c 128,-1,42
 663 489 663 489 658 445.5 c 128,-1,43
 653 402 653 402 641 348 c 2,44,-1
 623 267 l 1,45,46
 697 262 697 262 757.5 221.5 c 128,-1,47
 818 181 818 181 834 106 c 1,48,49
 837 124 837 124 841.5 151 c 128,-1,50
 846 178 846 178 851.5 208.5 c 128,-1,51
 857 239 857 239 863 266 c 128,-1,52
 869 293 869 293 872 311 c 2,53,-1
 933 589 l 1,54,-1
 991 589 l 1,55,-1
 935 327 l 2,56,57
 925 278 925 278 915 228 c 128,-1,58
 905 178 905 178 896.5 136 c 128,-1,59
 888 94 888 94 882.5 63 c 128,-1,60
 877 32 877 32 877 21 c 0,61,62
 877 6 877 6 873 3 c 128,-1,63
 869 0 869 0 863 0 c 2,64,-1
 806 0 l 1,65,66
 803 97 803 97 753.5 154.5 c 128,-1,67
 704 212 704 212 614 220 c 1,68,-1
 600 140 l 2,69,70
 594 110 594 110 588 83.5 c 128,-1,71
 582 57 582 57 570 36.5 c 128,-1,72
 558 16 558 16 539 3.5 c 128,-1,73
 520 -9 520 -9 486 -9 c 0,74,75
 442 -9 442 -9 423.5 20.5 c 128,-1,76
 405 50 405 50 417 110 c 0,77,78
 424 143 424 143 439.5 169.5 c 128,-1,79
 455 196 455 196 475.5 215 c 128,-1,80
 496 234 496 234 520.5 246.5 c 128,-1,81
 545 259 545 259 569 264 c 1,82,83
 572 283 572 283 574.5 307 c 128,-1,84
 577 331 577 331 583 365 c 0,85,86
 591 404 591 404 597 435 c 128,-1,87
 603 466 603 466 601.5 488 c 128,-1,88
 600 510 600 510 587.5 524.5 c 128,-1,89
 575 539 575 539 545 547 c 1,90,-1
 430 485 l 1,91,-1
 342 545 l 1,92,93
 289 529 289 529 256.5 480.5 c 128,-1,94
 224 432 224 432 208 357 c 0,95,96
 196 302 196 302 196 268 c 128,-1,97
 196 234 196 234 202 213 c 128,-1,98
 208 192 208 192 216.5 178.5 c 128,-1,99
 225 165 225 165 230 152 c 1,100,101
 239 161 239 161 258 176.5 c 128,-1,102
 277 192 277 192 299 208 c 128,-1,103
 321 224 321 224 341.5 238 c 128,-1,104
 362 252 362 252 373 258 c 0,105,106
 398 274 398 274 409 290 c 128,-1,107
 420 306 420 306 423 321 c 0,108,109
 429 346 429 346 418 361 c 128,-1,110
 407 376 407 376 386 376 c 0,111,112
 364 376 364 376 345 360.5 c 128,-1,113
 326 345 326 345 321 323 c 0,114,115
 317 305 317 305 329 290 c 2,116,-1
 349 262 l 1,117,-1
 329 247 l 1,0,-1
560 217 m 1,118,119
 532 209 532 209 506 183.5 c 128,-1,120
 480 158 480 158 471 113 c 0,121,122
 464 81 464 81 473 62.5 c 128,-1,123
 482 44 482 44 498 44 c 0,124,125
 511 44 511 44 519 51.5 c 128,-1,126
 527 59 527 59 531.5 71.5 c 128,-1,127
 536 84 536 84 539 101 c 128,-1,128
 542 118 542 118 547 136 c 0,129,130
 550 146 550 146 552.5 169 c 128,-1,131
 555 192 555 192 560 217 c 1,118,119
EndSplineSet
EndChar
StartChar: uni0E13
Encoding: 3603 3603 232
Width: 939
VWidth: 1473
Flags: W
HStem: -9 52<182.07 256.52 767.941 848.333> 202 47<677.941 786.379> 392 28<265 331> 547 51<359.982 483.638>
VStem: 551.5 58<409.682 459 459 512.887>
Fore
205 175 m 1,0,-1
 252 203 l 1,1,2
 295 203 295 203 317 172 c 128,-1,3
 339 141 339 141 330 97 c 0,4,5
 320 53 320 53 282.5 22 c 128,-1,6
 245 -9 245 -9 200 -9 c 0,7,8
 144 -9 144 -9 126.5 23.5 c 128,-1,9
 109 56 109 56 122 118 c 2,10,-1
 152 262 l 2,11,12
 164 318 164 318 180.5 344 c 128,-1,13
 197 370 197 370 227 395 c 1,14,15
 222 398 222 398 211 406.5 c 128,-1,16
 200 415 200 415 189 426.5 c 128,-1,17
 178 438 178 438 171 449.5 c 128,-1,18
 164 461 164 461 165 470 c 0,19,20
 168 483 168 483 191.5 505 c 128,-1,21
 215 527 215 527 252 548 c 128,-1,22
 289 569 289 569 337 583.5 c 128,-1,23
 385 598 385 598 438 598 c 0,24,25
 488 598 488 598 525.5 587.5 c 128,-1,26
 563 577 563 577 584 550.5 c 128,-1,27
 605 524 605 524 609.5 479.5 c 128,-1,28
 614 435 614 435 600 367 c 2,29,-1
 577 261 l 1,30,-1
 548 134 l 1,31,32
 595 190 595 190 657 219.5 c 128,-1,33
 719 249 719 249 768 249 c 0,34,35
 810 249 810 249 847 236 c 1,36,37
 853 246 853 246 859 273 c 2,38,-1
 927 589 l 1,39,-1
 986 589 l 1,40,-1
 918 273 l 2,41,42
 910 243 910 243 882 220 c 1,43,44
 907 203 907 203 920 174.5 c 128,-1,45
 933 146 933 146 925 108 c 0,46,47
 913 47 913 47 875 21.5 c 128,-1,48
 837 -4 837 -4 793 -4 c 256,49,50
 748 -4 748 -4 724 23 c 128,-1,51
 700 50 700 50 712 103 c 0,52,53
 719 137 719 137 742.5 160.5 c 128,-1,54
 766 184 766 184 787 199 c 1,55,56
 775 202 775 202 754 202 c 0,57,58
 719 202 719 202 680.5 184 c 128,-1,59
 642 166 642 166 609.5 138 c 128,-1,60
 577 110 577 110 553 74 c 128,-1,61
 529 38 529 38 522 0 c 1,62,-1
 471 0 l 2,63,64
 466 0 466 0 463 3 c 128,-1,65
 460 6 460 6 464 21 c 0,66,67
 468 32 468 32 477 69 c 128,-1,68
 486 106 486 106 497 156 c 128,-1,69
 508 206 508 206 519 262 c 128,-1,70
 530 318 530 318 541 367 c 0,71,72
 552 424 552 424 551.5 459 c 128,-1,73
 551 494 551 494 536.5 513.5 c 128,-1,74
 522 533 522 533 494.5 540 c 128,-1,75
 467 547 467 547 426 547 c 0,76,77
 389 547 389 547 353.5 538 c 128,-1,78
 318 529 318 529 289.5 516.5 c 128,-1,79
 261 504 261 504 243 492 c 128,-1,80
 225 480 225 480 224 473 c 0,81,82
 222 468 222 468 227.5 459.5 c 128,-1,83
 233 451 233 451 239.5 442 c 128,-1,84
 246 433 246 433 253.5 426.5 c 128,-1,85
 261 420 261 420 265 420 c 0,86,87
 277 420 277 420 292.5 429.5 c 128,-1,88
 308 439 308 439 321 439 c 0,89,90
 326 439 326 439 330 431.5 c 128,-1,91
 334 424 334 424 336.5 415.5 c 128,-1,92
 339 407 339 407 338 399.5 c 128,-1,93
 337 392 337 392 331 392 c 0,94,95
 309 392 309 392 291.5 387.5 c 128,-1,96
 274 383 274 383 258.5 369 c 128,-1,97
 243 355 243 355 231.5 329 c 128,-1,98
 220 303 220 303 211 262 c 2,99,-1
 181 118 l 2,100,101
 174 84 174 84 182 63.5 c 128,-1,102
 190 43 190 43 212 43 c 0,103,104
 237 43 237 43 254 59 c 128,-1,105
 271 75 271 75 277 97 c 0,106,107
 281 119 281 119 271.5 135.5 c 128,-1,108
 262 152 262 152 240 152 c 2,109,-1
 199 152 l 1,110,-1
 205 175 l 1,0,-1
872 110 m 0,111,112
 884 161 884 161 826 184 c 1,113,114
 798 168 798 168 783 147.5 c 128,-1,115
 768 127 768 127 765 110 c 0,116,117
 751 49 751 49 804 49 c 0,118,119
 859 49 859 49 872 110 c 0,111,112
EndSplineSet
EndChar
StartChar: uni0E14
Encoding: 3604 3604 233
Width: 626
VWidth: 1473
Flags: W
HStem: -1 21G<122 186.5 485 548.298> 376 51<356.551 433.545> 547 51<325.995 526.73>
VStem: 118 65<12.123 72.1456> 137 59<224.312 309.395> 572.5 59.5<406.129 482.632>
Fore
149 357 m 0,0,1
 174 471 174 471 252.5 534.5 c 128,-1,2
 331 598 331 598 436 598 c 0,3,4
 507 598 507 598 549.5 583.5 c 128,-1,5
 592 569 592 569 612 538 c 128,-1,6
 632 507 632 507 632 459.5 c 128,-1,7
 632 412 632 412 619 348 c 2,8,-1
 544 -1 l 1,9,-1
 485 -1 l 1,10,-1
 557 333 l 2,11,12
 569 390 569 390 572.5 431.5 c 128,-1,13
 576 473 576 473 563 498 c 128,-1,14
 550 523 550 523 517.5 535 c 128,-1,15
 485 547 485 547 424 547 c 0,16,17
 346 547 346 547 287 500.5 c 128,-1,18
 228 454 228 454 208 357 c 0,19,20
 196 302 196 302 196 268 c 128,-1,21
 196 234 196 234 202 213 c 128,-1,22
 208 192 208 192 216.5 178.5 c 128,-1,23
 225 165 225 165 230 152 c 1,24,25
 239 161 239 161 261 176.5 c 128,-1,26
 283 192 283 192 308 208.5 c 128,-1,27
 333 225 333 225 356 239 c 128,-1,28
 379 253 379 253 387 259 c 0,29,30
 412 275 412 275 423.5 290.5 c 128,-1,31
 435 306 435 306 438 321 c 0,32,33
 443 346 443 346 432 361 c 128,-1,34
 421 376 421 376 401 376 c 0,35,36
 379 376 379 376 359.5 360.5 c 128,-1,37
 340 345 340 345 336 323 c 0,38,39
 331 305 331 305 343 290 c 2,40,-1
 364 262 l 1,41,-1
 343 247 l 1,42,-1
 299 253 l 1,43,44
 287 270 287 270 284 287.5 c 128,-1,45
 281 305 281 305 284 324 c 0,46,47
 295 367 295 367 331 397 c 128,-1,48
 367 427 367 427 410 427 c 0,49,50
 435 427 435 427 451.5 417.5 c 128,-1,51
 468 408 468 408 478.5 394 c 128,-1,52
 489 380 489 380 491.5 363 c 128,-1,53
 494 346 494 346 491 329 c 0,54,55
 482 289 482 289 463.5 267 c 128,-1,56
 445 245 445 245 407 221 c 0,57,58
 370 197 370 197 334 174.5 c 128,-1,59
 298 152 298 152 267 126 c 128,-1,60
 236 100 236 100 213 69 c 128,-1,61
 190 38 190 38 183 0 c 1,62,-1
 125 0 l 2,63,64
 119 0 119 0 116 3 c 128,-1,65
 113 6 113 6 118 21 c 0,66,67
 128 44 128 44 144.5 69 c 128,-1,68
 161 94 161 94 180 115 c 0,69,70
 192 128 192 128 187 136 c 0,71,72
 178 147 178 147 165.5 161 c 128,-1,73
 153 175 153 175 145.5 198.5 c 128,-1,74
 138 222 138 222 137 260 c 128,-1,75
 136 298 136 298 149 357 c 0,0,1
EndSplineSet
EndChar
StartChar: uni0E15
Encoding: 3605 3605 234
Width: 640
VWidth: 1473
Flags: W
HStem: 0 21G<122 186.5 501 564.195> 376 51<356.551 433.545> 578 20G<305 377.032 512.077 567>
VStem: 118 65<12.123 72.1456> 137 59<224.312 309.395>
Fore
426 485 m 1,0,-1
 342 545 l 1,1,2
 289 529 289 529 256.5 480.5 c 128,-1,3
 224 432 224 432 208 357 c 0,4,5
 196 302 196 302 196 268 c 128,-1,6
 196 234 196 234 202 213 c 128,-1,7
 208 192 208 192 216.5 178.5 c 128,-1,8
 225 165 225 165 230 152 c 1,9,10
 239 161 239 161 261 176.5 c 128,-1,11
 283 192 283 192 308 208.5 c 128,-1,12
 333 225 333 225 356 239 c 128,-1,13
 379 253 379 253 387 259 c 0,14,15
 412 275 412 275 423.5 290.5 c 128,-1,16
 435 306 435 306 438 321 c 0,17,18
 443 346 443 346 432 361 c 128,-1,19
 421 376 421 376 401 376 c 0,20,21
 379 376 379 376 359.5 360.5 c 128,-1,22
 340 345 340 345 336 323 c 0,23,24
 331 305 331 305 343 290 c 2,25,-1
 364 262 l 1,26,-1
 343 247 l 1,27,-1
 299 253 l 1,28,29
 287 270 287 270 284 287.5 c 128,-1,30
 281 305 281 305 284 324 c 0,31,32
 295 367 295 367 331 397 c 128,-1,33
 367 427 367 427 410 427 c 0,34,35
 435 427 435 427 451.5 417.5 c 128,-1,36
 468 408 468 408 478.5 394 c 128,-1,37
 489 380 489 380 491.5 363 c 128,-1,38
 494 346 494 346 491 329 c 0,39,40
 482 289 482 289 463.5 267 c 128,-1,41
 445 245 445 245 407 221 c 0,42,43
 370 197 370 197 334 174.5 c 128,-1,44
 298 152 298 152 267 126 c 128,-1,45
 236 100 236 100 213 69 c 128,-1,46
 190 38 190 38 183 0 c 1,47,-1
 125 0 l 2,48,49
 119 0 119 0 116 3 c 128,-1,50
 113 6 113 6 118 21 c 0,51,52
 128 44 128 44 144.5 69 c 128,-1,53
 161 94 161 94 180 115 c 0,54,55
 192 128 192 128 187 136 c 0,56,57
 178 147 178 147 165.5 161 c 128,-1,58
 153 175 153 175 145.5 198.5 c 128,-1,59
 138 222 138 222 137 260 c 128,-1,60
 136 298 136 298 149 357 c 0,61,62
 169 451 169 451 215.5 510 c 128,-1,63
 262 569 262 569 348 598 c 1,64,-1
 438 536 l 1,65,-1
 545 601 l 1,66,67
 589 594 589 594 612.5 573 c 128,-1,68
 636 552 636 552 644.5 520.5 c 128,-1,69
 653 489 653 489 649 445.5 c 128,-1,70
 645 402 645 402 633 348 c 2,71,-1
 560 0 l 1,72,-1
 501 0 l 1,73,-1
 577 365 l 2,74,75
 586 404 586 404 590.5 435 c 128,-1,76
 595 466 595 466 592 488 c 128,-1,77
 589 510 589 510 574.5 524.5 c 128,-1,78
 560 539 560 539 530 547 c 1,79,-1
 426 485 l 1,0,-1
EndSplineSet
EndChar
StartChar: uni0E16
Encoding: 3606 3606 235
Width: 618
VWidth: 1473
Flags: W
HStem: -9 52<181.902 257.456> 392 28<265 331> 547 51<359.982 484.449>
VStem: 125 497.5<133 479.5 133 186.887> 564 58.5<397.322 459 459 512.887>
Fore
199 150 m 1,0,-1
 205 174 l 1,1,-1
 252 202 l 1,2,3
 295 202 295 202 317 171.5 c 128,-1,4
 339 141 339 141 330 97 c 0,5,6
 320 53 320 53 283 22 c 128,-1,7
 246 -9 246 -9 202 -9 c 0,8,9
 152 -9 152 -9 130.5 25.5 c 128,-1,10
 109 60 109 60 125 133 c 2,11,-1
 152 262 l 2,12,13
 164 318 164 318 180.5 344 c 128,-1,14
 197 370 197 370 227 395 c 1,15,16
 222 398 222 398 211 406.5 c 128,-1,17
 200 415 200 415 189 426.5 c 128,-1,18
 178 438 178 438 171 449.5 c 128,-1,19
 164 461 164 461 165 470 c 0,20,21
 168 483 168 483 191.5 505 c 128,-1,22
 215 527 215 527 252 548 c 128,-1,23
 289 569 289 569 337 583.5 c 128,-1,24
 385 598 385 598 438 598 c 0,25,26
 488 598 488 598 527.5 587.5 c 128,-1,27
 567 577 567 577 591.5 550.5 c 128,-1,28
 616 524 616 524 622.5 479.5 c 128,-1,29
 629 435 629 435 614 367 c 2,30,-1
 538 0 l 1,31,-1
 479 0 l 1,32,-1
 555 367 l 2,33,34
 567 424 567 424 564 459 c 128,-1,35
 561 494 561 494 543.5 513.5 c 128,-1,36
 526 533 526 533 496.5 540 c 128,-1,37
 467 547 467 547 426 547 c 0,38,39
 389 547 389 547 353.5 538 c 128,-1,40
 318 529 318 529 289.5 516.5 c 128,-1,41
 261 504 261 504 243 492 c 128,-1,42
 225 480 225 480 224 473 c 0,43,44
 222 468 222 468 227.5 459.5 c 128,-1,45
 233 451 233 451 239.5 442 c 128,-1,46
 246 433 246 433 253.5 426.5 c 128,-1,47
 261 420 261 420 265 420 c 0,48,49
 277 420 277 420 292.5 429.5 c 128,-1,50
 308 439 308 439 321 439 c 0,51,52
 326 439 326 439 330 431.5 c 128,-1,53
 334 424 334 424 336.5 415.5 c 128,-1,54
 339 407 339 407 338 399.5 c 128,-1,55
 337 392 337 392 331 392 c 0,56,57
 309 392 309 392 291.5 387.5 c 128,-1,58
 274 383 274 383 258.5 369 c 128,-1,59
 243 355 243 355 231.5 329 c 128,-1,60
 220 303 220 303 211 262 c 2,61,-1
 180 113 l 2,62,63
 172 80 172 80 182 61.5 c 128,-1,64
 192 43 192 43 214 43 c 0,65,66
 239 43 239 43 255 59 c 128,-1,67
 271 75 271 75 277 97 c 0,68,69
 281 119 281 119 271.5 134.5 c 128,-1,70
 262 150 262 150 240 150 c 2,71,-1
 199 150 l 1,0,-1
EndSplineSet
EndChar
StartChar: uni0E17
Encoding: 3607 3607 236
Width: 704
VWidth: 1473
Flags: W
HStem: 0 21G<180 238.455 564 627.213> 548 52<229.704 308.834 575.749 656.8>
Fore
273 439 m 1,0,-1
 267 415 l 1,1,-1
 227 389 l 1,2,3
 184 389 184 389 165 419 c 128,-1,4
 146 449 146 449 156 494 c 0,5,6
 165 538 165 538 203.5 569 c 128,-1,7
 242 600 242 600 286 600 c 0,8,9
 337 600 337 600 358.5 569.5 c 128,-1,10
 380 539 380 539 368 483 c 0,11,12
 365 467 365 467 358 451.5 c 128,-1,13
 351 436 351 436 341 417.5 c 128,-1,14
 331 399 331 399 321.5 376.5 c 128,-1,15
 312 354 312 354 303 323 c 2,16,-1
 267 186 l 1,17,18
 301 261 301 261 344 334 c 128,-1,19
 387 407 387 407 435 465 c 128,-1,20
 483 523 483 523 533 558.5 c 128,-1,21
 583 594 583 594 629 594 c 0,22,23
 681 594 681 594 709.5 567.5 c 128,-1,24
 738 541 738 541 722 470 c 2,25,-1
 623 0 l 1,26,-1
 564 0 l 1,27,-1
 663 470 l 2,28,29
 670 505 670 505 659 523.5 c 128,-1,30
 648 542 648 542 625 542 c 0,31,32
 598 542 598 542 562.5 518 c 128,-1,33
 527 494 527 494 489 452.5 c 128,-1,34
 451 411 451 411 412 357 c 128,-1,35
 373 303 373 303 339 246 c 128,-1,36
 305 189 305 189 278.5 130.5 c 128,-1,37
 252 72 252 72 239 22 c 2,38,-1
 233 0 l 1,39,-1
 183 0 l 2,40,41
 177 0 177 0 174 3 c 128,-1,42
 171 6 171 6 175 21 c 0,43,44
 180 32 180 32 188.5 63 c 128,-1,45
 197 94 197 94 207 136 c 128,-1,46
 217 178 217 178 228 228 c 128,-1,47
 239 278 239 278 249 327 c 0,48,49
 255 355 255 355 264 376.5 c 128,-1,50
 273 398 273 398 281.5 415.5 c 128,-1,51
 290 433 290 433 298 448.5 c 128,-1,52
 306 464 306 464 309 480 c 0,53,54
 323 548 323 548 275 548 c 0,55,56
 250 548 250 548 232 532 c 128,-1,57
 214 516 214 516 209 494 c 0,58,59
 203 471 203 471 210.5 455 c 128,-1,60
 218 439 218 439 240 439 c 2,61,-1
 273 439 l 1,0,-1
EndSplineSet
EndChar
StartChar: uni0E18
Encoding: 3608 3608 237
Width: 614
VWidth: 1473
Flags: W
HStem: -9 52<257.425 353.36> 350.5 54<229.846 297.846 297.846 324.696 324.696 393.217> 520 58<408.961 457.819 457.819 471.819 464.819 518.52 515.282 521.758 521.758 548.5 570 596.311> 535 54<252.358 338.596 325.846 351.346 362.222 363.64>
VStem: 121 55<89.7179 110.5 110.5 152.9> 156.5 57.5<416.882 448.238>
Fore
645 603 m 1,0,1
 648 582 l 0,2,3
 650 573 650 573 650.5 564 c 128,-1,4
 651 555 651 555 650 548 c 0,5,6
 648 539 648 539 632 533 c 0,7,8
 616 529 616 529 570 523 c 128,-1,9
 524 517 524 517 482 517 c 0,10,11
 460 517 460 517 433.5 520 c 128,-1,12
 407 523 407 523 383 526 c 128,-1,13
 359 529 359 529 340 532 c 128,-1,14
 321 535 321 535 312 535 c 0,15,16
 280 535 280 535 252.5 514.5 c 128,-1,17
 225 494 225 494 218 460 c 0,18,19
 214 439 214 439 214 429.5 c 128,-1,20
 214 420 214 420 221 412 c 0,21,22
 230 405 230 405 261.5 404.5 c 128,-1,23
 293 404 293 404 334.5 402.5 c 128,-1,24
 376 401 376 401 421 396.5 c 128,-1,25
 466 392 466 392 502 377 c 128,-1,26
 538 362 538 362 557 333.5 c 128,-1,27
 576 305 576 305 566 258 c 2,28,-1
 552 194 l 2,29,30
 541 138 541 138 527.5 106.5 c 128,-1,31
 514 75 514 75 489 52 c 0,32,33
 445 12 445 12 391 1.5 c 128,-1,34
 337 -9 337 -9 298 -9 c 0,35,36
 278 -9 278 -9 254.5 -6.5 c 128,-1,37
 231 -4 231 -4 208.5 1.5 c 128,-1,38
 186 7 186 7 166 19.5 c 128,-1,39
 146 32 146 32 133 52 c 0,40,41
 118 74 118 74 121 110.5 c 128,-1,42
 124 147 124 147 134 194 c 2,43,-1
 156 305 l 1,44,-1
 212 301 l 1,45,46
 205 264 205 264 199 240.5 c 128,-1,47
 193 217 193 217 186 187 c 0,48,49
 178 152 178 152 176 124.5 c 128,-1,50
 174 97 174 97 183 82 c 0,51,52
 197 62 197 62 230.5 52.5 c 128,-1,53
 264 43 264 43 309 43 c 256,54,55
 355 43 355 43 391 52.5 c 128,-1,56
 427 62 427 62 451 82 c 0,57,58
 467 97 467 97 473.5 118.5 c 128,-1,59
 480 140 480 140 488 169 c 2,60,-1
 507 258 l 2,61,62
 514 292 514 292 495 309.5 c 128,-1,63
 476 327 476 327 442 336 c 128,-1,64
 408 345 408 345 365.5 347 c 128,-1,65
 323 349 323 349 284 350.5 c 128,-1,66
 245 352 245 352 214 355 c 128,-1,67
 183 358 183 358 174 368 c 0,68,69
 158 385 158 385 156.5 407 c 128,-1,70
 155 429 155 429 162 458 c 0,71,72
 174 519 174 519 219 554 c 128,-1,73
 264 589 264 589 321 589 c 0,74,75
 331 589 331 589 352 587 c 128,-1,76
 373 585 373 585 398 582.5 c 128,-1,77
 423 580 423 580 448.5 578 c 128,-1,78
 474 576 474 576 495 576 c 0,79,80
 522 576 522 576 548.5 579.5 c 128,-1,81
 575 583 575 583 597 589 c 0,82,83
 623 595 623 595 645 603 c 1,0,1
EndSplineSet
EndChar
StartChar: uni0E19
Encoding: 3609 3609 238
Width: 671
VWidth: 1473
Flags: W
HStem: -4 53<495.777 584.841> 200 49<436.177 515.921> 548 52<229.704 308.834>
Fore
267 415 m 1,0,-1
 227 389 l 1,1,2
 184 389 184 389 165 419 c 128,-1,3
 146 449 146 449 156 494 c 0,4,5
 165 538 165 538 203.5 569 c 128,-1,6
 242 600 242 600 286 600 c 0,7,8
 337 600 337 600 358.5 569.5 c 128,-1,9
 380 539 380 539 368 483 c 0,10,11
 365 467 365 467 357 451.5 c 128,-1,12
 349 436 349 436 339.5 417.5 c 128,-1,13
 330 399 330 399 320.5 376.5 c 128,-1,14
 311 354 311 354 303 323 c 2,15,-1
 264 134 l 1,16,17
 287 162 287 162 317.5 183.5 c 128,-1,18
 348 205 348 205 380 219.5 c 128,-1,19
 412 234 412 234 443 241.5 c 128,-1,20
 474 249 474 249 498 249 c 0,21,22
 541 249 541 249 577 236 c 1,23,24
 583 246 583 246 589 273 c 2,25,-1
 657 589 l 1,26,-1
 716 589 l 1,27,-1
 648 273 l 2,28,29
 641 243 641 243 613 220 c 1,30,31
 638 203 638 203 650.5 174.5 c 128,-1,32
 663 146 663 146 656 108 c 0,33,34
 644 47 644 47 605.5 21.5 c 128,-1,35
 567 -4 567 -4 523 -4 c 256,36,37
 479 -4 479 -4 454.5 23 c 128,-1,38
 430 50 430 50 442 103 c 0,39,40
 449 137 449 137 472 160 c 128,-1,41
 495 183 495 183 517 196 c 1,42,43
 507 200 507 200 485 200 c 0,44,45
 449 200 449 200 408.5 183 c 128,-1,46
 368 166 368 166 333 137.5 c 128,-1,47
 298 109 298 109 271.5 73.5 c 128,-1,48
 245 38 245 38 237 0 c 1,49,-1
 187 0 l 2,50,51
 181 0 181 0 178 3 c 128,-1,52
 175 6 175 6 180 21 c 0,53,54
 184 32 184 32 192 63 c 128,-1,55
 200 94 200 94 209 136 c 128,-1,56
 218 178 218 178 228.5 228 c 128,-1,57
 239 278 239 278 249 327 c 0,58,59
 255 355 255 355 264 376.5 c 128,-1,60
 273 398 273 398 281.5 415.5 c 128,-1,61
 290 433 290 433 298 448.5 c 128,-1,62
 306 464 306 464 309 480 c 0,63,64
 323 548 323 548 275 548 c 0,65,66
 250 548 250 548 232 532 c 128,-1,67
 214 516 214 516 209 494 c 0,68,69
 203 471 203 471 210.5 455 c 128,-1,70
 218 439 218 439 240 439 c 2,71,-1
 273 439 l 1,72,-1
 267 415 l 1,0,-1
603 110 m 0,73,74
 614 161 614 161 557 184 c 1,75,76
 529 168 529 168 513.5 147.5 c 128,-1,77
 498 127 498 127 495 110 c 0,78,79
 482 49 482 49 535 49 c 0,80,81
 589 49 589 49 603 110 c 0,73,74
EndSplineSet
EndChar
